<?xml version="1.0" encoding="UTF-8" ?>
<!DOCTYPE svg PUBLIC "-//W3C//DTD SVG 1.1//EN" "http://www.w3.org/Graphics/SVG/1.1/DTD/svg11.dtd">
<svg width="960pt" height="540pt" viewBox="0 0 960 540" version="1.1" xmlns="http://www.w3.org/2000/svg">
<g id="#1f1b1fff">
<path fill="#1f1b1f" opacity="1.00" d=" M 0.00 0.00 L 960.00 0.00 L 960.00 540.00 L 0.00 540.00 L 0.00 0.00 M 217.70 29.30 C 219.12 31.67 214.59 33.87 217.60 35.43 C 220.16 37.69 222.74 40.01 224.20 43.17 C 228.33 41.58 228.99 49.19 232.77 50.21 C 232.09 47.89 230.93 45.52 231.58 43.04 C 238.75 49.41 246.14 55.59 252.77 62.53 C 253.37 61.99 253.96 61.44 254.53 60.88 C 245.33 53.74 237.23 45.22 228.52 37.47 C 225.01 34.60 222.49 30.15 217.70 29.30 M 224.61 31.01 C 242.89 47.46 261.26 63.77 279.39 80.38 C 279.73 80.39 280.42 80.41 280.76 80.42 C 285.45 84.31 289.25 89.02 293.21 93.59 C 293.63 93.49 294.48 93.29 294.90 93.18 C 298.82 97.55 302.59 102.12 307.14 105.86 C 312.86 109.15 316.11 115.15 321.35 119.09 C 325.01 120.34 326.58 124.24 329.48 126.53 C 342.04 137.30 353.48 149.20 366.01 159.99 C 382.87 176.20 400.83 191.31 417.36 207.83 C 416.33 207.53 414.28 206.95 413.25 206.66 C 415.53 208.86 417.86 211.03 420.10 213.29 C 418.76 213.51 417.44 213.85 416.16 214.30 C 414.26 217.00 412.40 219.75 410.15 222.18 C 410.76 216.29 411.10 210.39 411.59 204.50 C 409.64 206.49 407.90 208.67 406.48 211.07 C 408.57 212.72 407.32 214.73 405.56 215.95 C 406.32 218.34 406.83 220.81 406.68 223.34 C 405.19 221.00 403.99 218.41 401.87 216.56 C 402.02 217.62 402.30 219.73 402.44 220.79 C 400.17 219.41 398.37 217.54 398.49 214.70 C 399.13 214.81 400.40 215.01 401.04 215.11 L 400.98 214.00 C 400.51 213.86 399.59 213.59 399.12 213.45 C 398.64 208.15 400.18 202.95 400.17 197.66 C 400.88 199.16 401.73 200.58 402.45 202.09 C 402.27 200.46 402.11 198.83 401.95 197.21 L 404.18 197.52 C 401.36 194.44 398.42 191.36 394.70 189.36 C 396.49 191.07 400.22 195.49 395.03 194.95 C 392.16 197.96 389.09 200.77 385.98 203.53 C 387.04 196.73 386.52 189.63 388.87 183.09 C 387.22 181.74 385.52 180.46 383.69 179.39 C 384.78 180.79 385.98 182.10 387.23 183.38 C 385.44 185.97 383.65 188.57 381.85 191.16 C 383.17 191.19 384.49 191.21 385.81 191.24 L 385.83 191.54 C 382.12 191.47 383.28 195.77 382.54 198.19 C 381.17 194.37 381.09 190.00 378.75 186.59 C 378.33 187.97 378.10 189.39 378.05 190.84 C 381.41 194.11 381.05 199.61 382.87 203.80 C 382.35 203.68 381.31 203.43 380.79 203.31 C 380.24 200.65 379.49 197.85 376.85 196.54 C 377.07 197.72 377.51 200.08 377.72 201.26 C 375.72 199.40 372.68 198.14 371.55 195.59 C 371.55 188.30 372.92 181.05 373.63 173.80 C 375.82 176.28 375.00 180.40 377.80 182.34 C 377.23 179.85 376.55 177.39 375.76 174.96 C 376.17 174.08 376.57 173.20 376.98 172.33 C 374.96 170.28 372.70 168.50 370.50 166.66 C 370.59 167.41 370.78 168.91 370.87 169.67 C 364.95 172.20 359.92 176.25 354.93 180.23 C 355.80 172.82 356.71 165.41 357.79 158.04 C 358.28 157.78 359.27 157.27 359.77 157.01 C 358.70 155.99 357.64 154.97 356.59 153.94 C 357.23 158.43 352.78 161.09 351.01 164.76 C 351.44 164.90 352.31 165.17 352.74 165.31 C 352.24 168.09 351.93 170.90 351.60 173.70 C 350.21 170.59 348.86 167.41 348.36 164.02 C 349.43 161.78 351.16 159.88 352.41 157.72 C 350.00 157.72 348.69 159.80 347.20 161.33 C 346.15 157.86 345.42 154.21 343.34 151.18 C 344.11 161.17 350.18 170.02 350.94 180.04 C 350.19 179.44 349.45 178.84 348.71 178.25 C 348.03 175.97 347.74 173.38 346.18 171.53 C 343.12 171.57 346.91 175.55 346.79 177.09 C 343.18 174.34 339.74 171.39 336.13 168.66 C 335.93 160.03 337.86 151.52 339.29 143.05 C 341.57 145.44 340.80 149.55 343.79 151.36 C 342.97 148.51 342.21 145.65 341.75 142.72 C 342.99 143.33 344.23 143.93 345.48 144.52 C 342.45 140.88 338.84 137.81 335.33 134.66 C 335.46 135.51 335.70 137.22 335.83 138.07 C 328.29 140.68 321.30 144.55 314.09 147.90 C 314.83 139.22 316.48 130.60 318.09 122.05 C 318.61 121.80 319.64 121.31 320.15 121.06 C 318.89 119.95 317.68 118.79 316.51 117.59 C 317.41 122.95 311.58 125.61 309.86 130.15 C 311.33 130.13 312.80 130.09 314.27 130.02 C 309.35 131.38 311.36 137.57 309.54 141.29 C 308.42 136.40 303.93 131.01 308.32 126.54 C 307.25 127.15 306.11 127.52 304.90 127.64 C 302.16 120.85 299.95 113.86 297.33 107.02 C 296.69 104.96 294.75 101.42 298.74 101.76 C 294.80 97.85 291.05 93.58 286.19 90.76 C 286.80 92.30 287.82 93.73 287.82 95.45 C 277.85 97.56 267.99 100.19 258.16 102.88 C 257.60 101.89 256.16 101.10 256.60 99.81 C 258.41 91.20 260.27 82.59 262.17 74.00 C 262.30 72.25 263.60 71.33 265.36 71.28 C 262.33 68.32 258.91 65.76 256.21 62.49 C 255.61 63.01 255.03 63.55 254.48 64.11 C 256.97 65.29 258.90 67.27 260.69 69.31 C 260.66 69.84 260.60 70.91 260.58 71.44 C 259.02 73.26 257.35 74.99 255.58 76.61 C 254.70 78.29 253.76 79.92 252.73 81.51 C 254.60 81.20 256.49 80.97 258.38 80.78 L 258.26 81.95 C 256.92 81.96 255.58 81.97 254.25 81.98 C 253.42 86.47 252.38 90.92 251.39 95.37 C 249.14 91.38 247.78 86.99 246.12 82.75 C 251.38 80.16 253.76 74.19 257.38 69.83 C 256.76 69.79 255.52 69.72 254.90 69.69 C 252.17 73.20 248.90 76.46 247.32 80.70 C 246.80 80.74 245.78 80.82 245.26 80.86 C 243.58 74.99 239.36 69.61 239.53 63.39 C 236.34 60.82 236.19 56.37 233.97 53.13 C 233.82 55.42 233.76 57.71 233.78 60.00 C 234.45 61.53 235.10 63.07 235.68 64.63 C 236.27 66.00 236.83 67.38 237.42 68.76 C 232.84 67.96 235.19 61.94 231.01 61.65 C 235.48 73.70 240.64 85.50 245.63 97.35 C 236.24 90.51 227.24 83.09 218.12 75.88 C 217.99 72.10 218.25 68.29 219.61 64.72 C 216.73 64.68 215.13 61.95 213.08 60.35 C 212.58 63.35 212.84 68.56 208.30 67.55 C 208.40 68.37 208.49 69.19 208.58 70.01 C 207.15 69.56 205.70 69.15 204.25 68.75 C 204.86 70.08 205.80 71.19 207.02 72.00 C 283.48 130.45 359.51 189.47 435.33 248.76 C 449.05 259.60 463.18 269.94 476.57 281.21 C 475.08 281.15 473.59 281.10 472.11 281.04 C 472.13 282.42 472.17 283.79 472.23 285.18 C 472.66 284.46 473.09 283.74 473.53 283.02 C 474.18 283.92 474.92 284.75 475.75 285.51 C 475.65 284.99 475.46 283.95 475.36 283.43 C 475.85 282.96 476.84 282.01 477.33 281.53 C 479.92 283.67 482.79 285.48 485.01 288.03 C 486.62 288.62 487.90 289.71 488.94 291.06 C 489.80 291.85 490.80 292.41 491.94 292.75 C 489.54 292.69 488.62 294.42 488.05 296.36 C 490.64 296.93 493.28 297.29 495.90 297.70 C 495.75 298.50 495.61 299.31 495.48 300.12 C 496.93 300.69 498.35 301.36 499.81 301.95 C 499.52 300.91 499.23 299.88 498.95 298.86 C 501.09 300.09 503.01 301.67 504.70 303.48 C 503.51 302.97 502.33 302.46 501.15 301.94 C 501.29 303.14 501.42 304.36 501.55 305.57 C 502.12 305.65 503.26 305.81 503.83 305.89 C 504.30 305.36 505.25 304.31 505.73 303.79 C 506.72 304.84 507.81 305.77 508.83 306.81 C 508.38 307.30 507.48 308.27 507.04 308.76 C 509.49 309.03 512.14 309.09 514.16 310.74 C 513.56 311.29 512.38 312.39 511.78 312.94 C 512.27 313.16 513.23 313.60 513.71 313.81 C 515.07 310.68 519.67 313.38 516.48 315.41 C 517.31 316.02 518.05 316.74 518.69 317.56 C 519.21 316.89 519.74 316.23 520.30 315.58 C 520.33 316.99 520.36 318.40 520.39 319.81 C 521.65 319.66 522.91 319.51 524.19 319.37 C 524.07 322.88 528.25 323.32 530.85 323.80 C 531.82 324.62 532.81 325.46 533.79 326.30 C 532.89 329.52 532.82 332.89 532.66 336.21 C 534.03 338.68 533.02 341.37 532.71 343.96 C 532.65 357.09 533.33 370.25 532.66 383.38 C 530.52 382.00 531.46 379.11 531.39 377.02 C 532.39 365.67 531.42 354.39 531.18 343.10 C 529.78 342.33 528.30 341.76 526.81 341.26 C 526.52 341.90 525.92 343.20 525.63 343.84 C 524.32 342.12 523.13 340.34 521.93 338.56 C 520.66 338.61 519.40 338.64 518.15 338.62 C 516.81 342.84 511.29 344.57 511.44 349.35 C 514.11 349.36 516.79 349.37 519.47 349.36 L 519.60 351.22 C 520.23 350.67 521.49 349.57 522.12 349.02 C 521.67 349.93 521.22 350.85 520.77 351.77 C 517.66 351.63 514.55 351.59 511.46 351.83 C 511.85 352.85 512.39 353.80 513.07 354.67 C 512.50 355.37 511.93 356.07 511.38 356.78 C 511.02 356.14 510.30 354.85 509.94 354.21 C 506.28 355.77 508.04 360.06 508.34 363.06 C 507.32 364.10 506.56 365.32 506.07 366.72 C 506.64 366.71 507.78 366.69 508.35 366.68 C 508.32 368.58 508.30 370.49 508.30 372.40 C 503.21 377.80 496.11 383.46 497.80 391.84 L 497.06 391.84 C 497.12 389.06 497.26 386.28 497.52 383.51 C 497.93 383.14 498.73 382.41 499.14 382.04 C 499.11 373.18 499.13 364.31 499.23 355.45 C 499.03 345.64 500.26 335.68 498.89 325.96 C 491.87 321.61 484.35 317.79 476.86 314.21 C 475.03 313.01 473.12 311.93 471.15 310.98 C 469.49 311.72 467.79 312.36 466.01 312.75 C 464.83 311.41 463.27 310.57 461.64 309.93 C 461.59 308.53 461.60 307.13 461.58 305.73 C 420.35 283.79 378.97 262.12 337.64 240.37 C 336.52 239.99 335.38 238.75 334.14 239.51 L 334.95 238.59 C 283.52 212.32 232.70 184.80 181.13 158.85 C 178.92 162.25 176.82 165.84 177.59 170.07 C 175.86 176.39 170.93 181.04 167.89 186.72 C 168.86 186.60 170.82 186.37 171.79 186.25 C 170.26 189.71 171.30 193.87 168.83 196.94 C 164.75 203.42 167.40 213.22 160.83 218.11 C 159.33 222.01 157.75 225.94 158.14 230.22 L 157.61 230.88 C 154.72 235.48 157.89 241.11 155.84 245.95 C 155.48 246.90 155.13 247.86 154.77 248.82 C 153.50 257.02 150.85 264.90 149.34 273.05 C 147.50 277.26 142.52 279.79 143.13 285.06 C 142.50 285.66 141.88 286.27 141.26 286.89 C 141.93 291.89 139.63 296.45 138.18 301.08 C 137.14 303.72 135.73 306.19 134.70 308.83 C 134.01 311.85 135.17 315.04 133.84 317.95 C 133.27 319.99 132.59 322.00 131.77 323.96 C 129.99 327.43 129.85 331.46 130.62 335.22 C 129.37 340.49 130.27 345.99 128.86 351.24 C 128.37 355.73 125.55 359.43 124.49 363.75 L 124.07 363.07 C 122.88 367.80 122.00 372.62 122.51 377.52 C 121.19 379.72 120.15 382.20 120.47 384.83 C 115.77 392.45 116.28 401.91 111.32 409.45 C 108.59 418.58 107.76 428.24 105.38 437.50 C 102.16 440.29 104.08 445.39 100.80 448.01 C 100.75 449.14 100.70 450.27 100.65 451.42 C 99.58 452.80 98.67 454.31 97.76 455.82 C 98.35 459.68 92.82 461.82 95.18 465.51 C 93.69 466.26 92.59 467.53 91.33 468.59 C 93.91 470.32 96.12 472.51 98.35 474.65 C 98.79 474.38 99.68 473.82 100.12 473.55 C 100.97 474.48 101.85 475.41 102.73 476.34 C 104.93 476.25 107.19 476.28 109.12 477.51 C 114.30 475.30 121.73 469.40 126.60 474.70 C 128.33 474.92 130.06 475.14 131.80 475.34 C 130.91 476.98 130.05 478.63 129.18 480.29 C 129.93 480.33 131.41 480.40 132.15 480.43 C 131.29 481.76 130.49 483.11 129.75 484.52 C 133.88 483.99 137.67 482.24 141.53 480.81 L 141.69 480.52 C 147.65 478.38 154.04 480.72 160.07 479.13 C 166.05 477.45 172.00 480.34 178.03 479.79 C 186.02 479.99 195.42 478.96 202.11 484.08 C 204.98 485.19 208.02 485.73 211.05 486.19 C 210.03 486.94 209.00 487.69 207.98 488.45 C 217.33 488.74 226.66 489.94 236.02 489.47 C 240.77 488.99 245.23 491.04 249.80 491.96 C 249.64 492.45 249.32 493.41 249.16 493.90 C 257.39 495.15 265.55 497.16 273.93 496.69 C 280.44 498.77 287.14 496.84 293.74 497.41 C 302.73 500.16 312.20 497.57 321.31 499.59 C 333.18 498.13 345.16 500.37 357.04 498.66 C 363.38 498.37 370.00 500.72 376.05 497.71 C 379.72 497.59 383.43 497.79 387.03 496.90 C 396.21 495.11 406.31 497.80 414.93 493.56 C 416.05 493.54 417.18 493.54 418.31 493.57 C 419.63 492.67 420.74 491.53 421.87 490.41 C 427.00 489.73 431.55 493.89 436.70 492.13 C 447.97 489.51 459.54 488.84 470.99 487.61 C 479.68 488.49 489.28 489.52 497.07 484.67 C 509.23 485.67 520.82 480.48 533.04 480.94 C 539.22 480.91 544.87 478.04 551.04 477.84 C 556.66 479.28 562.31 477.29 567.96 477.65 C 574.01 479.52 580.45 478.54 586.55 477.40 C 592.58 475.41 598.89 477.87 605.02 476.51 C 612.22 477.55 618.86 473.24 625.97 473.97 C 632.67 475.92 639.25 471.90 646.04 473.32 C 653.20 475.01 660.30 469.83 667.32 472.61 C 673.57 474.32 679.98 471.93 686.33 472.51 C 686.28 471.95 686.19 470.84 686.15 470.28 C 691.31 468.60 697.00 470.88 701.62 467.51 C 706.20 469.68 711.21 469.11 716.10 468.79 C 717.70 469.47 719.33 470.12 721.03 470.55 C 723.52 467.13 727.83 466.67 731.72 466.39 C 728.75 451.38 722.88 436.76 723.60 421.25 C 722.51 415.68 721.79 409.34 720.33 404.29 C 719.86 403.76 718.92 402.70 718.44 402.17 C 718.59 400.88 718.74 399.59 718.90 398.32 L 718.56 398.35 C 718.41 396.67 718.29 395.00 718.21 393.33 C 719.02 392.46 719.83 391.58 720.66 390.71 C 720.46 388.86 720.27 387.01 720.11 385.17 C 721.87 380.92 718.75 376.38 718.96 371.95 C 719.09 366.68 716.80 361.61 717.53 356.36 C 719.41 350.61 717.74 344.55 716.01 338.99 C 715.69 331.60 712.16 324.40 713.84 316.96 C 710.76 312.49 710.93 306.86 710.47 301.69 C 709.11 297.83 707.90 293.90 707.99 289.75 C 707.06 287.30 707.78 284.71 707.90 282.20 C 706.19 278.96 703.76 276.04 702.75 272.48 C 702.48 268.27 702.33 264.02 701.00 259.97 C 700.44 256.98 697.96 253.79 700.24 250.98 C 697.14 246.53 696.54 241.03 695.13 235.94 C 694.54 230.27 691.48 224.98 692.29 219.18 C 689.22 216.66 689.02 212.47 687.87 208.96 C 686.70 203.89 684.17 199.19 683.88 193.92 C 683.55 190.38 679.30 187.37 681.44 183.80 C 677.93 181.06 681.20 176.61 680.83 173.00 C 681.93 166.56 679.34 160.23 680.63 153.81 C 682.27 145.33 679.81 136.17 683.41 128.09 C 683.40 123.76 683.73 119.43 683.48 115.10 C 679.70 116.40 675.79 117.30 671.81 117.57 C 670.02 120.04 667.08 120.08 664.31 119.86 C 662.72 118.49 660.74 117.10 658.54 117.62 C 654.59 118.73 650.80 116.91 647.00 116.06 C 638.33 114.13 629.79 111.81 620.83 112.16 C 613.94 108.25 605.72 108.25 598.10 106.90 C 596.65 107.15 595.22 107.44 593.80 107.77 C 591.92 103.50 585.10 104.56 581.06 104.59 C 580.64 103.89 580.23 103.18 579.82 102.49 C 577.36 102.43 574.95 102.00 572.58 101.42 C 571.81 100.87 571.05 100.33 570.30 99.78 C 565.23 99.06 560.65 96.45 557.26 92.67 C 552.53 92.22 547.82 91.60 543.18 90.57 C 542.94 90.13 542.48 89.26 542.24 88.83 C 529.47 87.27 516.64 86.00 504.01 83.50 C 504.42 80.72 504.97 77.96 505.68 75.24 C 506.35 75.29 507.67 75.40 508.33 75.46 C 506.54 74.08 504.25 74.39 502.14 74.20 C 496.08 72.06 489.18 74.13 483.21 71.33 C 483.66 70.82 484.55 69.81 485.00 69.30 C 477.53 68.82 470.44 65.89 463.02 65.35 C 458.67 67.85 454.41 63.34 450.03 65.31 C 445.73 66.25 443.18 72.11 438.30 70.52 C 426.40 67.82 414.03 68.71 402.30 65.17 C 402.29 65.77 402.26 66.95 402.24 67.55 C 402.83 67.88 404.01 68.53 404.60 68.86 C 404.53 69.79 404.41 71.64 404.35 72.57 C 399.79 73.47 395.72 70.69 391.25 70.47 C 388.21 70.26 386.14 67.10 383.02 67.35 C 378.11 67.71 373.73 65.07 368.95 64.53 C 364.47 64.68 360.04 63.76 355.62 63.47 C 353.19 61.59 350.40 60.70 347.36 61.64 C 357.78 69.75 369.33 76.34 380.18 83.87 C 380.82 83.73 381.47 83.58 382.13 83.44 C 382.34 84.03 382.76 85.22 382.97 85.81 C 390.76 90.74 398.60 95.62 406.22 100.81 C 406.49 100.70 407.04 100.48 407.31 100.36 C 407.73 102.65 410.28 103.24 411.98 104.37 C 417.09 107.09 421.57 110.96 427.01 113.05 C 432.13 116.99 437.83 120.72 443.94 122.90 C 447.23 126.75 452.66 128.38 456.96 131.06 C 460.45 133.42 464.22 135.27 467.99 137.13 C 471.24 139.12 474.56 141.12 478.33 141.95 C 478.32 142.21 478.31 142.71 478.30 142.97 C 480.84 144.03 483.47 144.87 485.96 146.08 C 500.33 153.42 516.09 159.14 532.40 159.52 C 532.75 158.58 533.04 157.63 533.27 156.67 C 533.31 157.39 533.38 158.83 533.42 159.55 C 533.86 159.80 534.74 160.30 535.18 160.55 C 529.95 160.10 530.93 168.24 528.50 171.67 C 529.43 172.62 530.80 173.41 530.65 174.96 C 529.08 172.02 524.75 173.85 522.03 173.72 C 517.35 174.95 510.76 173.19 507.92 178.06 C 507.90 179.40 507.91 180.74 507.94 182.09 C 504.67 180.53 508.22 177.33 508.51 174.93 C 509.63 174.20 510.79 173.52 512.00 172.92 C 517.41 172.60 522.77 171.62 528.19 171.42 C 529.40 168.08 530.38 164.67 531.36 161.26 C 530.20 159.50 527.83 159.81 526.02 159.58 C 508.80 158.39 493.15 150.45 477.48 144.05 C 474.57 141.85 471.25 140.33 467.83 139.12 C 464.30 136.70 460.50 134.71 456.49 133.21 C 452.32 130.25 447.84 127.64 443.05 125.83 C 437.95 122.04 432.38 118.77 426.51 116.35 C 418.82 109.72 408.89 106.44 401.00 100.13 C 395.30 96.86 389.97 92.95 384.15 89.90 C 379.75 88.78 377.40 84.53 373.34 82.73 C 364.40 77.79 356.67 70.34 346.92 67.11 C 342.84 62.21 336.77 57.32 329.97 58.74 C 328.21 57.95 326.80 56.55 325.02 55.79 C 321.00 54.52 316.19 57.14 312.87 53.74 C 309.52 54.78 305.51 54.87 302.28 53.70 C 299.56 50.53 293.12 51.76 293.39 46.29 C 292.41 46.28 291.45 46.55 290.48 46.55 C 290.45 45.86 290.38 44.48 290.35 43.79 C 284.58 44.70 279.48 40.85 273.87 41.79 C 273.26 41.14 272.65 40.48 272.05 39.83 C 261.77 39.61 252.22 34.54 241.98 34.77 C 236.71 31.69 230.42 32.13 224.61 31.01 M 189.51 126.07 C 189.07 126.97 188.63 127.86 188.20 128.76 C 189.29 129.14 190.39 129.52 191.49 129.88 C 191.44 130.52 191.33 131.82 191.27 132.46 C 191.86 132.93 193.04 133.87 193.63 134.34 C 192.19 134.39 190.75 134.47 189.32 134.56 C 189.47 138.86 193.95 140.01 197.00 141.85 C 200.18 141.35 203.38 140.91 206.57 140.46 C 206.61 139.49 206.65 138.52 206.68 137.55 C 204.89 137.47 202.87 137.89 201.45 136.50 C 202.10 136.45 203.39 136.34 204.04 136.28 L 203.96 135.46 C 199.17 135.54 196.92 130.08 192.71 128.37 C 192.33 128.45 191.57 128.62 191.18 128.70 C 190.73 127.76 190.00 126.99 189.51 126.07 M 215.01 152.72 C 216.82 153.51 218.62 154.33 220.51 154.93 C 220.47 153.82 220.40 151.60 220.37 150.49 C 222.34 151.94 221.48 154.51 221.47 156.57 C 226.76 158.96 223.62 151.63 223.70 148.97 C 222.79 149.54 222.21 150.46 221.57 151.29 C 221.43 149.28 221.35 147.28 221.26 145.27 C 218.62 147.25 216.79 150.00 215.01 152.72 M 183.77 148.82 C 183.50 149.33 182.97 150.36 182.70 150.87 C 182.66 151.74 182.60 153.47 182.57 154.34 C 187.31 157.07 192.16 159.63 197.07 162.05 C 194.97 157.19 192.80 152.33 190.12 147.77 C 188.00 148.10 185.87 148.36 183.77 148.82 M 249.64 164.14 C 250.11 166.80 248.43 169.43 248.90 171.96 C 251.55 173.98 254.50 175.73 257.79 176.45 C 258.20 173.99 258.71 171.55 258.79 169.06 C 256.02 167.00 253.11 164.80 249.64 164.14 M 208.48 168.03 C 215.00 171.57 221.28 176.01 228.56 177.81 C 227.77 173.82 227.41 169.68 225.89 165.87 C 220.05 165.74 214.24 167.13 208.48 168.03 M 261.13 196.13 C 265.92 199.08 270.96 201.59 275.94 204.18 C 276.77 200.95 277.36 197.67 277.72 194.36 C 272.17 194.69 266.64 195.41 261.13 196.13 M 301.80 217.97 C 305.24 219.93 308.58 222.46 312.63 222.94 C 312.87 220.83 313.09 218.72 313.29 216.61 C 310.49 216.76 307.69 216.89 304.88 216.81 C 304.11 217.10 302.57 217.68 301.80 217.97 M 73.64 274.42 C 73.29 276.05 72.94 277.68 72.51 279.30 C 70.92 280.75 69.28 282.15 67.63 283.53 C 67.64 283.99 67.66 284.91 67.67 285.37 C 73.01 288.83 64.74 290.89 63.72 294.73 C 63.55 298.02 64.33 301.57 62.92 304.66 C 60.34 308.43 60.80 313.74 56.22 316.05 C 57.01 316.61 57.80 317.18 58.59 317.75 C 58.65 318.38 58.77 319.62 58.83 320.24 C 61.34 321.88 61.44 325.36 58.58 326.62 C 63.95 329.78 61.25 337.03 60.54 342.00 C 63.51 342.98 65.40 345.36 64.80 348.54 C 65.74 348.16 66.56 347.51 67.56 347.25 C 67.46 346.89 67.26 346.17 67.16 345.82 C 63.97 343.34 65.36 340.26 69.39 341.39 C 71.34 337.84 71.84 333.81 72.58 329.90 C 74.23 327.50 74.72 324.62 75.51 321.88 C 79.29 319.90 78.90 315.15 80.60 311.76 C 81.09 311.50 82.09 310.99 82.58 310.73 C 82.18 310.34 81.37 309.55 80.97 309.15 C 82.15 307.34 82.54 305.21 83.48 303.30 C 82.13 304.09 80.85 304.97 79.58 305.87 C 79.81 309.76 81.03 315.35 75.42 315.45 C 77.62 312.00 73.26 307.65 77.26 305.27 C 77.25 304.65 77.24 303.40 77.23 302.77 C 77.47 302.41 77.94 301.69 78.17 301.32 C 77.61 299.05 79.93 298.55 81.20 297.61 C 79.87 294.86 79.16 291.91 79.37 288.83 C 79.68 288.41 80.31 287.58 80.62 287.16 C 77.10 282.90 73.38 290.53 70.28 286.33 C 68.93 282.10 73.03 280.73 76.37 281.02 C 76.59 281.41 77.01 282.19 77.23 282.58 C 77.64 281.30 78.44 280.24 79.31 279.26 C 79.39 278.30 79.46 277.35 79.53 276.41 C 78.06 274.56 75.83 274.37 73.64 274.42 M 508.82 331.02 C 508.37 335.87 508.47 340.76 508.69 345.63 C 511.36 342.17 516.00 339.31 516.54 334.74 C 515.07 335.13 513.64 335.55 512.18 335.96 C 511.64 335.67 510.54 335.11 510.00 334.83 C 509.82 333.48 509.43 332.21 508.82 331.02 Z" />
<path fill="#1f1b1f" opacity="1.00" d=" M 286.10 99.06 C 286.91 98.74 287.72 98.42 288.54 98.09 C 289.38 98.88 290.23 99.67 291.08 100.46 C 290.11 101.36 289.14 102.26 288.19 103.16 C 288.60 103.54 289.42 104.30 289.83 104.67 C 288.87 105.52 286.99 106.13 288.32 107.77 C 283.37 111.66 284.03 118.53 282.74 124.12 C 282.24 123.70 281.25 122.86 280.75 122.45 C 280.35 122.77 279.54 123.41 279.13 123.73 C 272.51 118.60 265.65 113.70 259.37 108.15 C 259.56 107.67 259.95 106.70 260.14 106.22 C 267.67 103.57 275.54 101.89 283.23 99.74 C 281.25 103.03 279.00 106.17 276.53 109.12 C 281.58 108.44 283.24 102.59 286.10 99.06 Z" />
<path fill="#1f1b1f" opacity="1.00" d=" M 292.21 101.76 C 292.95 102.31 293.70 102.85 294.46 103.40 C 297.35 112.36 300.65 121.19 303.71 130.10 C 305.62 135.70 308.62 141.08 308.77 147.13 C 301.73 142.04 295.08 136.38 288.21 131.08 C 286.82 121.24 291.50 111.58 292.21 101.76 Z" />
<path fill="#1f1b1f" opacity="1.00" d=" M 326.99 149.47 C 330.30 146.83 331.78 142.36 335.89 140.69 C 336.47 141.06 337.63 141.81 338.21 142.18 C 337.56 142.93 336.93 143.69 336.29 144.46 C 336.39 145.17 336.49 145.89 336.60 146.62 C 336.18 146.94 335.34 147.59 334.92 147.92 C 335.39 148.04 336.32 148.27 336.79 148.39 C 331.72 151.27 332.77 157.85 331.86 162.77 C 330.71 162.23 329.50 161.45 328.33 162.46 C 324.11 159.28 320.14 155.76 315.76 152.80 C 318.07 148.05 324.49 147.29 328.80 144.78 C 328.18 146.34 327.58 147.90 326.99 149.47 Z" />
<path fill="#1f1b1f" opacity="1.00" d=" M 363.76 178.75 C 366.01 176.00 368.86 173.87 371.80 171.93 C 372.09 172.37 372.66 173.26 372.95 173.70 C 372.45 174.05 371.45 174.76 370.94 175.11 C 371.13 175.46 371.50 176.17 371.68 176.53 C 370.83 178.08 370.01 179.65 369.12 181.17 C 368.44 184.44 368.03 187.75 367.84 191.08 C 363.34 190.54 359.35 187.53 356.65 184.07 C 357.59 181.03 361.02 179.75 363.76 178.75 Z" />
<path fill="#1f1b1f" opacity="1.00" d=" M 386.80 208.62 C 389.91 203.56 394.88 199.97 399.14 195.93 C 398.64 198.18 397.98 200.39 397.18 202.55 C 395.31 205.88 395.97 209.86 395.11 213.47 C 393.82 212.50 392.83 211.24 392.06 209.84 C 392.00 210.44 391.89 211.65 391.84 212.26 C 390.15 211.05 388.47 209.83 386.80 208.62 Z" />
<path fill="#1f1b1f" opacity="1.00" d=" M 527.21 321.39 C 527.72 321.90 527.72 321.90 527.21 321.39 Z" />
<path fill="#1f1b1f" opacity="1.00" d=" M 541.56 331.96 C 541.89 332.76 542.21 333.57 542.54 334.39 C 547.36 336.68 550.58 341.11 554.94 344.05 C 555.53 345.07 556.27 345.98 556.96 346.94 C 557.34 346.85 558.10 346.68 558.48 346.59 C 560.13 348.37 561.36 350.50 563.12 352.20 C 563.61 352.36 564.61 352.67 565.10 352.83 C 569.57 357.67 574.49 362.05 579.37 366.46 C 582.52 370.58 585.74 374.64 589.28 378.45 C 589.34 379.37 589.40 380.28 589.48 381.21 C 586.36 380.72 587.45 384.90 585.09 385.84 C 584.96 387.70 583.41 388.27 581.89 388.77 C 581.36 391.30 580.89 393.84 580.56 396.41 C 576.96 396.30 573.37 396.37 569.78 396.48 C 569.33 395.88 568.88 395.29 568.45 394.71 C 571.64 393.96 572.72 390.58 574.27 388.10 C 574.49 386.70 574.71 385.30 574.92 383.90 C 574.46 383.50 573.53 382.70 573.06 382.30 C 572.56 382.88 571.56 384.03 571.05 384.60 C 565.93 380.81 565.51 373.85 563.17 368.38 C 563.72 368.41 564.81 368.47 565.35 368.50 C 567.39 368.60 569.42 368.63 571.47 368.61 C 562.29 361.52 552.34 355.46 542.22 349.83 C 539.66 344.54 541.58 337.78 541.56 331.96 Z" />
<path fill="#1f1b1f" opacity="1.00" d=" M 493.55 402.57 C 493.84 399.88 494.18 397.19 494.55 394.51 C 494.64 397.56 494.64 400.62 494.57 403.69 C 490.69 403.19 486.75 403.18 483.02 404.47 C 483.43 405.28 484.25 406.90 484.65 407.71 C 486.45 407.85 488.26 408.03 490.07 408.20 C 480.97 407.37 471.82 407.97 462.73 407.14 C 465.54 406.92 465.59 403.88 467.37 402.46 C 472.32 399.96 477.72 403.10 482.86 402.11 C 485.42 401.70 488.01 401.48 490.61 401.39 C 490.51 401.75 490.31 402.47 490.21 402.83 C 491.32 402.74 492.43 402.66 493.55 402.57 Z" />
</g>
<g id="#7b6968ff">
<path fill="#7b6968" opacity="1.00" d=" M 217.70 29.30 C 222.49 30.15 225.01 34.60 228.52 37.47 C 237.23 45.22 245.33 53.74 254.53 60.88 C 253.96 61.44 253.37 61.99 252.77 62.53 C 246.14 55.59 238.75 49.41 231.58 43.04 C 230.93 45.52 232.09 47.89 232.77 50.21 C 228.99 49.19 228.33 41.58 224.20 43.17 C 222.74 40.01 220.16 37.69 217.60 35.43 C 214.59 33.87 219.12 31.67 217.70 29.30 Z" />
<path fill="#7b6968" opacity="1.00" d=" M 224.61 31.01 C 230.42 32.13 236.71 31.69 241.98 34.77 L 240.70 34.96 C 241.22 40.24 246.40 42.81 249.69 46.30 C 266.82 62.56 284.38 78.38 301.39 94.71 C 305.48 98.17 308.82 102.50 313.45 105.30 C 314.30 99.02 315.77 92.81 315.91 86.45 C 316.52 86.48 317.72 86.54 318.32 86.56 C 317.75 93.62 316.28 100.55 315.22 107.54 C 362.84 125.85 410.05 145.95 459.91 157.62 C 460.83 158.06 462.67 158.95 463.59 159.40 C 451.01 158.80 439.14 153.88 426.95 151.11 C 417.07 147.94 407.20 144.72 397.28 141.67 C 391.26 139.51 385.46 136.40 378.99 135.91 C 372.12 132.24 364.79 129.14 357.09 127.85 C 346.06 121.64 333.49 118.81 321.91 113.87 C 331.04 122.13 339.76 130.83 348.75 139.25 C 350.32 140.98 352.66 141.41 354.76 142.21 C 357.42 144.24 359.49 146.93 361.81 149.34 C 363.59 154.41 368.36 157.35 372.08 160.90 C 376.11 164.16 379.10 168.72 383.92 170.95 C 389.39 173.39 391.42 179.46 395.72 183.22 C 399.73 186.78 403.35 190.76 407.50 194.17 C 408.41 189.26 407.12 183.61 410.08 179.30 C 410.21 184.79 409.29 190.23 409.14 195.72 C 439.27 224.46 469.69 252.92 499.90 281.57 C 499.89 249.37 500.64 217.16 502.59 185.02 C 502.72 177.92 502.78 170.81 502.47 163.72 C 500.41 163.53 498.36 163.22 496.33 162.85 C 499.66 162.28 503.12 161.95 506.03 160.07 C 506.44 161.31 506.87 162.55 507.29 163.79 C 510.41 164.41 513.59 164.35 516.73 163.89 C 517.33 162.70 517.96 161.51 518.58 160.33 C 521.86 164.46 527.16 162.40 531.36 161.26 C 530.38 164.67 529.40 168.08 528.19 171.42 C 522.77 171.62 517.41 172.60 512.00 172.92 C 510.79 173.52 509.63 174.20 508.51 174.93 C 508.22 177.33 504.67 180.53 507.94 182.09 C 508.10 185.47 508.18 188.86 508.18 192.25 C 509.90 192.63 511.89 193.25 512.25 190.81 C 513.72 193.58 516.99 192.51 519.50 192.40 C 523.25 191.87 527.31 191.80 530.60 189.70 C 531.59 184.87 531.13 179.83 530.65 174.96 C 530.80 173.41 529.43 172.62 528.50 171.67 C 530.93 168.24 529.95 160.10 535.18 160.55 C 537.79 171.76 535.75 183.54 537.13 194.99 C 537.08 204.67 537.25 214.38 538.64 223.97 C 539.62 247.16 539.03 270.43 540.20 293.61 C 540.90 300.22 539.83 306.88 540.34 313.51 C 541.66 313.87 542.97 314.28 544.30 314.66 C 544.60 315.29 545.21 316.56 545.51 317.19 C 544.37 318.31 543.26 319.45 542.32 320.74 C 544.18 324.03 546.51 327.05 549.67 329.19 C 559.90 339.44 569.54 350.38 580.05 360.39 C 579.97 351.70 580.60 343.00 580.16 334.32 C 582.70 334.29 585.24 334.23 587.79 334.12 C 588.08 346.24 590.34 358.28 590.38 370.46 C 598.64 371.48 604.80 378.01 613.01 379.22 C 620.63 381.61 628.53 382.62 636.43 383.52 C 643.68 383.50 651.28 382.30 658.11 385.46 C 666.30 378.19 677.53 382.34 686.99 383.95 C 692.65 383.84 698.63 383.89 703.28 387.65 C 708.99 388.63 714.80 387.28 720.11 385.17 C 720.27 387.01 720.46 388.86 720.66 390.71 C 719.83 391.58 719.02 392.46 718.21 393.33 C 718.29 395.00 718.41 396.67 718.56 398.35 C 712.69 399.78 707.20 397.16 701.77 395.35 C 701.18 396.63 700.62 397.93 700.04 399.23 C 699.26 398.29 698.49 397.36 697.72 396.44 C 694.07 396.97 687.79 393.78 686.47 398.66 C 685.88 397.89 685.31 397.13 684.74 396.38 C 683.60 396.32 682.46 396.27 681.34 396.22 C 681.44 397.04 681.53 397.88 681.61 398.72 C 679.88 398.65 678.19 398.58 676.48 398.53 C 675.92 397.50 675.37 396.47 674.83 395.45 C 668.82 397.16 662.69 395.35 656.61 395.29 C 656.21 395.72 655.40 396.57 655.00 397.00 C 654.63 396.65 653.90 395.95 653.54 395.60 C 651.72 395.52 649.91 395.46 648.12 395.39 C 647.40 395.99 646.70 396.60 646.02 397.22 C 645.05 397.07 644.10 396.92 643.15 396.78 C 643.84 395.71 644.52 394.64 645.19 393.56 C 643.81 394.61 642.46 395.71 641.15 396.85 C 639.01 395.75 636.91 394.59 634.83 393.39 C 634.38 393.64 633.49 394.13 633.04 394.37 C 632.12 393.88 631.19 393.41 630.27 392.95 C 629.22 396.90 624.29 398.05 623.17 393.47 C 622.85 393.49 622.21 393.53 621.89 393.56 C 620.76 395.75 618.84 397.55 616.54 395.59 C 615.07 395.65 613.62 395.73 612.17 395.83 C 611.41 395.27 610.66 394.71 609.92 394.16 C 609.24 394.17 607.90 394.19 607.23 394.20 C 607.13 394.98 606.93 396.53 606.84 397.31 C 596.11 395.88 585.42 400.31 577.87 407.83 C 578.48 408.42 579.08 409.01 579.70 409.61 C 571.07 408.94 562.61 411.24 554.04 410.05 C 550.72 410.16 547.41 409.63 544.21 408.82 C 544.60 409.83 545.06 411.04 546.64 410.57 C 545.66 412.07 543.37 413.96 545.37 415.62 C 548.02 418.02 545.67 420.99 544.14 423.28 C 546.33 423.60 548.53 423.88 550.74 424.16 C 551.15 423.02 551.58 421.89 552.00 420.76 C 553.69 421.53 555.44 422.15 557.23 422.66 C 556.26 423.25 555.30 423.85 554.34 424.46 C 557.03 425.06 560.29 425.29 561.27 428.33 C 559.83 429.07 558.41 429.82 557.00 430.59 C 555.99 432.82 554.58 434.81 551.94 435.08 C 551.53 434.46 550.70 433.21 550.29 432.58 C 548.80 432.58 547.31 432.59 545.84 432.59 C 546.96 433.54 548.03 434.52 549.15 435.49 C 548.18 436.35 547.21 437.21 546.25 438.08 C 548.05 439.08 549.84 440.09 551.63 441.14 C 551.60 441.59 551.56 442.50 551.54 442.95 C 552.92 442.32 554.29 441.68 555.69 441.07 C 557.44 444.12 556.79 447.39 553.33 448.67 C 551.59 447.38 549.60 444.29 547.17 446.12 C 548.52 447.49 550.02 448.69 551.49 449.94 C 551.60 451.40 551.71 452.86 551.84 454.33 C 548.33 455.71 544.54 455.76 540.83 455.68 C 542.59 455.97 544.34 456.32 546.09 456.69 C 548.32 457.94 550.77 458.96 552.55 460.86 C 552.39 462.68 551.89 464.45 551.33 466.19 C 553.48 466.34 555.64 466.46 557.80 466.57 C 557.26 468.28 556.66 469.98 556.03 471.66 C 551.93 471.26 547.69 470.35 544.78 467.18 C 543.38 469.06 542.34 471.13 543.36 473.47 C 545.78 473.93 548.19 474.39 550.62 474.84 C 550.76 475.83 550.89 476.84 551.04 477.84 C 544.87 478.04 539.22 480.91 533.04 480.94 C 520.82 480.48 509.23 485.67 497.07 484.67 C 489.28 489.52 479.68 488.49 470.99 487.61 C 459.54 488.84 447.97 489.51 436.70 492.13 C 436.07 490.98 435.78 489.69 435.19 488.54 C 438.05 488.65 440.91 488.70 443.78 488.80 C 443.15 488.20 442.52 487.60 441.89 487.00 C 447.33 485.28 453.29 486.16 458.51 483.62 C 463.22 481.14 468.43 482.97 473.23 484.08 C 472.78 483.76 471.88 483.11 471.43 482.79 C 471.86 481.76 472.25 480.73 472.64 479.70 C 480.27 476.91 488.62 477.80 496.14 474.35 C 490.55 474.61 484.88 474.05 479.65 471.97 C 484.59 470.05 492.07 470.94 494.37 465.02 C 497.11 464.85 499.85 464.70 502.58 464.40 C 498.24 463.39 493.89 464.70 489.55 465.01 C 493.00 461.55 498.16 462.72 502.56 462.50 C 502.88 462.30 503.51 461.89 503.83 461.68 C 499.60 458.69 495.38 460.14 490.93 461.29 C 492.00 459.86 493.08 458.43 494.18 457.03 C 494.78 456.95 495.98 456.78 496.58 456.70 C 496.49 456.29 496.33 455.47 496.24 455.06 C 498.52 454.17 500.81 453.28 503.10 452.43 C 500.06 452.48 496.52 453.19 494.11 450.84 C 494.76 449.27 496.35 448.48 497.61 447.48 C 495.77 447.04 494.10 446.20 492.65 445.00 C 490.94 444.77 489.23 444.58 487.52 444.47 C 491.87 443.26 499.76 446.23 501.11 440.36 C 499.41 440.70 497.70 440.97 495.99 441.25 C 494.45 439.77 494.80 437.16 494.21 435.18 C 495.26 434.46 496.31 433.74 497.37 433.02 C 496.82 432.64 495.73 431.89 495.18 431.51 C 497.78 430.44 500.37 429.16 501.86 426.64 C 500.84 425.44 499.83 424.25 498.84 423.05 C 499.85 422.82 500.87 422.59 501.90 422.36 C 498.86 421.26 496.89 418.84 495.84 415.85 C 497.03 415.43 498.25 414.99 499.47 414.60 C 497.56 413.22 497.07 411.11 497.23 408.87 C 494.84 408.61 492.45 408.40 490.07 408.20 C 488.26 408.03 486.45 407.85 484.65 407.71 C 484.25 406.90 483.43 405.28 483.02 404.47 C 486.75 403.18 490.69 403.19 494.57 403.69 C 494.64 400.62 494.64 397.56 494.55 394.51 L 494.56 394.40 C 479.26 395.03 464.06 393.20 448.77 393.30 C 448.77 392.49 448.75 390.87 448.75 390.06 C 448.40 390.86 447.71 392.47 447.37 393.28 C 434.52 392.14 421.60 392.58 408.76 391.15 C 408.32 391.13 407.42 391.07 406.98 391.04 C 373.97 389.96 340.83 391.10 307.84 389.24 C 307.49 387.56 307.15 385.86 306.89 384.17 C 305.21 386.13 304.18 389.79 301.03 389.44 C 291.16 389.35 281.25 389.82 271.43 388.65 C 258.29 388.32 245.13 388.58 231.98 388.24 C 220.36 386.73 208.62 387.69 196.94 387.40 C 185.69 386.01 174.35 386.75 163.11 385.20 C 156.08 385.56 149.04 385.04 142.01 385.47 C 134.79 386.08 127.70 383.72 120.47 384.83 C 120.15 382.20 121.19 379.72 122.51 377.52 C 122.00 372.62 122.88 367.80 124.07 363.07 L 124.49 363.75 C 126.43 365.71 129.77 363.90 132.18 363.75 C 139.99 361.27 148.19 361.26 156.24 360.29 C 172.25 355.90 188.20 351.28 203.99 346.13 C 211.20 344.33 218.64 343.61 225.97 342.47 C 230.66 341.48 234.96 345.83 239.51 343.72 C 246.84 341.20 254.15 338.06 262.04 338.04 C 271.42 336.62 280.75 339.15 290.15 338.57 C 297.36 338.04 302.57 343.80 308.84 346.30 C 316.22 351.26 325.56 345.73 333.21 349.86 C 337.16 351.90 341.54 353.47 345.95 351.78 C 357.57 350.86 369.78 349.80 380.83 354.39 C 387.88 357.84 395.06 361.45 402.90 362.62 C 409.63 363.68 415.46 359.26 421.94 358.40 C 436.62 356.47 449.96 348.46 464.96 348.49 C 470.18 347.93 474.93 350.47 479.50 352.61 C 479.83 353.06 480.48 353.96 480.81 354.41 C 487.00 354.64 493.39 352.30 499.23 355.45 C 499.13 364.31 499.11 373.18 499.14 382.04 C 498.73 382.41 497.93 383.14 497.52 383.51 C 497.26 386.28 497.12 389.06 497.06 391.84 L 497.80 391.84 C 496.11 383.46 503.21 377.80 508.30 372.40 C 508.30 370.49 508.32 368.58 508.35 366.68 C 507.78 366.69 506.64 366.71 506.07 366.72 C 506.56 365.32 507.32 364.10 508.34 363.06 C 508.04 360.06 506.28 355.77 509.94 354.21 C 510.30 354.85 511.02 356.14 511.38 356.78 C 511.93 356.07 512.50 355.37 513.07 354.67 C 515.39 356.74 516.91 360.40 520.02 361.18 C 523.86 359.36 526.06 355.19 528.67 351.96 C 526.03 351.91 523.40 351.89 520.77 351.77 C 521.22 350.85 521.67 349.93 522.12 349.02 C 521.49 349.57 520.23 350.67 519.60 351.22 L 519.47 349.36 C 516.79 349.37 514.11 349.36 511.44 349.35 C 511.29 344.57 516.81 342.84 518.15 338.62 C 519.40 338.64 520.66 338.61 521.93 338.56 C 523.13 340.34 524.32 342.12 525.63 343.84 C 525.92 343.20 526.52 341.90 526.81 341.26 C 528.30 341.76 529.78 342.33 531.18 343.10 C 531.42 354.39 532.39 365.67 531.39 377.02 C 531.46 379.11 530.52 382.00 532.66 383.38 C 533.33 370.25 532.65 357.09 532.71 343.96 C 533.02 341.37 534.03 338.68 532.66 336.21 C 532.82 332.89 532.89 329.52 533.79 326.30 C 532.81 325.46 531.82 324.62 530.85 323.80 C 528.25 323.32 524.07 322.88 524.19 319.37 C 522.91 319.51 521.65 319.66 520.39 319.81 C 520.36 318.40 520.33 316.99 520.30 315.58 C 519.74 316.23 519.21 316.89 518.69 317.56 C 518.05 316.74 517.31 316.02 516.48 315.41 C 519.67 313.38 515.07 310.68 513.71 313.81 C 513.23 313.60 512.27 313.16 511.78 312.94 C 512.38 312.39 513.56 311.29 514.16 310.74 C 512.14 309.09 509.49 309.03 507.04 308.76 C 507.48 308.27 508.38 307.30 508.83 306.81 C 507.81 305.77 506.72 304.84 505.73 303.79 C 505.25 304.31 504.30 305.36 503.83 305.89 C 503.26 305.81 502.12 305.65 501.55 305.57 C 501.42 304.36 501.29 303.14 501.15 301.94 C 502.33 302.46 503.51 302.97 504.70 303.48 C 503.01 301.67 501.09 300.09 498.95 298.86 C 499.23 299.88 499.52 300.91 499.81 301.95 C 498.35 301.36 496.93 300.69 495.48 300.12 C 495.61 299.31 495.75 298.50 495.90 297.70 C 493.28 297.29 490.64 296.93 488.05 296.36 C 488.62 294.42 489.54 292.69 491.94 292.75 C 490.80 292.41 489.80 291.85 488.94 291.06 C 487.90 289.71 486.62 288.62 485.01 288.03 C 482.79 285.48 479.92 283.67 477.33 281.53 C 476.84 282.01 475.85 282.96 475.36 283.43 C 475.46 283.95 475.65 284.99 475.75 285.51 C 474.92 284.75 474.18 283.92 473.53 283.02 C 473.09 283.74 472.66 284.46 472.23 285.18 C 472.17 283.79 472.13 282.42 472.11 281.04 C 473.59 281.10 475.08 281.15 476.57 281.21 C 463.18 269.94 449.05 259.60 435.33 248.76 C 359.51 189.47 283.48 130.45 207.02 72.00 C 205.80 71.19 204.86 70.08 204.25 68.75 C 205.70 69.15 207.15 69.56 208.58 70.01 C 208.49 69.19 208.40 68.37 208.30 67.55 C 212.84 68.56 212.58 63.35 213.08 60.35 C 215.13 61.95 216.73 64.68 219.61 64.72 C 218.25 68.29 217.99 72.10 218.12 75.88 C 227.24 83.09 236.24 90.51 245.63 97.35 C 240.64 85.50 235.48 73.70 231.01 61.65 C 235.19 61.94 232.84 67.96 237.42 68.76 C 236.83 67.38 236.27 66.00 235.68 64.63 C 235.10 63.07 234.45 61.53 233.78 60.00 C 233.76 57.71 233.82 55.42 233.97 53.13 C 236.19 56.37 236.34 60.82 239.53 63.39 C 239.36 69.61 243.58 74.99 245.26 80.86 C 245.78 80.82 246.80 80.74 247.32 80.70 C 248.90 76.46 252.17 73.20 254.90 69.69 C 255.52 69.72 256.76 69.79 257.38 69.83 C 253.76 74.19 251.38 80.16 246.12 82.75 C 247.78 86.99 249.14 91.38 251.39 95.37 C 252.38 90.92 253.42 86.47 254.25 81.98 C 255.58 81.97 256.92 81.96 258.26 81.95 L 258.38 80.78 C 256.49 80.97 254.60 81.20 252.73 81.51 C 253.76 79.92 254.70 78.29 255.58 76.61 C 257.35 74.99 259.02 73.26 260.58 71.44 C 260.60 70.91 260.66 69.84 260.69 69.31 C 258.90 67.27 256.97 65.29 254.48 64.11 C 255.03 63.55 255.61 63.01 256.21 62.49 C 258.91 65.76 262.33 68.32 265.36 71.28 C 263.60 71.33 262.30 72.25 262.17 74.00 C 260.27 82.59 258.41 91.20 256.60 99.81 C 256.16 101.10 257.60 101.89 258.16 102.88 C 267.99 100.19 277.85 97.56 287.82 95.45 C 287.82 93.73 286.80 92.30 286.19 90.76 C 291.05 93.58 294.80 97.85 298.74 101.76 C 294.75 101.42 296.69 104.96 297.33 107.02 C 299.95 113.86 302.16 120.85 304.90 127.64 C 306.11 127.52 307.25 127.15 308.32 126.54 C 303.93 131.01 308.42 136.40 309.54 141.29 C 311.36 137.57 309.35 131.38 314.27 130.02 C 312.80 130.09 311.33 130.13 309.86 130.15 C 311.58 125.61 317.41 122.95 316.51 117.59 C 317.68 118.79 318.89 119.95 320.15 121.06 C 319.64 121.31 318.61 121.80 318.09 122.05 C 316.48 130.60 314.83 139.22 314.09 147.90 C 321.30 144.55 328.29 140.68 335.83 138.07 C 335.70 137.22 335.46 135.51 335.33 134.66 C 338.84 137.81 342.45 140.88 345.48 144.52 C 344.23 143.93 342.99 143.33 341.75 142.72 C 342.21 145.65 342.97 148.51 343.79 151.36 C 340.80 149.55 341.57 145.44 339.29 143.05 C 337.86 151.52 335.93 160.03 336.13 168.66 C 339.74 171.39 343.18 174.34 346.79 177.09 C 346.91 175.55 343.12 171.57 346.18 171.53 C 347.74 173.38 348.03 175.97 348.71 178.25 C 349.45 178.84 350.19 179.44 350.94 180.04 C 350.18 170.02 344.11 161.17 343.34 151.18 C 345.42 154.21 346.15 157.86 347.20 161.33 C 348.69 159.80 350.00 157.72 352.41 157.72 C 351.16 159.88 349.43 161.78 348.36 164.02 C 348.86 167.41 350.21 170.59 351.60 173.70 C 351.93 170.90 352.24 168.09 352.74 165.31 C 352.31 165.17 351.44 164.90 351.01 164.76 C 352.78 161.09 357.23 158.43 356.59 153.94 C 357.64 154.97 358.70 155.99 359.77 157.01 C 359.27 157.27 358.28 157.78 357.79 158.04 C 356.71 165.41 355.80 172.82 354.93 180.23 C 359.92 176.25 364.95 172.20 370.87 169.67 C 370.78 168.91 370.59 167.41 370.50 166.66 C 372.70 168.50 374.96 170.28 376.98 172.33 C 376.57 173.20 376.17 174.08 375.76 174.96 C 376.55 177.39 377.23 179.85 377.80 182.34 C 375.00 180.40 375.82 176.28 373.63 173.80 C 372.92 181.05 371.55 188.30 371.55 195.59 C 372.68 198.14 375.72 199.40 377.72 201.26 C 377.51 200.08 377.07 197.72 376.85 196.54 C 379.49 197.85 380.24 200.65 380.79 203.31 C 381.31 203.43 382.35 203.68 382.87 203.80 C 381.05 199.61 381.41 194.11 378.05 190.84 C 378.10 189.39 378.33 187.97 378.75 186.59 C 381.09 190.00 381.17 194.37 382.54 198.19 C 383.28 195.77 382.12 191.47 385.83 191.54 L 385.81 191.24 C 384.49 191.21 383.17 191.19 381.85 191.16 C 383.65 188.57 385.44 185.97 387.23 183.38 C 385.98 182.10 384.78 180.79 383.69 179.39 C 385.52 180.46 387.22 181.74 388.87 183.09 C 386.52 189.63 387.04 196.73 385.98 203.53 C 389.09 200.77 392.16 197.96 395.03 194.95 C 400.22 195.49 396.49 191.07 394.70 189.36 C 398.42 191.36 401.36 194.44 404.18 197.52 L 401.95 197.21 C 402.11 198.83 402.27 200.46 402.45 202.09 C 401.73 200.58 400.88 199.16 400.17 197.66 C 400.18 202.95 398.64 208.15 399.12 213.45 C 399.59 213.59 400.51 213.86 400.98 214.00 L 401.04 215.11 C 400.40 215.01 399.13 214.81 398.49 214.70 C 398.37 217.54 400.17 219.41 402.44 220.79 C 402.30 219.73 402.02 217.62 401.87 216.56 C 403.99 218.41 405.19 221.00 406.68 223.34 C 406.83 220.81 406.32 218.34 405.56 215.95 C 407.32 214.73 408.57 212.72 406.48 211.07 C 407.90 208.67 409.64 206.49 411.59 204.50 C 411.10 210.39 410.76 216.29 410.15 222.18 C 412.40 219.75 414.26 217.00 416.16 214.30 C 417.44 213.85 418.76 213.51 420.10 213.29 C 417.86 211.03 415.53 208.86 413.25 206.66 C 414.28 206.95 416.33 207.53 417.36 207.83 C 400.83 191.31 382.87 176.20 366.01 159.99 C 353.48 149.20 342.04 137.30 329.48 126.53 C 326.58 124.24 325.01 120.34 321.35 119.09 C 316.11 115.15 312.86 109.15 307.14 105.86 C 302.59 102.12 298.82 97.55 294.90 93.18 C 294.48 93.29 293.63 93.49 293.21 93.59 C 289.25 89.02 285.45 84.31 280.76 80.42 C 280.42 80.41 279.73 80.39 279.39 80.38 C 261.26 63.77 242.89 47.46 224.61 31.01 M 286.10 99.06 C 283.24 102.59 281.58 108.44 276.53 109.12 C 279.00 106.17 281.25 103.03 283.23 99.74 C 275.54 101.89 267.67 103.57 260.14 106.22 C 259.95 106.70 259.56 107.67 259.37 108.15 C 265.65 113.70 272.51 118.60 279.13 123.73 C 279.54 123.41 280.35 122.77 280.75 122.45 C 281.25 122.86 282.24 123.70 282.74 124.12 C 284.03 118.53 283.37 111.66 288.32 107.77 C 286.99 106.13 288.87 105.52 289.83 104.67 C 289.42 104.30 288.60 103.54 288.19 103.16 C 289.14 102.26 290.11 101.36 291.08 100.46 C 290.23 99.67 289.38 98.88 288.54 98.09 C 287.72 98.42 286.91 98.74 286.10 99.06 M 292.21 101.76 C 291.50 111.58 286.82 121.24 288.21 131.08 C 295.08 136.38 301.73 142.04 308.77 147.13 C 308.62 141.08 305.62 135.70 303.71 130.10 C 300.65 121.19 297.35 112.36 294.46 103.40 C 293.70 102.85 292.95 102.31 292.21 101.76 M 326.99 149.47 C 327.58 147.90 328.18 146.34 328.80 144.78 C 324.49 147.29 318.07 148.05 315.76 152.80 C 320.14 155.76 324.11 159.28 328.33 162.46 C 329.50 161.45 330.71 162.23 331.86 162.77 C 332.77 157.85 331.72 151.27 336.79 148.39 C 336.32 148.27 335.39 148.04 334.92 147.92 C 335.34 147.59 336.18 146.94 336.60 146.62 C 336.49 145.89 336.39 145.17 336.29 144.46 C 336.93 143.69 337.56 142.93 338.21 142.18 C 337.63 141.81 336.47 141.06 335.89 140.69 C 331.78 142.36 330.30 146.83 326.99 149.47 M 363.76 178.75 C 361.02 179.75 357.59 181.03 356.65 184.07 C 359.35 187.53 363.34 190.54 367.84 191.08 C 368.03 187.75 368.44 184.44 369.12 181.17 C 370.01 179.65 370.83 178.08 371.68 176.53 C 371.50 176.17 371.13 175.46 370.94 175.11 C 371.45 174.76 372.45 174.05 372.95 173.70 C 372.66 173.26 372.09 172.37 371.80 171.93 C 368.86 173.87 366.01 176.00 363.76 178.75 M 386.80 208.62 C 388.47 209.83 390.15 211.05 391.84 212.26 C 391.89 211.65 392.00 210.44 392.06 209.84 C 392.83 211.24 393.82 212.50 395.11 213.47 C 395.97 209.86 395.31 205.88 397.18 202.55 C 397.98 200.39 398.64 198.18 399.14 195.93 C 394.88 199.97 389.91 203.56 386.80 208.62 M 515.40 205.29 C 515.05 205.03 514.34 204.50 513.99 204.23 C 512.07 205.00 509.33 205.43 509.37 208.04 C 509.03 213.40 507.46 219.21 509.78 224.33 C 513.28 224.91 517.28 225.18 520.42 223.19 C 523.60 224.73 527.85 223.66 530.32 221.27 C 530.42 215.56 531.84 208.98 528.98 203.89 C 524.61 203.11 519.43 203.24 515.40 205.29 M 511.02 239.07 C 508.14 247.39 509.65 256.32 509.45 264.93 C 516.15 266.14 523.19 265.39 529.76 263.77 C 528.92 255.21 531.42 246.47 528.85 238.02 C 522.92 237.09 516.82 237.67 511.02 239.07 M 512.52 281.50 C 511.40 283.92 510.46 286.44 510.22 289.12 C 512.65 290.80 514.00 293.41 514.85 296.17 C 515.38 296.42 516.44 296.93 516.98 297.18 C 520.64 302.49 526.02 306.23 530.53 310.77 C 530.52 305.18 531.40 299.52 530.02 294.02 C 529.01 289.76 530.53 284.15 526.97 280.93 C 522.29 279.60 517.28 281.21 512.52 281.50 M 527.21 321.39 C 527.72 321.90 527.72 321.90 527.21 321.39 M 541.56 331.96 C 541.58 337.78 539.66 344.54 542.22 349.83 L 540.96 349.12 C 540.87 353.13 541.00 357.14 541.03 361.16 C 544.63 361.25 548.35 360.91 551.85 361.95 C 554.80 363.84 557.57 366.05 560.87 367.36 C 561.40 367.01 562.47 366.32 563.01 365.97 C 563.69 366.89 564.48 367.74 565.35 368.50 C 564.81 368.47 563.72 368.41 563.17 368.38 C 565.51 373.85 565.93 380.81 571.05 384.60 C 571.56 384.03 572.56 382.88 573.06 382.30 C 573.53 382.70 574.46 383.50 574.92 383.90 C 574.71 385.30 574.49 386.70 574.27 388.10 C 572.72 390.58 571.64 393.96 568.45 394.71 C 568.88 395.29 569.33 395.88 569.78 396.48 C 573.37 396.37 576.96 396.30 580.56 396.41 C 580.89 393.84 581.36 391.30 581.89 388.77 C 583.41 388.27 584.96 387.70 585.09 385.84 C 587.45 384.90 586.36 380.72 589.48 381.21 C 589.40 380.28 589.34 379.37 589.28 378.45 C 585.74 374.64 582.52 370.58 579.37 366.46 C 574.49 362.05 569.57 357.67 565.10 352.83 C 564.61 352.67 563.61 352.36 563.12 352.20 C 561.36 350.50 560.13 348.37 558.48 346.59 C 558.10 346.68 557.34 346.85 556.96 346.94 C 556.27 345.98 555.53 345.07 554.94 344.05 C 550.58 341.11 547.36 336.68 542.54 334.39 C 542.21 333.57 541.89 332.76 541.56 331.96 Z" />
<path fill="#7b6968" opacity="1.00" d=" M 73.64 274.42 C 75.83 274.37 78.06 274.56 79.53 276.41 C 79.46 277.35 79.39 278.30 79.31 279.26 C 78.44 280.24 77.64 281.30 77.23 282.58 C 77.01 282.19 76.59 281.41 76.37 281.02 C 73.03 280.73 68.93 282.10 70.28 286.33 C 73.38 290.53 77.10 282.90 80.62 287.16 C 80.31 287.58 79.68 288.41 79.37 288.83 C 79.16 291.91 79.87 294.86 81.20 297.61 C 79.93 298.55 77.61 299.05 78.17 301.32 C 77.94 301.69 77.47 302.41 77.23 302.77 C 77.24 303.40 77.25 304.65 77.26 305.27 C 73.26 307.65 77.62 312.00 75.42 315.45 C 81.03 315.35 79.81 309.76 79.58 305.87 C 80.85 304.97 82.13 304.09 83.48 303.30 C 82.54 305.21 82.15 307.34 80.97 309.15 C 81.37 309.55 82.18 310.34 82.58 310.73 C 82.09 310.99 81.09 311.50 80.60 311.76 C 78.90 315.15 79.29 319.90 75.51 321.88 C 74.72 324.62 74.23 327.50 72.58 329.90 C 71.84 333.81 71.34 337.84 69.39 341.39 C 65.36 340.26 63.97 343.34 67.16 345.82 C 67.26 346.17 67.46 346.89 67.56 347.25 C 66.56 347.51 65.74 348.16 64.80 348.54 C 65.40 345.36 63.51 342.98 60.54 342.00 C 61.25 337.03 63.95 329.78 58.58 326.62 C 61.44 325.36 61.34 321.88 58.83 320.24 C 58.77 319.62 58.65 318.38 58.59 317.75 C 57.80 317.18 57.01 316.61 56.22 316.05 C 60.80 313.74 60.34 308.43 62.92 304.66 C 64.33 301.57 63.55 298.02 63.72 294.73 C 64.74 290.89 73.01 288.83 67.67 285.37 C 67.66 284.91 67.64 283.99 67.63 283.53 C 69.28 282.15 70.92 280.75 72.51 279.30 C 72.94 277.68 73.29 276.05 73.64 274.42 Z" />
<path fill="#7b6968" opacity="1.00" d=" M 280.14 448.26 C 282.74 448.47 285.35 448.72 287.94 449.12 C 286.86 449.70 285.78 450.29 284.70 450.88 C 294.62 450.21 304.71 450.04 314.44 452.39 C 320.84 453.36 326.95 455.92 333.50 455.91 C 322.51 458.54 311.76 452.68 300.77 454.82 C 301.03 455.22 301.57 456.00 301.84 456.40 C 307.90 456.14 313.62 458.17 319.49 459.36 C 310.89 459.57 302.51 457.14 293.95 456.84 C 290.48 457.31 287.50 459.55 283.99 459.98 C 279.16 461.20 274.26 458.34 269.50 460.22 C 270.66 460.75 271.83 461.28 272.99 461.81 C 267.71 463.06 262.29 462.57 256.97 461.82 C 254.57 461.18 252.86 463.09 251.28 464.54 C 245.56 464.91 240.04 460.83 234.44 463.36 C 237.99 464.35 241.57 465.30 245.10 466.37 C 241.38 466.55 237.22 466.36 234.42 469.28 C 228.78 471.35 222.84 469.98 217.12 469.18 C 216.92 469.73 216.53 470.84 216.34 471.40 C 214.03 471.82 211.59 472.82 209.36 471.62 C 205.27 469.68 200.68 470.60 196.43 471.40 C 199.37 473.14 202.80 472.59 206.04 472.45 C 200.21 477.12 193.39 471.49 186.91 472.01 C 178.62 472.50 169.92 472.04 162.13 475.35 C 161.59 475.18 160.52 474.83 159.98 474.65 C 154.56 476.85 148.71 477.03 143.02 477.97 C 142.69 478.61 142.03 479.88 141.69 480.52 L 141.53 480.81 C 137.67 482.24 133.88 483.99 129.75 484.52 C 130.49 483.11 131.29 481.76 132.15 480.43 C 131.41 480.40 129.93 480.33 129.18 480.29 C 130.05 478.63 130.91 476.98 131.80 475.34 C 130.06 475.14 128.33 474.92 126.60 474.70 C 121.73 469.40 114.30 475.30 109.12 477.51 C 107.19 476.28 104.93 476.25 102.73 476.34 C 101.85 475.41 100.97 474.48 100.12 473.55 C 99.68 473.82 98.79 474.38 98.35 474.65 C 96.12 472.51 93.91 470.32 91.33 468.59 C 92.59 467.53 93.69 466.26 95.18 465.51 C 101.25 462.09 107.95 461.73 114.69 462.36 C 113.92 463.08 113.17 463.82 112.43 464.58 C 121.91 463.37 131.18 460.60 140.70 460.01 C 140.64 459.13 140.58 458.25 140.52 457.37 C 144.54 458.21 148.64 458.51 152.74 458.42 C 152.75 458.69 152.76 459.23 152.76 459.51 C 149.34 459.27 145.90 459.53 142.57 460.37 C 147.28 462.36 152.40 461.60 157.26 460.73 C 170.09 460.71 182.59 457.52 195.23 455.74 C 201.32 456.83 207.19 459.75 213.52 459.42 C 212.44 458.65 211.35 457.89 210.26 457.15 C 210.51 456.98 211.02 456.64 211.27 456.47 C 218.86 456.06 226.38 455.43 233.98 455.94 C 233.40 454.94 232.81 453.94 232.22 452.95 C 238.04 451.84 243.98 453.27 249.77 451.99 C 253.57 451.22 257.50 453.32 261.15 451.45 C 264.03 449.88 267.05 451.30 269.89 452.14 C 274.21 451.06 279.24 453.56 282.90 450.35 C 281.98 449.64 281.06 448.95 280.14 448.26 Z" />
</g>
<g id="#5e89c0ff">
<path fill="#5e89c0" opacity="1.00" d=" M 240.70 34.96 L 241.98 34.77 C 252.22 34.54 261.77 39.61 272.05 39.83 C 272.65 40.48 273.26 41.14 273.87 41.79 C 279.48 40.85 284.58 44.70 290.35 43.79 C 290.38 44.48 290.45 45.86 290.48 46.55 C 291.45 46.55 292.41 46.28 293.39 46.29 C 293.12 51.76 299.56 50.53 302.28 53.70 C 305.51 54.87 309.52 54.78 312.87 53.74 C 316.19 57.14 321.00 54.52 325.02 55.79 C 326.80 56.55 328.21 57.95 329.97 58.74 C 336.77 57.32 342.84 62.21 346.92 67.11 C 356.67 70.34 364.40 77.79 373.34 82.73 C 377.40 84.53 379.75 88.78 384.15 89.90 C 389.97 92.95 395.30 96.86 401.00 100.13 C 408.89 106.44 418.82 109.72 426.51 116.35 C 432.38 118.77 437.95 122.04 443.05 125.83 C 447.84 127.64 452.32 130.25 456.49 133.21 C 460.50 134.71 464.30 136.70 467.83 139.12 C 471.25 140.33 474.57 141.85 477.48 144.05 C 493.15 150.45 508.80 158.39 526.02 159.58 C 527.83 159.81 530.20 159.50 531.36 161.26 C 527.16 162.40 521.86 164.46 518.58 160.33 C 517.96 161.51 517.33 162.70 516.73 163.89 C 513.59 164.35 510.41 164.41 507.29 163.79 C 506.87 162.55 506.44 161.31 506.03 160.07 C 503.12 161.95 499.66 162.28 496.33 162.85 C 498.36 163.22 500.41 163.53 502.47 163.72 C 502.78 170.81 502.72 177.92 502.59 185.02 C 500.64 217.16 499.89 249.37 499.90 281.57 C 469.69 252.92 439.27 224.46 409.14 195.72 C 409.29 190.23 410.21 184.79 410.08 179.30 C 407.12 183.61 408.41 189.26 407.50 194.17 C 403.35 190.76 399.73 186.78 395.72 183.22 C 391.42 179.46 389.39 173.39 383.92 170.95 C 379.10 168.72 376.11 164.16 372.08 160.90 C 368.36 157.35 363.59 154.41 361.81 149.34 C 359.49 146.93 357.42 144.24 354.76 142.21 C 352.66 141.41 350.32 140.98 348.75 139.25 C 339.76 130.83 331.04 122.13 321.91 113.87 C 333.49 118.81 346.06 121.64 357.09 127.85 C 364.79 129.14 372.12 132.24 378.99 135.91 C 385.46 136.40 391.26 139.51 397.28 141.67 C 407.20 144.72 417.07 147.94 426.95 151.11 C 439.14 153.88 451.01 158.80 463.59 159.40 C 462.67 158.95 460.83 158.06 459.91 157.62 C 410.05 145.95 362.84 125.85 315.22 107.54 C 316.28 100.55 317.75 93.62 318.32 86.56 C 317.72 86.54 316.52 86.48 315.91 86.45 C 315.77 92.81 314.30 99.02 313.45 105.30 C 308.82 102.50 305.48 98.17 301.39 94.71 C 284.38 78.38 266.82 62.56 249.69 46.30 C 246.40 42.81 241.22 40.24 240.70 34.96 Z" />
<path fill="#5e89c0" opacity="1.00" d=" M 347.36 61.64 C 350.40 60.70 353.19 61.59 355.62 63.47 C 360.04 63.76 364.47 64.68 368.95 64.53 C 373.73 65.07 378.11 67.71 383.02 67.35 C 386.14 67.10 388.21 70.26 391.25 70.47 C 395.72 70.69 399.79 73.47 404.35 72.57 C 404.41 71.64 404.53 69.79 404.60 68.86 C 404.01 68.53 402.83 67.88 402.24 67.55 C 402.26 66.95 402.29 65.77 402.30 65.17 C 414.03 68.71 426.40 67.82 438.30 70.52 C 443.18 72.11 445.73 66.25 450.03 65.31 C 454.41 63.34 458.67 67.85 463.02 65.35 C 470.44 65.89 477.53 68.82 485.00 69.30 C 484.55 69.81 483.66 70.82 483.21 71.33 C 489.18 74.13 496.08 72.06 502.14 74.20 C 504.25 74.39 506.54 74.08 508.33 75.46 C 507.67 75.40 506.35 75.29 505.68 75.24 C 504.97 77.96 504.42 80.72 504.01 83.50 C 516.64 86.00 529.47 87.27 542.24 88.83 C 542.48 89.26 542.94 90.13 543.18 90.57 C 547.82 91.60 552.53 92.22 557.26 92.67 C 560.65 96.45 565.23 99.06 570.30 99.78 C 571.05 100.33 571.81 100.87 572.58 101.42 C 574.95 102.00 577.36 102.43 579.82 102.49 C 580.23 103.18 580.64 103.89 581.06 104.59 C 585.10 104.56 591.92 103.50 593.80 107.77 C 595.22 107.44 596.65 107.15 598.10 106.90 C 605.72 108.25 613.94 108.25 620.83 112.16 C 629.79 111.81 638.33 114.13 647.00 116.06 C 650.80 116.91 654.59 118.73 658.54 117.62 C 660.74 117.10 662.72 118.49 664.31 119.86 C 667.08 120.08 670.02 120.04 671.81 117.57 C 675.79 117.30 679.70 116.40 683.48 115.10 C 683.73 119.43 683.40 123.76 683.41 128.09 C 679.81 136.17 682.27 145.33 680.63 153.81 C 679.34 160.23 681.93 166.56 680.83 173.00 C 681.20 176.61 677.93 181.06 681.44 183.80 C 679.30 187.37 683.55 190.38 683.88 193.92 C 684.17 199.19 686.70 203.89 687.87 208.96 C 689.02 212.47 689.22 216.66 692.29 219.18 C 691.48 224.98 694.54 230.27 695.13 235.94 C 696.54 241.03 697.14 246.53 700.24 250.98 C 697.96 253.79 700.44 256.98 701.00 259.97 C 702.33 264.02 702.48 268.27 702.75 272.48 C 703.76 276.04 706.19 278.96 707.90 282.20 C 707.78 284.71 707.06 287.30 707.99 289.75 C 706.59 290.99 705.32 292.45 703.65 293.30 C 688.62 291.11 673.82 287.52 658.56 287.11 C 652.16 285.00 645.19 286.36 638.95 283.75 C 633.07 281.42 626.63 283.02 620.53 282.14 C 602.60 278.09 584.13 278.99 566.00 276.60 C 563.13 276.40 559.99 275.72 557.30 276.96 C 559.27 293.38 564.53 309.29 566.97 325.63 C 563.16 313.59 560.74 301.14 557.73 288.88 C 556.50 288.37 555.28 287.85 554.07 287.35 C 553.68 287.51 552.92 287.83 552.53 287.99 C 547.50 285.34 543.15 290.06 540.20 293.61 C 539.03 270.43 539.62 247.16 538.64 223.97 C 537.25 214.38 537.08 204.67 537.13 194.99 C 535.75 183.54 537.79 171.76 535.18 160.55 C 534.74 160.30 533.86 159.80 533.42 159.55 C 533.38 158.83 533.31 157.39 533.27 156.67 C 533.04 157.63 532.75 158.58 532.40 159.52 C 516.09 159.14 500.33 153.42 485.96 146.08 C 483.47 144.87 480.84 144.03 478.30 142.97 C 478.31 142.71 478.32 142.21 478.33 141.95 C 474.56 141.12 471.24 139.12 467.99 137.13 C 464.22 135.27 460.45 133.42 456.96 131.06 C 452.66 128.38 447.23 126.75 443.94 122.90 C 437.83 120.72 432.13 116.99 427.01 113.05 C 421.57 110.96 417.09 107.09 411.98 104.37 C 410.28 103.24 407.73 102.65 407.31 100.36 C 407.04 100.48 406.49 100.70 406.22 100.81 C 398.60 95.62 390.76 90.74 382.97 85.81 C 382.76 85.22 382.34 84.03 382.13 83.44 C 381.47 83.58 380.82 83.73 380.18 83.87 C 369.33 76.34 357.78 69.75 347.36 61.64 Z" />
<path fill="#5e89c0" opacity="1.00" d=" M 189.51 126.07 C 190.00 126.99 190.73 127.76 191.18 128.70 C 191.57 128.62 192.33 128.45 192.71 128.37 C 196.92 130.08 199.17 135.54 203.96 135.46 L 204.04 136.28 C 203.39 136.34 202.10 136.45 201.45 136.50 C 202.87 137.89 204.89 137.47 206.68 137.55 C 206.65 138.52 206.61 139.49 206.57 140.46 C 203.38 140.91 200.18 141.35 197.00 141.85 C 193.95 140.01 189.47 138.86 189.32 134.56 C 190.75 134.47 192.19 134.39 193.63 134.34 C 193.04 133.87 191.86 132.93 191.27 132.46 C 191.33 131.82 191.44 130.52 191.49 129.88 C 190.39 129.52 189.29 129.14 188.20 128.76 C 188.63 127.86 189.07 126.97 189.51 126.07 Z" />
<path fill="#5e89c0" opacity="1.00" d=" M 215.01 152.72 C 216.79 150.00 218.62 147.25 221.26 145.27 C 221.35 147.28 221.43 149.28 221.57 151.29 C 222.21 150.46 222.79 149.54 223.70 148.97 C 223.62 151.63 226.76 158.96 221.47 156.57 C 221.48 154.51 222.34 151.94 220.37 150.49 C 220.40 151.60 220.47 153.82 220.51 154.93 C 218.62 154.33 216.82 153.51 215.01 152.72 Z" />
<path fill="#5e89c0" opacity="1.00" d=" M 183.77 148.82 C 185.87 148.36 188.00 148.10 190.12 147.77 C 192.80 152.33 194.97 157.19 197.07 162.05 C 192.16 159.63 187.31 157.07 182.57 154.34 C 182.60 153.47 182.66 151.74 182.70 150.87 C 182.97 150.36 183.50 149.33 183.77 148.82 Z" />
<path fill="#5e89c0" opacity="1.00" d=" M 181.13 158.85 C 232.70 184.80 283.52 212.32 334.95 238.59 L 334.14 239.51 C 332.31 240.20 330.38 240.46 328.48 239.91 C 327.67 240.10 326.87 240.29 326.06 240.48 C 325.56 240.22 324.55 239.69 324.05 239.43 C 323.18 239.85 322.33 240.29 321.46 240.70 C 318.58 237.68 314.77 237.19 310.88 238.15 C 304.32 236.00 297.37 236.16 290.65 234.82 C 288.83 234.29 287.27 235.51 285.78 236.35 C 284.94 235.44 284.11 234.53 283.29 233.62 C 278.42 233.24 273.38 235.37 268.82 232.88 C 266.49 233.36 264.13 233.25 261.81 232.83 C 257.02 231.93 252.22 234.67 247.49 232.91 C 242.03 230.76 236.17 233.22 230.67 231.30 C 214.76 230.11 198.73 229.27 182.87 227.67 C 182.40 227.81 181.45 228.08 180.98 228.22 C 175.96 223.81 167.41 225.82 163.92 219.24 C 161.33 222.55 160.67 226.89 158.14 230.22 C 157.75 225.94 159.33 222.01 160.83 218.11 C 167.40 213.22 164.75 203.42 168.83 196.94 C 171.30 193.87 170.26 189.71 171.79 186.25 C 170.82 186.37 168.86 186.60 167.89 186.72 C 170.93 181.04 175.86 176.39 177.59 170.07 C 176.82 165.84 178.92 162.25 181.13 158.85 Z" />
<path fill="#5e89c0" opacity="1.00" d=" M 249.64 164.14 C 253.11 164.80 256.02 167.00 258.79 169.06 C 258.71 171.55 258.20 173.99 257.79 176.45 C 254.50 175.73 251.55 173.98 248.90 171.96 C 248.43 169.43 250.11 166.80 249.64 164.14 Z" />
<path fill="#5e89c0" opacity="1.00" d=" M 208.48 168.03 C 214.24 167.13 220.05 165.74 225.89 165.87 C 227.41 169.68 227.77 173.82 228.56 177.81 C 221.28 176.01 215.00 171.57 208.48 168.03 Z" />
<path fill="#5e89c0" opacity="1.00" d=" M 507.92 178.06 C 510.76 173.19 517.35 174.95 522.03 173.72 C 524.75 173.85 529.08 172.02 530.65 174.96 C 531.13 179.83 531.59 184.87 530.60 189.70 C 527.31 191.80 523.25 191.87 519.50 192.40 C 516.99 192.51 513.72 193.58 512.25 190.81 C 511.89 193.25 509.90 192.63 508.18 192.25 C 508.18 188.86 508.10 185.47 507.94 182.09 C 507.91 180.74 507.90 179.40 507.92 178.06 Z" />
<path fill="#5e89c0" opacity="1.00" d=" M 261.13 196.13 C 266.64 195.41 272.17 194.69 277.72 194.36 C 277.36 197.67 276.77 200.95 275.94 204.18 C 270.96 201.59 265.92 199.08 261.13 196.13 Z" />
<path fill="#5e89c0" opacity="1.00" d=" M 515.40 205.29 C 519.43 203.24 524.61 203.11 528.98 203.89 C 531.84 208.98 530.42 215.56 530.32 221.27 C 527.85 223.66 523.60 224.73 520.42 223.19 C 517.28 225.18 513.28 224.91 509.78 224.33 C 507.46 219.21 509.03 213.40 509.37 208.04 C 509.33 205.43 512.07 205.00 513.99 204.23 C 514.34 204.50 515.05 205.03 515.40 205.29 Z" />
<path fill="#5e89c0" opacity="1.00" d=" M 301.80 217.97 C 302.57 217.68 304.11 217.10 304.88 216.81 C 307.69 216.89 310.49 216.76 313.29 216.61 C 313.09 218.72 312.87 220.83 312.63 222.94 C 308.58 222.46 305.24 219.93 301.80 217.97 Z" />
<path fill="#5e89c0" opacity="1.00" d=" M 511.02 239.07 C 516.82 237.67 522.92 237.09 528.85 238.02 C 531.42 246.47 528.92 255.21 529.76 263.77 C 523.19 265.39 516.15 266.14 509.45 264.93 C 509.65 256.32 508.14 247.39 511.02 239.07 Z" />
<path fill="#5e89c0" opacity="1.00" d=" M 120.47 384.83 C 127.70 383.72 134.79 386.08 142.01 385.47 C 149.04 385.04 156.08 385.56 163.11 385.20 C 174.35 386.75 185.69 386.01 196.94 387.40 C 208.62 387.69 220.36 386.73 231.98 388.24 C 245.13 388.58 258.29 388.32 271.43 388.65 C 281.25 389.82 291.16 389.35 301.03 389.44 C 304.18 389.79 305.21 386.13 306.89 384.17 C 307.15 385.86 307.49 387.56 307.84 389.24 C 340.83 391.10 373.97 389.96 406.98 391.04 C 407.42 391.07 408.32 391.13 408.76 391.15 C 421.60 392.58 434.52 392.14 447.37 393.28 C 447.71 392.47 448.40 390.86 448.75 390.06 C 448.75 390.87 448.77 392.49 448.77 393.30 C 464.06 393.20 479.26 395.03 494.56 394.40 L 494.55 394.51 C 494.18 397.19 493.84 399.88 493.55 402.57 C 492.43 402.66 491.32 402.74 490.21 402.83 C 490.31 402.47 490.51 401.75 490.61 401.39 C 488.01 401.48 485.42 401.70 482.86 402.11 C 477.72 403.10 472.32 399.96 467.37 402.46 C 465.59 403.88 465.54 406.92 462.73 407.14 C 471.82 407.97 480.97 407.37 490.07 408.20 C 492.45 408.40 494.84 408.61 497.23 408.87 C 497.07 411.11 497.56 413.22 499.47 414.60 C 498.25 414.99 497.03 415.43 495.84 415.85 C 496.89 418.84 498.86 421.26 501.90 422.36 C 500.87 422.59 499.85 422.82 498.84 423.05 C 499.83 424.25 500.84 425.44 501.86 426.64 C 500.37 429.16 497.78 430.44 495.18 431.51 C 495.73 431.89 496.82 432.64 497.37 433.02 C 496.31 433.74 495.26 434.46 494.21 435.18 C 494.80 437.16 494.45 439.77 495.99 441.25 C 497.70 440.97 499.41 440.70 501.11 440.36 C 499.76 446.23 491.87 443.26 487.52 444.47 C 489.23 444.58 490.94 444.77 492.65 445.00 C 494.10 446.20 495.77 447.04 497.61 447.48 C 496.35 448.48 494.76 449.27 494.11 450.84 C 496.52 453.19 500.06 452.48 503.10 452.43 C 500.81 453.28 498.52 454.17 496.24 455.06 C 496.33 455.47 496.49 456.29 496.58 456.70 C 495.98 456.78 494.78 456.95 494.18 457.03 C 493.08 458.43 492.00 459.86 490.93 461.29 C 495.38 460.14 499.60 458.69 503.83 461.68 C 503.51 461.89 502.88 462.30 502.56 462.50 C 498.16 462.72 493.00 461.55 489.55 465.01 C 493.89 464.70 498.24 463.39 502.58 464.40 C 499.85 464.70 497.11 464.85 494.37 465.02 C 492.07 470.94 484.59 470.05 479.65 471.97 C 484.88 474.05 490.55 474.61 496.14 474.35 C 488.62 477.80 480.27 476.91 472.64 479.70 C 472.25 480.73 471.86 481.76 471.43 482.79 C 471.88 483.11 472.78 483.76 473.23 484.08 C 468.43 482.97 463.22 481.14 458.51 483.62 C 453.29 486.16 447.33 485.28 441.89 487.00 C 442.52 487.60 443.15 488.20 443.78 488.80 C 440.91 488.70 438.05 488.65 435.19 488.54 C 435.78 489.69 436.07 490.98 436.70 492.13 C 431.55 493.89 427.00 489.73 421.87 490.41 C 420.74 491.53 419.63 492.67 418.31 493.57 C 417.18 493.54 416.05 493.54 414.93 493.56 C 406.31 497.80 396.21 495.11 387.03 496.90 C 383.43 497.79 379.72 497.59 376.05 497.71 C 370.00 500.72 363.38 498.37 357.04 498.66 C 345.16 500.37 333.18 498.13 321.31 499.59 C 312.20 497.57 302.73 500.16 293.74 497.41 C 287.14 496.84 280.44 498.77 273.93 496.69 C 265.55 497.16 257.39 495.15 249.16 493.90 C 249.32 493.41 249.64 492.45 249.80 491.96 C 245.23 491.04 240.77 488.99 236.02 489.47 C 226.66 489.94 217.33 488.74 207.98 488.45 C 209.00 487.69 210.03 486.94 211.05 486.19 C 208.02 485.73 204.98 485.19 202.11 484.08 C 195.42 478.96 186.02 479.99 178.03 479.79 C 172.00 480.34 166.05 477.45 160.07 479.13 C 154.04 480.72 147.65 478.38 141.69 480.52 C 142.03 479.88 142.69 478.61 143.02 477.97 C 148.71 477.03 154.56 476.85 159.98 474.65 C 160.52 474.83 161.59 475.18 162.13 475.35 C 169.92 472.04 178.62 472.50 186.91 472.01 C 193.39 471.49 200.21 477.12 206.04 472.45 C 202.80 472.59 199.37 473.14 196.43 471.40 C 200.68 470.60 205.27 469.68 209.36 471.62 C 211.59 472.82 214.03 471.82 216.34 471.40 C 216.53 470.84 216.92 469.73 217.12 469.18 C 222.84 469.98 228.78 471.35 234.42 469.28 C 237.22 466.36 241.38 466.55 245.10 466.37 C 241.57 465.30 237.99 464.35 234.44 463.36 C 240.04 460.83 245.56 464.91 251.28 464.54 C 252.86 463.09 254.57 461.18 256.97 461.82 C 262.29 462.57 267.71 463.06 272.99 461.81 C 271.83 461.28 270.66 460.75 269.50 460.22 C 274.26 458.34 279.16 461.20 283.99 459.98 C 287.50 459.55 290.48 457.31 293.95 456.84 C 302.51 457.14 310.89 459.57 319.49 459.36 C 313.62 458.17 307.90 456.14 301.84 456.40 C 301.57 456.00 301.03 455.22 300.77 454.82 C 311.76 452.68 322.51 458.54 333.50 455.91 C 326.95 455.92 320.84 453.36 314.44 452.39 C 304.71 450.04 294.62 450.21 284.70 450.88 C 285.78 450.29 286.86 449.70 287.94 449.12 C 285.35 448.72 282.74 448.47 280.14 448.26 C 281.06 448.95 281.98 449.64 282.90 450.35 C 279.24 453.56 274.21 451.06 269.89 452.14 C 267.05 451.30 264.03 449.88 261.15 451.45 C 257.50 453.32 253.57 451.22 249.77 451.99 C 243.98 453.27 238.04 451.84 232.22 452.95 C 232.81 453.94 233.40 454.94 233.98 455.94 C 226.38 455.43 218.86 456.06 211.27 456.47 C 211.02 456.64 210.51 456.98 210.26 457.15 C 211.35 457.89 212.44 458.65 213.52 459.42 C 207.19 459.75 201.32 456.83 195.23 455.74 C 182.59 457.52 170.09 460.71 157.26 460.73 C 152.40 461.60 147.28 462.36 142.57 460.37 C 145.90 459.53 149.34 459.27 152.76 459.51 C 152.76 459.23 152.75 458.69 152.74 458.42 C 148.64 458.51 144.54 458.21 140.52 457.37 C 140.58 458.25 140.64 459.13 140.70 460.01 C 131.18 460.60 121.91 463.37 112.43 464.58 C 113.17 463.82 113.92 463.08 114.69 462.36 C 107.95 461.73 101.25 462.09 95.18 465.51 C 92.82 461.82 98.35 459.68 97.76 455.82 C 98.67 454.31 99.58 452.80 100.65 451.42 C 100.70 450.27 100.75 449.14 100.80 448.01 C 104.08 445.39 102.16 440.29 105.38 437.50 C 107.76 428.24 108.59 418.58 111.32 409.45 C 116.28 401.91 115.77 392.45 120.47 384.83 Z" />
<path fill="#5e89c0" opacity="1.00" d=" M 621.89 393.56 C 622.21 393.53 622.85 393.49 623.17 393.47 C 624.29 398.05 629.22 396.90 630.27 392.95 C 631.19 393.41 632.12 393.88 633.04 394.37 C 633.49 394.13 634.38 393.64 634.83 393.39 C 636.91 394.59 639.01 395.75 641.15 396.85 C 642.46 395.71 643.81 394.61 645.19 393.56 C 644.52 394.64 643.84 395.71 643.15 396.78 C 644.10 396.92 645.05 397.07 646.02 397.22 C 646.70 396.60 647.40 395.99 648.12 395.39 C 649.91 395.46 651.72 395.52 653.54 395.60 C 653.90 395.95 654.63 396.65 655.00 397.00 C 654.86 397.14 654.58 397.43 654.44 397.57 C 661.31 397.47 668.87 395.54 675.29 398.36 C 673.52 398.41 671.83 398.48 670.09 398.49 C 682.09 400.46 694.62 397.70 706.38 400.72 C 705.23 401.51 704.10 402.30 702.97 403.09 C 703.94 403.75 704.92 404.41 705.93 405.08 C 710.54 402.44 715.17 407.12 719.78 405.29 C 719.92 405.04 720.19 404.54 720.33 404.29 C 721.79 409.34 722.51 415.68 723.60 421.25 C 722.88 436.76 728.75 451.38 731.72 466.39 C 727.83 466.67 723.52 467.13 721.03 470.55 C 719.33 470.12 717.70 469.47 716.10 468.79 C 711.21 469.11 706.20 469.68 701.62 467.51 C 697.00 470.88 691.31 468.60 686.15 470.28 C 686.19 470.84 686.28 471.95 686.33 472.51 C 679.98 471.93 673.57 474.32 667.32 472.61 C 660.30 469.83 653.20 475.01 646.04 473.32 C 639.25 471.90 632.67 475.92 625.97 473.97 C 618.86 473.24 612.22 477.55 605.02 476.51 C 598.89 477.87 592.58 475.41 586.55 477.40 C 580.45 478.54 574.01 479.52 567.96 477.65 C 562.31 477.29 556.66 479.28 551.04 477.84 C 550.89 476.84 550.76 475.83 550.62 474.84 C 548.19 474.39 545.78 473.93 543.36 473.47 C 542.34 471.13 543.38 469.06 544.78 467.18 C 547.69 470.35 551.93 471.26 556.03 471.66 C 556.66 469.98 557.26 468.28 557.80 466.57 C 555.64 466.46 553.48 466.34 551.33 466.19 C 551.89 464.45 552.39 462.68 552.55 460.86 C 550.77 458.96 548.32 457.94 546.09 456.69 C 544.34 456.32 542.59 455.97 540.83 455.68 C 544.54 455.76 548.33 455.71 551.84 454.33 C 551.71 452.86 551.60 451.40 551.49 449.94 C 550.02 448.69 548.52 447.49 547.17 446.12 C 549.60 444.29 551.59 447.38 553.33 448.67 C 556.79 447.39 557.44 444.12 555.69 441.07 C 554.29 441.68 552.92 442.32 551.54 442.95 C 551.56 442.50 551.60 441.59 551.63 441.14 C 549.84 440.09 548.05 439.08 546.25 438.08 C 547.21 437.21 548.18 436.35 549.15 435.49 C 548.03 434.52 546.96 433.54 545.84 432.59 C 547.31 432.59 548.80 432.58 550.29 432.58 C 550.70 433.21 551.53 434.46 551.94 435.08 C 554.58 434.81 555.99 432.82 557.00 430.59 C 558.41 429.82 559.83 429.07 561.27 428.33 C 560.29 425.29 557.03 425.06 554.34 424.46 C 555.30 423.85 556.26 423.25 557.23 422.66 C 555.44 422.15 553.69 421.53 552.00 420.76 C 551.58 421.89 551.15 423.02 550.74 424.16 C 548.53 423.88 546.33 423.60 544.14 423.28 C 545.67 420.99 548.02 418.02 545.37 415.62 C 543.37 413.96 545.66 412.07 546.64 410.57 C 545.06 411.04 544.60 409.83 544.21 408.82 C 547.41 409.63 550.72 410.16 554.04 410.05 C 562.61 411.24 571.07 408.94 579.70 409.61 C 579.08 409.01 578.48 408.42 577.87 407.83 C 585.42 400.31 596.11 395.88 606.84 397.31 C 606.93 396.53 607.13 394.98 607.23 394.20 C 607.90 394.19 609.24 394.17 609.92 394.16 C 610.66 394.71 611.41 395.27 612.17 395.83 C 613.62 395.73 615.07 395.65 616.54 395.59 C 618.84 397.55 620.76 395.75 621.89 393.56 Z" />
<path fill="#5e89c0" opacity="1.00" d=" M 694.25 398.41 C 694.75 398.91 694.75 398.91 694.25 398.41 Z" />
<path fill="#5e89c0" opacity="1.00" d=" M 697.11 398.40 C 697.60 398.91 697.60 398.91 697.11 398.40 Z" />
</g>
<g id="#9ec5eeff">
<path fill="#9ec5ee" opacity="1.00" d=" M 163.92 219.24 C 167.41 225.82 175.96 223.81 180.98 228.22 C 181.45 228.08 182.40 227.81 182.87 227.67 C 198.73 229.27 214.76 230.11 230.67 231.30 C 236.17 233.22 242.03 230.76 247.49 232.91 C 252.22 234.67 257.02 231.93 261.81 232.83 C 264.13 233.25 266.49 233.36 268.82 232.88 C 273.38 235.37 278.42 233.24 283.29 233.62 C 284.11 234.53 284.94 235.44 285.78 236.35 C 287.27 235.51 288.83 234.29 290.65 234.82 C 297.37 236.16 304.32 236.00 310.88 238.15 C 314.77 237.19 318.58 237.68 321.46 240.70 C 322.33 240.29 323.18 239.85 324.05 239.43 C 324.55 239.69 325.56 240.22 326.06 240.48 C 326.87 240.29 327.67 240.10 328.48 239.91 C 330.38 240.46 332.31 240.20 334.14 239.51 C 335.38 238.75 336.52 239.99 337.64 240.37 C 378.97 262.12 420.35 283.79 461.58 305.73 C 461.60 307.13 461.59 308.53 461.64 309.93 C 463.27 310.57 464.83 311.41 466.01 312.75 C 467.79 312.36 469.49 311.72 471.15 310.98 C 473.12 311.93 475.03 313.01 476.86 314.21 C 484.35 317.79 491.87 321.61 498.89 325.96 C 500.26 335.68 499.03 345.64 499.23 355.45 C 493.39 352.30 487.00 354.64 480.81 354.41 C 480.48 353.96 479.83 353.06 479.50 352.61 C 474.93 350.47 470.18 347.93 464.96 348.49 C 449.96 348.46 436.62 356.47 421.94 358.40 C 415.46 359.26 409.63 363.68 402.90 362.62 C 395.06 361.45 387.88 357.84 380.83 354.39 C 369.78 349.80 357.57 350.86 345.95 351.78 C 341.54 353.47 337.16 351.90 333.21 349.86 C 325.56 345.73 316.22 351.26 308.84 346.30 C 302.57 343.80 297.36 338.04 290.15 338.57 C 280.75 339.15 271.42 336.62 262.04 338.04 C 254.15 338.06 246.84 341.20 239.51 343.72 C 234.96 345.83 230.66 341.48 225.97 342.47 C 218.64 343.61 211.20 344.33 203.99 346.13 C 188.20 351.28 172.25 355.90 156.24 360.29 C 148.19 361.26 139.99 361.27 132.18 363.75 C 129.77 363.90 126.43 365.71 124.49 363.75 C 125.55 359.43 128.37 355.73 128.86 351.24 C 130.27 345.99 129.37 340.49 130.62 335.22 C 129.85 331.46 129.99 327.43 131.77 323.96 C 132.59 322.00 133.27 319.99 133.84 317.95 C 135.17 315.04 134.01 311.85 134.70 308.83 C 135.73 306.19 137.14 303.72 138.18 301.08 C 139.63 296.45 141.93 291.89 141.26 286.89 C 141.88 286.27 142.50 285.66 143.13 285.06 C 142.52 279.79 147.50 277.26 149.34 273.05 C 150.85 264.90 153.50 257.02 154.77 248.82 C 155.13 247.86 155.48 246.90 155.84 245.95 C 157.89 241.11 154.72 235.48 157.61 230.88 L 158.14 230.22 C 160.67 226.89 161.33 222.55 163.92 219.24 Z" />
<path fill="#9ec5ee" opacity="1.00" d=" M 557.30 276.96 C 559.99 275.72 563.13 276.40 566.00 276.60 C 584.13 278.99 602.60 278.09 620.53 282.14 C 626.63 283.02 633.07 281.42 638.95 283.75 C 645.19 286.36 652.16 285.00 658.56 287.11 C 673.82 287.52 688.62 291.11 703.65 293.30 C 705.32 292.45 706.59 290.99 707.99 289.75 C 707.90 293.90 709.11 297.83 710.47 301.69 C 710.93 306.86 710.76 312.49 713.84 316.96 C 712.16 324.40 715.69 331.60 716.01 338.99 C 717.74 344.55 719.41 350.61 717.53 356.36 C 716.80 361.61 719.09 366.68 718.96 371.95 C 718.75 376.38 721.87 380.92 720.11 385.17 C 714.80 387.28 708.99 388.63 703.28 387.65 C 698.63 383.89 692.65 383.84 686.99 383.95 C 677.53 382.34 666.30 378.19 658.11 385.46 C 651.28 382.30 643.68 383.50 636.43 383.52 C 628.53 382.62 620.63 381.61 613.01 379.22 C 604.80 378.01 598.64 371.48 590.38 370.46 C 590.34 358.28 588.08 346.24 587.79 334.12 C 585.24 334.23 582.70 334.29 580.16 334.32 C 580.60 343.00 579.97 351.70 580.05 360.39 C 569.54 350.38 559.90 339.44 549.67 329.19 C 546.51 327.05 544.18 324.03 542.32 320.74 C 543.26 319.45 544.37 318.31 545.51 317.19 C 545.21 316.56 544.60 315.29 544.30 314.66 C 542.97 314.28 541.66 313.87 540.34 313.51 C 539.83 306.88 540.90 300.22 540.20 293.61 C 543.15 290.06 547.50 285.34 552.53 287.99 C 552.92 287.83 553.68 287.51 554.07 287.35 C 555.28 287.85 556.50 288.37 557.73 288.88 C 560.74 301.14 563.16 313.59 566.97 325.63 C 564.53 309.29 559.27 293.38 557.30 276.96 Z" />
<path fill="#9ec5ee" opacity="1.00" d=" M 512.52 281.50 C 517.28 281.21 522.29 279.60 526.97 280.93 C 530.53 284.15 529.01 289.76 530.02 294.02 C 531.40 299.52 530.52 305.18 530.53 310.77 C 526.02 306.23 520.64 302.49 516.98 297.18 C 516.44 296.93 515.38 296.42 514.85 296.17 C 514.00 293.41 512.65 290.80 510.22 289.12 C 510.46 286.44 511.40 283.92 512.52 281.50 Z" />
<path fill="#9ec5ee" opacity="1.00" d=" M 508.82 331.02 C 509.43 332.21 509.82 333.48 510.00 334.83 C 510.54 335.11 511.64 335.67 512.18 335.96 C 513.64 335.55 515.07 335.13 516.54 334.74 C 516.00 339.31 511.36 342.17 508.69 345.63 C 508.47 340.76 508.37 335.87 508.82 331.02 Z" />
<path fill="#9ec5ee" opacity="1.00" d=" M 540.96 349.12 L 542.22 349.83 C 552.34 355.46 562.29 361.52 571.47 368.61 C 569.42 368.63 567.39 368.60 565.35 368.50 C 564.48 367.74 563.69 366.89 563.01 365.97 C 562.47 366.32 561.40 367.01 560.87 367.36 C 557.57 366.05 554.80 363.84 551.85 361.95 C 548.35 360.91 544.63 361.25 541.03 361.16 C 541.00 357.14 540.87 353.13 540.96 349.12 Z" />
<path fill="#9ec5ee" opacity="1.00" d=" M 511.46 351.83 C 514.55 351.59 517.66 351.63 520.77 351.77 C 523.40 351.89 526.03 351.91 528.67 351.96 C 526.06 355.19 523.86 359.36 520.02 361.18 C 516.91 360.40 515.39 356.74 513.07 354.67 C 512.39 353.80 511.85 352.85 511.46 351.83 Z" />
<path fill="#9ec5ee" opacity="1.00" d=" M 656.61 395.29 C 662.69 395.35 668.82 397.16 674.83 395.45 C 675.37 396.47 675.92 397.50 676.48 398.53 C 678.19 398.58 679.88 398.65 681.61 398.72 C 681.53 397.88 681.44 397.04 681.34 396.22 C 682.46 396.27 683.60 396.32 684.74 396.38 C 685.31 397.13 685.88 397.89 686.47 398.66 C 687.79 393.78 694.07 396.97 697.72 396.44 C 698.49 397.36 699.26 398.29 700.04 399.23 C 700.62 397.93 701.18 396.63 701.77 395.35 C 707.20 397.16 712.69 399.78 718.56 398.35 L 718.90 398.32 C 718.74 399.59 718.59 400.88 718.44 402.17 C 718.92 402.70 719.86 403.76 720.33 404.29 C 720.19 404.54 719.92 405.04 719.78 405.29 C 715.17 407.12 710.54 402.44 705.93 405.08 C 704.92 404.41 703.94 403.75 702.97 403.09 C 704.10 402.30 705.23 401.51 706.38 400.72 C 694.62 397.70 682.09 400.46 670.09 398.49 C 671.83 398.48 673.52 398.41 675.29 398.36 C 668.87 395.54 661.31 397.47 654.44 397.57 C 654.58 397.43 654.86 397.14 655.00 397.00 C 655.40 396.57 656.21 395.72 656.61 395.29 M 694.25 398.41 C 694.75 398.91 694.75 398.91 694.25 398.41 M 697.11 398.40 C 697.60 398.91 697.60 398.91 697.11 398.40 Z" />
</g>
</svg>
