<?xml version="1.0" encoding="UTF-8" ?>
<!DOCTYPE svg PUBLIC "-//W3C//DTD SVG 1.1//EN" "http://www.w3.org/Graphics/SVG/1.1/DTD/svg11.dtd">
<svg width="960pt" height="540pt" viewBox="0 0 960 540" version="1.1" xmlns="http://www.w3.org/2000/svg">
<g id="#0b1d3fff">
<path fill="#0b1d3f" opacity="1.00" d=" M 0.00 0.00 L 17.84 0.00 C 17.95 1.69 18.18 5.06 18.29 6.74 C 20.36 8.67 19.33 11.00 17.99 13.03 C 11.99 13.06 5.86 12.46 0.00 14.11 L 0.00 0.00 Z" />
</g>
<g id="#cc9c6eff">
<path fill="#cc9c6e" opacity="1.00" d=" M 17.84 0.00 L 58.05 0.00 C 57.95 2.64 57.84 5.27 57.72 7.91 C 44.72 12.09 31.59 5.87 18.29 6.74 C 18.18 5.06 17.95 1.69 17.84 0.00 Z" />
</g>
<g id="#101e38ff">
<path fill="#101e38" opacity="1.00" d=" M 58.05 0.00 L 127.51 0.00 C 135.31 0.96 143.15 1.54 150.98 2.14 C 150.96 3.83 150.90 7.22 150.88 8.91 C 124.49 8.46 98.16 10.24 71.79 10.04 C 67.75 8.59 59.62 12.87 57.72 7.91 C 57.84 5.27 57.95 2.64 58.05 0.00 Z" />
</g>
<g id="#d5a067ff">
<path fill="#d5a067" opacity="1.00" d=" M 127.51 0.00 L 204.35 0.00 C 205.23 6.99 197.63 4.38 193.10 5.12 C 190.58 7.52 192.78 13.76 191.81 17.75 C 164.25 23.10 137.20 31.34 108.93 25.14 C 108.90 20.95 108.89 16.77 108.89 12.58 C 135.26 11.99 161.59 10.65 187.99 10.95 C 180.61 2.79 151.54 18.07 150.98 2.14 C 143.15 1.54 135.31 0.96 127.51 0.00 Z" />
</g>
<g id="#0e274cff">
<path fill="#0e274c" opacity="1.00" d=" M 204.35 0.00 L 275.25 0.00 C 270.76 10.85 271.88 23.17 271.95 35.15 C 277.70 41.33 302.44 27.07 294.96 46.93 C 267.65 46.85 240.37 48.05 213.09 48.97 C 212.62 48.92 211.69 48.83 211.22 48.79 C 191.18 47.07 170.98 48.87 150.96 46.45 C 174.58 39.25 199.25 39.10 223.74 38.86 C 229.32 31.76 216.78 32.49 212.23 32.72 C 205.46 32.01 198.66 31.98 191.86 32.07 C 190.12 23.24 194.15 14.14 193.10 5.12 C 197.63 4.38 205.23 6.99 204.35 0.00 Z" />
</g>
<g id="#cd9d6cff">
<path fill="#cd9d6c" opacity="1.00" d=" M 275.25 0.00 L 344.86 0.00 C 344.94 1.73 345.08 5.19 345.15 6.92 C 356.93 7.36 368.75 6.44 380.53 7.42 C 380.88 10.74 381.03 14.09 381.15 17.42 C 373.66 18.05 366.18 18.84 358.68 19.38 C 346.57 14.53 350.52 27.85 349.99 34.91 C 334.27 36.02 319.52 42.27 304.08 45.10 C 295.30 48.85 294.76 42.69 295.84 35.01 C 287.91 33.87 279.71 37.25 271.95 35.15 C 271.88 23.17 270.76 10.85 275.25 0.00 Z" />
</g>
<g id="#102440ff">
<path fill="#102440" opacity="1.00" d=" M 344.86 0.00 L 396.49 0.00 C 403.59 1.13 410.79 0.91 417.96 1.13 C 417.94 4.78 417.91 12.06 417.89 15.71 C 405.70 16.82 393.37 17.91 381.15 17.42 C 381.03 14.09 380.88 10.74 380.53 7.42 C 368.75 6.44 356.93 7.36 345.15 6.92 C 345.08 5.19 344.94 1.73 344.86 0.00 Z" />
</g>
<g id="#868b98ff">
<path fill="#868b98" opacity="1.00" d=" M 396.49 0.00 L 418.97 0.00 C 418.91 5.29 418.96 10.59 419.11 15.88 C 439.26 18.60 461.18 11.76 480.43 17.77 C 464.97 18.15 449.53 19.37 434.10 20.19 C 433.90 33.73 433.81 47.29 434.13 60.83 C 450.02 62.81 466.57 61.03 482.01 57.01 C 481.78 57.52 481.31 58.53 481.07 59.04 C 493.99 57.80 506.92 56.56 519.92 56.97 C 546.98 57.95 576.33 55.63 601.91 56.97 C 572.96 58.09 543.99 60.92 515.21 64.00 C 502.12 63.96 489.11 65.84 476.12 67.24 C 475.83 77.56 476.04 87.90 475.78 98.23 C 474.51 87.89 475.22 77.47 474.92 67.09 C 459.28 66.03 443.65 68.00 428.06 67.69 C 392.24 64.57 354.52 69.05 317.95 69.01 C 300.95 68.61 284.00 70.57 267.00 70.02 L 265.99 70.02 C 226.05 70.19 186.10 67.63 146.21 68.33 C 145.83 68.41 145.06 68.56 144.68 68.63 C 105.76 70.91 66.81 72.39 27.87 74.11 C 18.57 74.04 9.28 73.60 0.00 72.90 L 0.00 66.12 C 20.29 64.36 40.69 64.40 61.00 62.95 C 94.58 61.82 128.16 61.88 161.73 63.96 C 196.12 64.12 230.58 68.27 264.94 64.83 C 265.04 63.58 265.05 62.33 264.98 61.08 C 230.91 60.63 196.83 61.54 162.77 60.64 C 179.42 59.03 196.18 60.63 212.87 59.89 C 212.92 57.16 213.03 51.70 213.09 48.97 C 240.37 48.05 267.65 46.85 294.96 46.93 C 302.44 27.07 277.70 41.33 271.95 35.15 C 279.71 37.25 287.91 33.87 295.84 35.01 C 294.76 42.69 295.30 48.85 304.08 45.10 C 303.80 45.60 303.24 46.59 302.96 47.09 C 318.36 47.02 333.76 46.94 349.16 47.06 C 363.21 48.91 380.39 46.19 392.89 49.04 C 352.24 49.20 311.65 51.32 271.01 52.13 C 271.02 53.83 271.04 57.22 271.05 58.92 C 283.37 60.11 299.53 57.75 309.92 58.92 C 298.31 64.35 279.96 59.08 266.03 61.11 C 264.01 69.22 276.83 63.14 281.00 65.05 C 322.04 63.00 363.28 67.01 404.22 64.45 C 413.47 63.24 424.45 65.60 432.68 60.44 C 433.35 47.00 433.05 33.53 432.91 20.08 C 408.19 19.30 383.33 21.10 358.68 19.38 C 366.18 18.84 373.66 18.05 381.15 17.42 C 393.37 17.91 405.70 16.82 417.89 15.71 C 417.91 12.06 417.94 4.78 417.96 1.13 C 410.79 0.91 403.59 1.13 396.49 0.00 M 214.10 51.06 C 213.81 54.00 213.96 56.95 214.03 59.90 C 232.60 57.92 251.33 59.57 269.96 58.95 C 269.97 57.23 269.98 53.79 269.99 52.06 C 251.33 52.67 232.76 50.30 214.10 51.06 Z" />
</g>
<g id="#e0ae76ff">
<path fill="#e0ae76" opacity="1.00" d=" M 418.97 0.00 L 511.98 0.00 C 512.04 4.97 511.66 9.97 512.15 14.93 C 519.84 15.73 527.88 13.72 535.43 15.59 C 534.63 27.02 535.36 38.48 534.87 49.91 C 516.78 48.52 499.09 51.35 482.01 57.01 C 466.57 61.03 450.02 62.81 434.13 60.83 C 433.81 47.29 433.90 33.73 434.10 20.19 C 449.53 19.37 464.97 18.15 480.43 17.77 C 461.18 11.76 439.26 18.60 419.11 15.88 C 418.96 10.59 418.91 5.29 418.97 0.00 Z" />
</g>
<g id="#122947ff">
<path fill="#122947" opacity="1.00" d=" M 511.98 0.00 L 520.85 0.00 C 516.76 17.42 540.63 4.63 548.96 9.94 C 550.22 22.09 566.71 13.50 574.96 16.15 C 575.01 20.36 575.01 24.57 574.83 28.78 C 573.80 35.34 574.68 42.07 573.53 48.60 C 567.69 49.15 561.83 48.95 556.00 49.01 C 549.33 48.89 542.69 49.07 536.08 49.93 C 535.17 38.52 537.26 26.90 535.43 15.59 C 527.88 13.72 519.84 15.73 512.15 14.93 C 511.66 9.97 512.04 4.97 511.98 0.00 Z" />
</g>
<g id="#eec074ff">
<path fill="#eec074" opacity="1.00" d=" M 520.85 0.00 L 595.80 0.00 C 589.74 1.43 584.68 2.13 587.08 9.85 C 601.37 10.32 615.65 11.16 629.96 11.09 C 631.95 18.52 617.69 9.89 617.97 15.95 C 632.29 16.00 646.65 15.99 660.94 17.21 C 660.99 21.37 661.37 25.57 660.86 29.71 C 649.32 26.54 655.53 40.44 653.88 46.42 C 627.73 47.22 601.52 46.90 575.42 48.58 C 574.89 41.99 574.90 35.38 574.83 28.78 C 575.01 24.57 575.01 20.36 574.96 16.15 C 566.71 13.50 550.22 22.09 548.96 9.94 C 540.63 4.63 516.76 17.42 520.85 0.00 Z" />
</g>
<g id="#142843ff">
<path fill="#142843" opacity="1.00" d=" M 595.80 0.00 L 621.24 0.00 C 630.66 8.06 658.86 -8.45 653.07 12.97 C 663.54 15.64 677.93 12.97 689.90 14.11 C 689.94 19.38 690.02 24.65 690.12 29.92 C 705.03 30.33 719.96 29.66 734.89 30.11 C 735.20 40.76 734.94 51.41 735.00 62.05 C 723.72 63.34 712.50 65.26 701.16 66.03 C 700.60 56.85 705.65 41.28 690.25 47.23 C 678.12 46.86 665.97 47.39 653.88 46.42 C 655.53 40.44 649.32 26.54 660.86 29.71 C 661.37 25.57 660.99 21.37 660.94 17.21 C 646.65 15.99 632.29 16.00 617.97 15.95 C 617.69 9.89 631.95 18.52 629.96 11.09 C 615.65 11.16 601.37 10.32 587.08 9.85 C 584.68 2.13 589.74 1.43 595.80 0.00 Z" />
</g>
<g id="#e6bc7cff">
<path fill="#e6bc7c" opacity="1.00" d=" M 621.24 0.00 L 804.05 0.00 L 803.87 0.95 C 786.44 -1.12 771.45 10.87 754.24 8.95 C 757.42 -1.35 747.72 0.65 741.04 1.11 C 746.59 15.46 727.34 5.72 722.00 10.02 C 722.11 12.66 720.72 17.43 727.00 14.01 C 739.58 14.73 752.34 14.28 764.78 16.27 C 758.78 35.11 780.62 26.24 790.93 27.90 C 791.12 21.99 791.32 16.04 790.71 10.15 C 790.66 9.58 790.57 8.44 790.53 7.87 C 812.42 7.95 834.32 8.24 856.21 7.79 C 860.32 8.63 857.33 2.44 858.07 0.00 L 892.96 0.00 C 893.00 4.66 892.72 9.33 893.13 13.98 C 906.42 14.23 919.64 12.20 932.96 13.04 C 933.13 17.99 932.71 22.97 933.15 27.91 C 940.71 28.06 948.33 28.40 955.91 27.86 C 956.21 18.58 955.36 9.17 957.21 0.00 L 960.00 0.00 L 960.00 35.99 C 950.21 35.54 940.31 36.92 930.60 35.62 C 939.57 37.92 938.86 24.87 930.23 29.20 C 912.19 28.65 894.14 29.38 876.12 28.87 C 874.94 25.25 877.80 18.20 874.98 16.03 C 866.44 16.53 850.63 11.11 855.90 26.00 C 854.39 33.34 864.17 29.10 868.73 29.83 C 883.11 30.22 897.52 29.71 911.92 30.11 C 912.02 34.73 912.05 39.36 912.01 43.98 C 890.29 43.49 868.66 45.55 847.02 46.94 C 842.38 48.04 845.80 40.43 844.84 37.76 C 845.17 25.54 823.87 34.71 815.10 32.12 C 814.35 39.51 816.25 47.30 814.09 54.50 C 787.81 53.96 761.99 59.11 736.00 61.98 C 735.86 51.01 736.30 40.04 735.89 29.08 C 720.97 28.67 706.05 29.35 691.15 28.89 C 691.05 23.62 690.96 18.35 690.88 13.08 C 678.27 12.78 665.67 13.12 653.07 12.97 C 658.86 -8.45 630.66 8.06 621.24 0.00 Z" />
</g>
<g id="#253d5bff">
<path fill="#253d5b" opacity="1.00" d=" M 804.05 0.00 L 858.07 0.00 C 857.33 2.44 860.32 8.63 856.21 7.79 C 838.90 5.99 821.48 7.64 804.13 6.88 C 804.07 5.40 803.94 2.44 803.87 0.95 L 804.05 0.00 Z" />
</g>
<g id="#837a7cff">
<path fill="#837a7c" opacity="1.00" d=" M 892.96 0.00 L 893.95 0.00 C 887.91 23.79 922.21 5.99 932.96 13.04 C 919.64 12.20 906.42 14.23 893.13 13.98 C 892.72 9.33 893.00 4.66 892.96 0.00 Z" />
</g>
<g id="#1a304eff">
<path fill="#1a304e" opacity="1.00" d=" M 893.95 0.00 L 957.21 0.00 C 955.36 9.17 956.21 18.58 955.91 27.86 C 948.33 28.40 940.71 28.06 933.15 27.91 C 932.71 22.97 933.13 17.99 932.96 13.04 C 922.21 5.99 887.91 23.79 893.95 0.00 Z" />
</g>
<g id="#586571ff">
<path fill="#586571" opacity="1.00" d=" M 741.04 1.11 C 747.72 0.65 757.42 -1.35 754.24 8.95 C 771.45 10.87 786.44 -1.12 803.87 0.95 C 803.94 2.44 804.07 5.40 804.13 6.88 C 821.48 7.64 838.90 5.99 856.21 7.79 C 834.32 8.24 812.42 7.95 790.53 7.87 C 790.57 8.44 790.66 9.58 790.71 10.15 C 767.80 9.84 744.90 10.04 722.00 10.02 C 727.34 5.72 746.59 15.46 741.04 1.11 Z" />
</g>
<g id="#8d8c93ff">
<path fill="#8d8c93" opacity="1.00" d=" M 150.98 2.14 C 151.54 18.07 180.61 2.79 187.99 10.95 C 161.59 10.65 135.26 11.99 108.89 12.58 C 97.02 11.57 85.11 12.13 73.22 11.98 C 72.86 11.50 72.14 10.53 71.79 10.04 C 98.16 10.24 124.49 8.46 150.88 8.91 C 150.90 7.22 150.96 3.83 150.98 2.14 Z" />
</g>
<g id="#33475aff">
<path fill="#33475a" opacity="1.00" d=" M 191.81 17.75 C 192.78 13.76 190.58 7.52 193.10 5.12 C 194.15 14.14 190.12 23.24 191.86 32.07 C 164.28 30.40 136.63 31.14 109.00 30.99 C 108.97 29.04 108.94 27.09 108.93 25.14 C 137.20 31.34 164.25 23.10 191.81 17.75 Z" />
</g>
<g id="#405167ff">
<path fill="#405167" opacity="1.00" d=" M 18.29 6.74 C 31.59 5.87 44.72 12.09 57.72 7.91 C 59.62 12.87 67.75 8.59 71.79 10.04 C 72.14 10.53 72.86 11.50 73.22 11.98 C 59.85 13.98 43.39 8.39 31.79 12.91 C 27.19 12.98 22.59 13.05 17.99 13.03 C 19.33 11.00 20.36 8.67 18.29 6.74 Z" />
</g>
<g id="#162941ff">
<path fill="#162941" opacity="1.00" d=" M 722.00 10.02 C 744.90 10.04 767.80 9.84 790.71 10.15 C 791.32 16.04 791.12 21.99 790.93 27.90 C 780.62 26.24 758.78 35.11 764.78 16.27 C 752.34 14.28 739.58 14.73 727.00 14.01 C 720.72 17.43 722.11 12.66 722.00 10.02 Z" />
</g>
<g id="#0a2146ff">
<path fill="#0a2146" opacity="1.00" d=" M 31.79 12.91 C 43.39 8.39 59.85 13.98 73.22 11.98 C 85.11 12.13 97.02 11.57 108.89 12.58 C 108.89 16.77 108.90 20.95 108.93 25.14 C 108.94 27.09 108.97 29.04 109.00 30.99 C 93.44 30.95 77.87 31.18 62.31 30.85 C 46.76 21.29 23.83 30.34 6.71 25.30 C 3.69 20.42 15.19 23.78 18.33 22.38 C 27.39 23.90 34.80 22.92 31.79 12.91 Z" />
</g>
<g id="#5e7da0ff">
<path fill="#5e7da0" opacity="1.00" d=" M 0.00 14.11 C 5.86 12.46 11.99 13.06 17.99 13.03 C 22.59 13.05 27.19 12.98 31.79 12.91 C 34.80 22.92 27.39 23.90 18.33 22.38 C 12.22 22.12 5.97 21.35 0.00 23.11 L 0.00 14.11 Z" />
</g>
<g id="#92785fff">
<path fill="#92785f" opacity="1.00" d=" M 653.07 12.97 C 665.67 13.12 678.27 12.78 690.88 13.08 C 690.96 18.35 691.05 23.62 691.15 28.89 C 706.05 29.35 720.97 28.67 735.89 29.08 C 736.30 40.04 735.86 51.01 736.00 61.98 L 735.00 62.05 C 734.94 51.41 735.20 40.76 734.89 30.11 C 719.96 29.66 705.03 30.33 690.12 29.92 C 690.02 24.65 689.94 19.38 689.90 14.11 C 677.93 12.97 663.54 15.64 653.07 12.97 Z" />
</g>
<g id="#54616bff">
<path fill="#54616b" opacity="1.00" d=" M 535.43 15.59 C 537.26 26.90 535.17 38.52 536.08 49.93 C 542.69 49.07 549.33 48.89 556.00 49.01 C 556.00 49.51 556.00 50.50 556.00 50.99 C 545.24 54.30 521.67 43.94 519.92 56.97 C 506.92 56.56 493.99 57.80 481.07 59.04 C 481.31 58.53 481.78 57.52 482.01 57.01 C 499.09 51.35 516.78 48.52 534.87 49.91 C 535.36 38.48 534.63 27.02 535.43 15.59 Z" />
</g>
<g id="#253a56ff">
<path fill="#253a56" opacity="1.00" d=" M 855.90 26.00 C 850.63 11.11 866.44 16.53 874.98 16.03 C 874.49 21.75 878.30 31.62 868.73 29.83 C 864.17 29.10 854.39 33.34 855.90 26.00 Z" />
</g>
<g id="#736e6dff">
<path fill="#736e6d" opacity="1.00" d=" M 874.98 16.03 C 877.80 18.20 874.94 25.25 876.12 28.87 C 894.14 29.38 912.19 28.65 930.23 29.20 C 919.92 29.14 907.80 27.42 913.02 41.96 C 926.92 44.50 944.63 42.25 960.00 43.00 L 960.00 43.98 C 944.00 43.99 928.00 44.05 912.01 43.98 C 912.05 39.36 912.02 34.73 911.92 30.11 C 897.52 29.71 883.11 30.22 868.73 29.83 C 878.30 31.62 874.49 21.75 874.98 16.03 Z" />
</g>
<g id="#0c2446ff">
<path fill="#0c2446" opacity="1.00" d=" M 349.99 34.91 C 350.52 27.85 346.57 14.53 358.68 19.38 C 383.33 21.10 408.19 19.30 432.91 20.08 C 433.05 33.53 433.35 47.00 432.68 60.44 C 424.45 65.60 413.47 63.24 404.22 64.45 C 405.87 57.21 398.50 58.98 393.49 58.50 C 393.14 55.35 393.18 52.19 392.89 49.04 C 380.39 46.19 363.21 48.91 349.16 47.06 C 349.72 43.03 350.05 38.98 349.99 34.91 Z" />
</g>
<g id="#314966ff">
<path fill="#314966" opacity="1.00" d=" M 0.00 23.11 C 5.97 21.35 12.22 22.12 18.33 22.38 C 15.19 23.78 3.69 20.42 6.71 25.30 C 23.83 30.34 46.76 21.29 62.31 30.85 C 57.20 32.65 48.04 27.88 44.62 32.89 C 31.42 33.83 18.25 31.83 5.07 32.10 C 3.50 42.30 2.48 53.43 15.22 50.23 C 10.15 50.63 5.08 51.09 0.00 51.06 L 0.00 23.11 Z" />
</g>
<g id="#aea7a6ff">
<path fill="#aea7a6" opacity="1.00" d=" M 573.53 48.60 C 574.68 42.07 573.80 35.34 574.83 28.78 C 574.90 35.38 574.89 41.99 575.42 48.58 C 601.52 46.90 627.73 47.22 653.88 46.42 C 665.97 47.39 678.12 46.86 690.25 47.23 C 663.02 49.55 635.60 49.05 608.41 51.49 C 607.64 61.63 607.85 71.82 608.13 81.98 C 620.16 80.10 632.14 85.13 643.84 80.36 C 664.01 81.62 684.13 77.98 704.30 77.45 C 744.90 75.92 785.76 77.19 826.42 77.47 C 789.08 81.45 750.91 80.88 714.09 87.88 C 677.35 84.38 635.71 85.68 597.13 85.13 C 603.81 85.25 601.88 77.90 602.26 72.76 C 603.95 76.53 599.58 86.77 607.61 84.22 C 606.75 73.18 607.17 62.12 606.90 51.08 C 589.93 50.77 572.96 51.15 556.00 50.99 C 556.00 50.50 556.00 49.51 556.00 49.01 C 561.83 48.95 567.69 49.15 573.53 48.60 Z" />
</g>
<g id="#142741ff">
<path fill="#142741" opacity="1.00" d=" M 930.23 29.20 C 938.86 24.87 939.57 37.92 930.60 35.62 C 940.31 36.92 950.21 35.54 960.00 35.99 L 960.00 43.00 C 944.63 42.25 926.92 44.50 913.02 41.96 C 907.80 27.42 919.92 29.14 930.23 29.20 Z" />
</g>
<g id="#7f808cff">
<path fill="#7f808c" opacity="1.00" d=" M 44.62 32.89 C 48.04 27.88 57.20 32.65 62.31 30.85 C 77.87 31.18 93.44 30.95 109.00 30.99 C 136.63 31.14 164.28 30.40 191.86 32.07 C 198.66 31.98 205.46 32.01 212.23 32.72 C 172.13 34.58 131.94 33.41 91.84 34.50 C 76.09 34.10 60.36 33.40 44.62 32.89 Z" />
</g>
<g id="#081a40ff">
<path fill="#081a40" opacity="1.00" d=" M 5.07 32.10 C 18.25 31.83 31.42 33.83 44.62 32.89 C 60.36 33.40 76.09 34.10 91.84 34.50 C 91.86 38.84 91.86 43.18 91.84 47.52 C 66.30 48.65 40.74 48.81 15.22 50.23 C 2.48 53.43 3.50 42.30 5.07 32.10 Z" />
</g>
<g id="#19314eff">
<path fill="#19314e" opacity="1.00" d=" M 815.10 32.12 C 823.87 34.71 845.17 25.54 844.84 37.76 C 847.18 48.16 839.41 46.67 832.67 47.90 C 858.12 48.21 883.57 47.85 909.03 48.05 C 908.93 53.11 909.16 58.19 908.71 63.24 C 898.56 62.67 888.33 63.73 878.24 62.49 C 878.14 60.65 878.08 58.80 877.90 56.96 C 858.17 54.42 835.13 57.54 814.09 54.50 C 816.25 47.30 814.35 39.51 815.10 32.12 Z" />
</g>
<g id="#a77f58ff">
<path fill="#a77f58" opacity="1.00" d=" M 91.84 34.50 C 131.94 33.41 172.13 34.58 212.23 32.72 C 216.78 32.49 229.32 31.76 223.74 38.86 C 199.25 39.10 174.58 39.25 150.96 46.45 C 131.27 47.29 111.50 46.99 91.84 47.52 C 91.86 43.18 91.86 38.84 91.84 34.50 Z" />
</g>
<g id="#31475eff">
<path fill="#31475e" opacity="1.00" d=" M 304.08 45.10 C 319.52 42.27 334.27 36.02 349.99 34.91 C 350.05 38.98 349.72 43.03 349.16 47.06 C 333.76 46.94 318.36 47.02 302.96 47.09 C 303.24 46.59 303.80 45.60 304.08 45.10 Z" />
</g>
<g id="#aba6a6ff">
<path fill="#aba6a6" opacity="1.00" d=" M 832.67 47.90 C 839.41 46.67 847.18 48.16 844.84 37.76 C 845.80 40.43 842.38 48.04 847.02 46.94 C 868.66 45.55 890.29 43.49 912.01 43.98 C 928.00 44.05 944.00 43.99 960.00 43.98 L 960.00 44.93 C 943.00 45.83 925.98 46.59 909.03 48.05 C 883.57 47.85 858.12 48.21 832.67 47.90 Z" />
</g>
<g id="#eec485ff">
<path fill="#eec485" opacity="1.00" d=" M 909.03 48.05 C 925.98 46.59 943.00 45.83 960.00 44.93 L 960.00 57.53 C 944.11 67.38 926.02 61.22 908.71 63.24 C 909.16 58.19 908.93 53.11 909.03 48.05 Z" />
</g>
<g id="#757d91ff">
<path fill="#757d91" opacity="1.00" d=" M 91.84 47.52 C 111.50 46.99 131.27 47.29 150.96 46.45 C 170.98 48.87 191.18 47.07 211.22 48.79 C 161.16 51.22 111.02 52.19 61.00 55.05 C 40.69 53.56 20.31 54.28 0.00 52.91 L 0.00 51.06 C 5.08 51.09 10.15 50.63 15.22 50.23 C 40.74 48.81 66.30 48.65 91.84 47.52 Z" />
</g>
<g id="#f3c97cff">
<path fill="#f3c97c" opacity="1.00" d=" M 690.25 47.23 C 705.65 41.28 700.60 56.85 701.16 66.03 L 700.72 66.73 C 700.02 67.77 699.35 68.83 698.69 69.89 C 679.65 69.60 661.36 73.22 643.84 80.36 C 632.14 85.13 620.16 80.10 608.13 81.98 C 607.85 71.82 607.64 61.63 608.41 51.49 C 635.60 49.05 663.02 49.55 690.25 47.23 Z" />
</g>
<g id="#b18f70ff">
<path fill="#b18f70" opacity="1.00" d=" M 61.00 55.05 C 111.02 52.19 161.16 51.22 211.22 48.79 C 211.69 48.83 212.62 48.92 213.09 48.97 C 213.03 51.70 212.92 57.16 212.87 59.89 C 196.18 60.63 179.42 59.03 162.77 60.64 C 162.38 61.73 162.03 62.84 161.73 63.96 C 128.16 61.88 94.58 61.82 61.00 62.95 C 61.00 60.32 61.00 57.68 61.00 55.05 Z" />
</g>
<g id="#b59575ff">
<path fill="#b59575" opacity="1.00" d=" M 271.01 52.13 C 311.65 51.32 352.24 49.20 392.89 49.04 C 393.18 52.19 393.14 55.35 393.49 58.50 C 398.50 58.98 405.87 57.21 404.22 64.45 C 363.28 67.01 322.04 63.00 281.00 65.05 C 276.83 63.14 264.01 69.22 266.03 61.11 C 279.96 59.08 298.31 64.35 309.92 58.92 C 299.53 57.75 283.37 60.11 271.05 58.92 C 271.04 57.22 271.02 53.83 271.01 52.13 Z" />
</g>
<g id="#0f2950ff">
<path fill="#0f2950" opacity="1.00" d=" M 214.10 51.06 C 232.76 50.30 251.33 52.67 269.99 52.06 C 269.98 53.79 269.97 57.23 269.96 58.95 C 251.33 59.57 232.60 57.92 214.03 59.90 C 213.96 56.95 213.81 54.00 214.10 51.06 Z" />
</g>
<g id="#172b47ff">
<path fill="#172b47" opacity="1.00" d=" M 519.92 56.97 C 521.67 43.94 545.24 54.30 556.00 50.99 C 572.96 51.15 589.93 50.77 606.90 51.08 C 607.17 62.12 606.75 73.18 607.61 84.22 C 599.58 86.77 603.95 76.53 602.26 72.76 C 602.06 67.50 602.22 62.23 601.91 56.97 C 576.33 55.63 546.98 57.95 519.92 56.97 Z" />
</g>
<g id="#0a2047ff">
<path fill="#0a2047" opacity="1.00" d=" M 0.00 52.91 C 20.31 54.28 40.69 53.56 61.00 55.05 C 61.00 57.68 61.00 60.32 61.00 62.95 C 40.69 64.40 20.29 64.36 0.00 66.12 L 0.00 52.91 Z" />
</g>
<g id="#9fa1a8ff">
<path fill="#9fa1a8" opacity="1.00" d=" M 736.00 61.98 C 761.99 59.11 787.81 53.96 814.09 54.50 C 835.13 57.54 858.17 54.42 877.90 56.96 C 860.37 58.02 842.54 60.57 825.55 64.81 C 843.13 64.74 860.63 62.55 878.24 62.49 C 888.33 63.73 898.56 62.67 908.71 63.24 C 926.02 61.22 944.11 67.38 960.00 57.53 L 960.00 63.89 C 940.24 65.43 920.41 66.48 900.70 68.66 C 882.21 71.40 861.75 64.76 844.92 71.00 C 796.81 69.81 748.77 69.07 700.72 66.73 L 701.16 66.03 C 712.50 65.26 723.72 63.34 735.00 62.05 L 736.00 61.98 Z" />
</g>
<g id="#e7bb82ff">
<path fill="#e7bb82" opacity="1.00" d=" M 515.21 64.00 C 543.99 60.92 572.96 58.09 601.91 56.97 C 602.22 62.23 602.06 67.50 602.26 72.76 C 601.88 77.90 603.81 85.25 597.13 85.13 C 596.70 89.76 597.34 94.54 596.19 99.10 C 582.06 99.58 567.74 99.67 553.82 102.23 C 546.76 103.73 539.54 104.06 532.35 104.17 C 529.24 101.30 525.03 103.01 521.35 103.54 C 519.68 97.16 529.73 94.69 525.05 89.05 C 522.05 85.59 525.02 72.39 517.79 74.67 C 510.83 76.32 510.49 67.06 515.21 64.00 Z" />
</g>
<g id="#ecc387ff">
<path fill="#ecc387" opacity="1.00" d=" M 825.55 64.81 C 842.54 60.57 860.37 58.02 877.90 56.96 C 878.08 58.80 878.14 60.65 878.24 62.49 C 860.63 62.55 843.13 64.74 825.55 64.81 Z" />
</g>
<g id="#10274aff">
<path fill="#10274a" opacity="1.00" d=" M 161.73 63.96 C 162.03 62.84 162.38 61.73 162.77 60.64 C 196.83 61.54 230.91 60.63 264.98 61.08 C 265.05 62.33 265.04 63.58 264.94 64.83 C 230.58 68.27 196.12 64.12 161.73 63.96 Z" />
</g>
<g id="#d5ab7bff">
<path fill="#d5ab7b" opacity="1.00" d=" M 476.12 67.24 C 489.11 65.84 502.12 63.96 515.21 64.00 C 510.49 67.06 510.83 76.32 517.79 74.67 C 525.02 72.39 522.05 85.59 525.05 89.05 C 529.73 94.69 519.68 97.16 521.35 103.54 C 525.03 103.01 529.24 101.30 532.35 104.17 C 513.64 106.02 494.94 108.27 476.15 109.16 C 476.04 105.51 476.01 101.87 475.78 98.23 C 476.04 87.90 475.83 77.56 476.12 67.24 Z" />
</g>
<g id="#e3b175ff">
<path fill="#e3b175" opacity="1.00" d=" M 900.70 68.66 C 920.41 66.48 940.24 65.43 960.00 63.89 L 960.00 71.09 C 940.26 69.43 920.33 71.21 900.70 68.66 Z" />
</g>
<g id="#b49472ff">
<path fill="#b49472" opacity="1.00" d=" M 317.95 69.01 C 354.52 69.05 392.24 64.57 428.06 67.69 C 426.07 78.34 427.49 89.19 426.90 99.93 C 411.59 100.90 396.37 98.51 381.08 99.03 C 378.16 96.99 376.55 92.73 372.43 93.20 C 375.35 85.19 364.55 80.85 361.37 88.48 C 348.99 84.25 334.39 71.77 319.59 74.54 C 315.93 74.63 317.46 71.27 317.95 69.01 Z" />
</g>
<g id="#0d274bff">
<path fill="#0d274b" opacity="1.00" d=" M 428.06 67.69 C 443.65 68.00 459.28 66.03 474.92 67.09 C 475.22 77.47 474.51 87.89 475.78 98.23 C 476.01 101.87 476.04 105.51 476.15 109.16 C 469.80 110.04 463.44 110.77 457.05 111.08 C 456.98 107.71 457.18 104.36 456.93 101.01 C 448.97 98.41 437.50 101.00 428.09 99.85 C 427.83 89.13 427.94 78.41 428.06 67.69 Z" />
</g>
<g id="#0d2345ff">
<path fill="#0d2345" opacity="1.00" d=" M 698.69 69.89 C 699.35 68.83 700.02 67.77 700.72 66.73 C 748.77 69.07 796.81 69.81 844.92 71.00 C 861.75 64.76 882.21 71.40 900.70 68.66 C 920.33 71.21 940.26 69.43 960.00 71.09 L 960.00 167.05 C 947.31 167.29 934.67 165.97 922.00 165.97 C 921.44 149.64 922.66 133.37 923.15 117.07 C 923.19 113.40 925.30 108.86 923.32 105.61 C 890.89 104.91 858.41 104.18 825.95 103.98 C 825.35 95.16 828.46 86.11 826.42 77.47 C 785.76 77.19 744.90 75.92 704.30 77.45 C 698.97 78.30 698.10 74.58 698.69 69.89 Z" />
</g>
<g id="#816c57ff">
<path fill="#816c57" opacity="1.00" d=" M 144.68 68.63 C 145.06 68.56 145.83 68.41 146.21 68.33 C 142.21 77.61 154.20 99.26 138.88 99.95 C 135.47 100.69 132.06 101.43 128.66 102.17 C 115.46 103.42 102.24 101.47 89.06 100.89 C 86.27 100.60 82.79 100.21 82.31 96.84 C 67.25 90.38 43.31 99.51 28.90 94.14 C 36.35 98.92 33.63 81.92 40.90 87.86 C 46.44 83.14 51.59 87.42 56.91 89.96 C 61.22 85.39 71.08 80.10 75.51 86.75 C 84.50 87.17 94.59 79.11 101.16 90.07 C 103.30 83.56 119.21 76.64 117.42 88.70 C 121.69 93.16 122.61 81.86 128.61 84.37 C 135.45 76.87 151.38 84.23 144.68 68.63 Z" />
</g>
<g id="#08244cff">
<path fill="#08244c" opacity="1.00" d=" M 146.21 68.33 C 186.10 67.63 226.05 70.19 265.99 70.02 C 265.80 79.60 266.47 89.23 265.84 98.80 C 224.06 101.58 181.92 102.39 139.99 104.12 C 136.89 102.61 130.19 106.52 128.66 102.17 C 132.06 101.43 135.47 100.69 138.88 99.95 C 154.20 99.26 142.21 77.61 146.21 68.33 Z" />
</g>
<g id="#6a7386ff">
<path fill="#6a7386" opacity="1.00" d=" M 426.90 99.93 C 427.49 89.19 426.07 78.34 428.06 67.69 C 427.94 78.41 427.83 89.13 428.09 99.85 C 437.50 101.00 448.97 98.41 456.93 101.01 C 450.06 100.95 443.13 100.63 436.40 102.28 C 421.01 101.52 405.69 103.49 390.34 104.12 C 354.40 105.26 318.76 107.91 282.97 109.19 C 280.76 103.64 272.97 103.63 268.49 100.27 C 305.85 96.82 343.58 97.27 381.08 99.03 C 396.37 98.51 411.59 100.90 426.90 99.93 Z" />
</g>
<g id="#9a7c5eff">
<path fill="#9a7c5e" opacity="1.00" d=" M 27.87 74.11 C 66.81 72.39 105.76 70.91 144.68 68.63 C 151.38 84.23 135.45 76.87 128.61 84.37 C 122.61 81.86 121.69 93.16 117.42 88.70 C 119.21 76.64 103.30 83.56 101.16 90.07 C 94.59 79.11 84.50 87.17 75.51 86.75 C 71.08 80.10 61.22 85.39 56.91 89.96 C 51.59 87.42 46.44 83.14 40.90 87.86 C 33.63 81.92 36.35 98.92 28.90 94.14 C 29.03 87.44 29.12 80.72 27.87 74.11 Z" />
</g>
<g id="#a0856dff">
<path fill="#a0856d" opacity="1.00" d=" M 267.00 70.02 C 284.00 70.57 300.95 68.61 317.95 69.01 C 317.46 71.27 315.93 74.63 319.59 74.54 C 334.39 71.77 348.99 84.25 361.37 88.48 C 364.55 80.85 375.35 85.19 372.43 93.20 C 376.55 92.73 378.16 96.99 381.08 99.03 C 343.58 97.27 305.85 96.82 268.49 100.27 C 265.05 91.57 267.71 79.95 267.00 70.02 Z" />
</g>
<g id="#50617eff">
<path fill="#50617e" opacity="1.00" d=" M 265.99 70.02 L 267.00 70.02 C 267.71 79.95 265.05 91.57 268.49 100.27 C 272.97 103.63 280.76 103.64 282.97 109.19 C 277.36 109.27 271.50 109.23 266.20 111.34 C 265.96 116.29 265.91 121.26 265.82 126.22 C 263.82 120.19 269.35 106.31 257.97 109.05 C 217.97 108.96 178.02 106.21 138.02 105.85 C 129.25 105.45 115.23 100.62 118.94 113.98 C 79.27 115.11 39.59 117.34 0.00 120.13 L 0.00 103.07 C 27.26 102.31 54.48 100.88 81.73 99.79 C 81.88 99.05 82.17 97.58 82.31 96.84 C 82.79 100.21 86.27 100.60 89.06 100.89 C 102.24 101.47 115.46 103.42 128.66 102.17 C 130.19 106.52 136.89 102.61 139.99 104.12 C 181.92 102.39 224.06 101.58 265.84 98.80 C 266.47 89.23 265.80 79.60 265.99 70.02 Z" />
</g>
<g id="#51636eff">
<path fill="#51636e" opacity="1.00" d=" M 643.84 80.36 C 661.36 73.22 679.65 69.60 698.69 69.89 C 698.10 74.58 698.97 78.30 704.30 77.45 C 684.13 77.98 664.01 81.62 643.84 80.36 Z" />
</g>
<g id="#0b2043ff">
<path fill="#0b2043" opacity="1.00" d=" M 0.00 72.90 C 9.28 73.60 18.57 74.04 27.87 74.11 C 29.12 80.72 29.03 87.44 28.90 94.14 C 43.31 99.51 67.25 90.38 82.31 96.84 C 82.17 97.58 81.88 99.05 81.73 99.79 C 54.48 100.88 27.26 102.31 0.00 103.07 L 0.00 72.90 Z" />
</g>
<g id="#f8cf88ff">
<path fill="#f8cf88" opacity="1.00" d=" M 714.09 87.88 C 750.91 80.88 789.08 81.45 826.42 77.47 C 828.46 86.11 825.35 95.16 825.95 103.98 C 788.57 102.02 751.51 107.78 714.22 108.20 C 714.06 101.42 713.90 94.65 714.09 87.88 Z" />
</g>
<g id="#0f2a4dff">
<path fill="#0f2a4d" opacity="1.00" d=" M 597.13 85.13 C 635.71 85.68 677.35 84.38 714.09 87.88 C 713.90 94.65 714.06 101.42 714.22 108.20 C 697.44 110.06 680.57 110.91 663.75 112.21 C 663.33 110.49 663.12 108.74 662.90 106.99 C 643.87 102.41 617.82 106.41 595.95 103.95 C 596.00 102.33 596.07 100.71 596.19 99.10 C 597.34 94.54 596.70 89.76 597.13 85.13 Z" />
</g>
<g id="#566b77ff">
<path fill="#566b77" opacity="1.00" d=" M 553.82 102.23 C 567.74 99.67 582.06 99.58 596.19 99.10 C 596.07 100.71 596.00 102.33 595.95 103.95 C 581.96 103.20 567.49 106.00 553.82 102.23 Z" />
</g>
<g id="#c69d6dff">
<path fill="#c69d6d" opacity="1.00" d=" M 436.40 102.28 C 443.13 100.63 450.06 100.95 456.93 101.01 C 457.18 104.36 456.98 107.71 457.05 111.08 C 456.97 114.04 456.98 117.03 457.00 120.00 C 456.82 129.67 457.33 139.36 456.94 149.03 C 435.74 153.53 413.32 151.71 391.85 155.55 C 373.62 156.70 355.44 154.27 337.20 154.90 C 322.09 155.91 333.82 143.13 340.22 140.48 C 346.53 141.07 354.60 149.40 355.30 138.29 C 360.16 138.84 361.26 132.58 365.55 133.23 C 368.47 144.10 374.51 130.08 378.16 126.08 C 382.71 121.79 384.04 130.72 385.24 133.86 C 387.54 139.54 387.34 129.02 390.89 129.44 C 396.82 131.06 395.14 122.48 397.13 119.15 C 399.55 120.39 401.54 122.28 403.75 123.84 C 405.39 114.81 412.48 105.46 422.63 107.54 C 426.72 104.29 431.83 104.13 436.40 102.28 Z" />
</g>
<g id="#af8c69ff">
<path fill="#af8c69" opacity="1.00" d=" M 390.34 104.12 C 405.69 103.49 421.01 101.52 436.40 102.28 C 431.83 104.13 426.72 104.29 422.63 107.54 C 412.48 105.46 405.39 114.81 403.75 123.84 C 401.54 122.28 399.55 120.39 397.13 119.15 C 395.14 122.48 396.82 131.06 390.89 129.44 C 387.34 129.02 387.54 139.54 385.24 133.86 C 384.04 130.72 382.71 121.79 378.16 126.08 C 374.51 130.08 368.47 144.10 365.55 133.23 C 361.26 132.58 360.16 138.84 355.30 138.29 C 354.60 149.40 346.53 141.07 340.22 140.48 C 333.82 143.13 322.09 155.91 337.20 154.90 C 314.67 155.04 292.08 156.75 269.73 159.33 C 268.47 159.19 267.22 159.06 265.97 158.94 C 266.02 156.06 266.08 153.21 266.21 150.34 C 269.92 139.08 280.76 132.36 291.53 130.50 C 297.22 137.84 301.36 125.39 306.89 127.97 C 313.81 132.86 313.32 118.61 319.52 120.29 C 322.79 127.12 328.98 119.60 334.65 120.74 C 337.07 115.30 343.61 113.13 347.62 118.37 C 349.74 121.94 353.18 119.04 354.09 116.06 C 360.31 116.69 373.34 114.91 378.57 106.54 C 381.69 102.59 388.72 110.90 390.34 104.12 Z" />
</g>
<g id="#9398a4ff">
<path fill="#9398a4" opacity="1.00" d=" M 532.35 104.17 C 539.54 104.06 546.76 103.73 553.82 102.23 C 567.49 106.00 581.96 103.20 595.95 103.95 C 617.82 106.41 643.87 102.41 662.90 106.99 C 639.71 108.49 615.37 107.76 593.11 115.12 C 594.76 112.20 593.41 111.50 589.04 113.04 C 566.13 115.90 543.13 117.89 520.17 120.31 C 522.45 126.11 514.31 142.72 524.07 142.14 C 522.69 142.64 521.27 143.04 519.87 143.46 C 518.72 136.07 519.21 128.58 518.87 121.15 C 498.26 120.05 477.64 119.72 457.00 120.00 C 456.98 117.03 456.97 114.04 457.05 111.08 C 463.44 110.77 469.80 110.04 476.15 109.16 C 494.94 108.27 513.64 106.02 532.35 104.17 Z" />
</g>
<g id="#957c66ff">
<path fill="#957c66" opacity="1.00" d=" M 282.97 109.19 C 318.76 107.91 354.40 105.26 390.34 104.12 C 388.72 110.90 381.69 102.59 378.57 106.54 C 373.34 114.91 360.31 116.69 354.09 116.06 C 353.18 119.04 349.74 121.94 347.62 118.37 C 343.61 113.13 337.07 115.30 334.65 120.74 C 328.98 119.60 322.79 127.12 319.52 120.29 C 313.32 118.61 313.81 132.86 306.89 127.97 C 301.36 125.39 297.22 137.84 291.53 130.50 C 280.76 132.36 269.92 139.08 266.21 150.34 C 266.06 142.30 266.02 134.26 265.82 126.22 C 265.91 121.26 265.96 116.29 266.20 111.34 C 271.50 109.23 277.36 109.27 282.97 109.19 Z" />
</g>
<g id="#aeacb0ff">
<path fill="#aeacb0" opacity="1.00" d=" M 714.22 108.20 C 751.51 107.78 788.57 102.02 825.95 103.98 C 858.41 104.18 890.89 104.91 923.32 105.61 C 883.60 107.53 844.03 111.83 804.35 114.37 C 800.10 114.11 799.32 117.57 799.24 121.26 C 799.15 119.73 798.96 116.66 798.86 115.13 C 753.88 114.29 708.90 113.86 663.93 113.04 L 663.75 112.21 C 680.57 110.91 697.44 110.06 714.22 108.20 Z" />
</g>
<g id="#051c47ff">
<path fill="#051c47" opacity="1.00" d=" M 118.94 113.98 C 115.23 100.62 129.25 105.45 138.02 105.85 C 178.02 106.21 217.97 108.96 257.97 109.05 C 269.35 106.31 263.82 120.19 265.82 126.22 C 266.02 134.26 266.06 142.30 266.21 150.34 C 266.08 153.21 266.02 156.06 265.97 158.94 C 236.98 160.88 208.00 163.21 179.00 165.08 C 176.96 155.70 185.32 136.00 170.23 138.73 C 153.59 137.63 136.91 137.40 120.26 136.80 C 119.92 134.44 119.62 132.07 119.37 129.70 C 119.16 124.45 119.00 119.22 118.94 113.98 Z" />
</g>
<g id="#f7c685ff">
<path fill="#f7c685" opacity="1.00" d=" M 804.35 114.37 C 844.03 111.83 883.60 107.53 923.32 105.61 C 925.30 108.86 923.19 113.40 923.15 117.07 C 908.78 117.50 894.49 119.66 880.24 121.34 C 854.66 133.05 828.99 144.62 803.48 156.47 C 794.71 162.21 800.47 144.81 798.77 139.76 C 798.93 133.59 798.98 127.42 799.24 121.26 C 799.32 117.57 800.10 114.11 804.35 114.37 Z" />
</g>
<g id="#39586cff">
<path fill="#39586c" opacity="1.00" d=" M 593.11 115.12 C 615.37 107.76 639.71 108.49 662.90 106.99 C 663.12 108.74 663.33 110.49 663.75 112.21 L 663.93 113.04 C 662.22 113.07 658.80 113.12 657.09 113.14 C 656.99 125.70 656.69 138.29 657.13 150.84 C 661.84 151.08 666.66 150.72 671.33 151.66 C 635.25 152.69 599.05 147.42 563.18 153.22 C 548.51 154.87 533.79 156.13 519.15 158.01 C 519.97 153.20 520.10 148.32 519.87 143.46 C 521.27 143.04 522.69 142.64 524.07 142.14 C 547.07 133.11 570.01 123.89 593.11 115.12 Z" />
</g>
<g id="#e0b57bff">
<path fill="#e0b57b" opacity="1.00" d=" M 520.17 120.31 C 543.13 117.89 566.13 115.90 589.04 113.04 C 593.41 111.50 594.76 112.20 593.11 115.12 C 570.01 123.89 547.07 133.11 524.07 142.14 C 514.31 142.72 522.45 126.11 520.17 120.31 Z" />
</g>
<g id="#0c244aff">
<path fill="#0c244a" opacity="1.00" d=" M 657.09 113.14 C 658.80 113.12 662.22 113.07 663.93 113.04 C 708.90 113.86 753.88 114.29 798.86 115.13 C 798.96 116.66 799.15 119.73 799.24 121.26 C 798.98 127.42 798.93 133.59 798.77 139.76 C 797.20 152.49 799.46 165.28 797.95 178.05 C 785.17 179.34 772.49 181.43 759.74 182.95 C 763.18 178.87 768.69 164.43 758.14 167.82 C 753.79 167.78 757.18 149.45 751.63 158.92 C 750.98 149.86 746.10 159.41 741.16 159.25 C 743.92 148.76 731.79 153.99 725.77 153.12 C 707.60 153.40 689.49 151.68 671.33 151.66 C 666.66 150.72 661.84 151.08 657.13 150.84 C 656.69 138.29 656.99 125.70 657.09 113.14 Z" />
</g>
<g id="#756861ff">
<path fill="#756861" opacity="1.00" d=" M 0.00 120.13 C 39.59 117.34 79.27 115.11 118.94 113.98 C 119.00 119.22 119.16 124.45 119.37 129.70 C 119.24 131.52 119.00 135.16 118.87 136.99 C 79.25 135.78 39.64 132.54 0.00 133.00 L 0.00 120.13 Z" />
</g>
<g id="#456277ff">
<path fill="#456277" opacity="1.00" d=" M 880.24 121.34 C 894.49 119.66 908.78 117.50 923.15 117.07 C 922.66 133.37 921.44 149.64 922.00 165.97 C 880.31 164.10 839.33 174.27 797.95 178.05 C 799.46 165.28 797.20 152.49 798.77 139.76 C 800.47 144.81 794.71 162.21 803.48 156.47 C 828.99 144.62 854.66 133.05 880.24 121.34 Z" />
</g>
<g id="#091b3aff">
<path fill="#091b3a" opacity="1.00" d=" M 457.00 120.00 C 477.64 119.72 498.26 120.05 518.87 121.15 C 519.21 128.58 518.72 136.07 519.87 143.46 C 520.10 148.32 519.97 153.20 519.15 158.01 C 511.42 158.48 503.75 159.84 495.99 159.93 C 494.47 159.06 493.00 157.98 491.24 157.70 C 479.52 156.29 467.71 157.22 455.95 156.99 C 456.25 154.32 456.70 151.69 456.94 149.03 C 457.33 139.36 456.82 129.67 457.00 120.00 Z" />
</g>
<g id="#56657eff">
<path fill="#56657e" opacity="1.00" d=" M 119.37 129.70 C 119.62 132.07 119.92 134.44 120.26 136.80 C 136.91 137.40 153.59 137.63 170.23 138.73 C 113.50 140.86 56.67 140.52 0.00 143.16 L 0.00 133.00 C 39.64 132.54 79.25 135.78 118.87 136.99 C 119.00 135.16 119.24 131.52 119.37 129.70 Z" />
</g>
<g id="#6b6461ff">
<path fill="#6b6461" opacity="1.00" d=" M 0.00 143.16 C 56.67 140.52 113.50 140.86 170.23 138.73 C 185.32 136.00 176.96 155.70 179.00 165.08 C 145.92 167.70 112.62 168.62 79.68 172.65 C 67.45 174.01 77.01 194.55 74.01 203.91 C 66.84 209.69 71.88 190.31 72.98 185.29 C 67.02 186.42 61.15 184.46 55.24 184.34 C 39.14 190.94 21.17 192.57 6.36 202.36 C 4.46 203.74 2.17 203.89 0.00 203.08 L 0.00 143.16 Z" />
</g>
<g id="#425463ff">
<path fill="#425463" opacity="1.00" d=" M 391.85 155.55 C 413.32 151.71 435.74 153.53 456.94 149.03 C 456.70 151.69 456.25 154.32 455.95 156.99 C 434.58 156.92 413.21 155.93 391.85 155.55 Z" />
</g>
<g id="#88a0b9ff">
<path fill="#88a0b9" opacity="1.00" d=" M 563.18 153.22 C 599.05 147.42 635.25 152.69 671.33 151.66 C 689.49 151.68 707.60 153.40 725.77 153.12 C 728.62 153.48 731.61 153.84 734.45 154.53 C 720.21 156.16 705.92 157.55 691.78 159.93 C 673.11 161.54 654.50 163.97 635.93 166.49 C 635.47 166.58 634.56 166.74 634.10 166.82 C 626.28 167.44 618.43 168.06 610.77 169.82 C 599.12 170.59 587.49 172.06 576.00 174.08 C 548.96 172.62 521.67 173.31 494.78 170.73 C 494.77 167.09 494.69 163.38 495.99 159.93 C 503.75 159.84 511.42 158.48 519.15 158.01 C 533.79 156.13 548.51 154.87 563.18 153.22 Z" />
</g>
<g id="#6f6f68ff">
<path fill="#6f6f68" opacity="1.00" d=" M 725.77 153.12 C 731.79 153.99 743.92 148.76 741.16 159.25 C 741.51 170.93 740.19 182.54 739.92 194.20 C 735.50 194.96 735.37 190.24 733.28 187.66 C 729.94 183.46 728.50 192.44 724.85 192.66 C 717.61 193.87 712.81 200.09 712.25 207.30 C 709.03 209.24 709.57 200.30 705.42 202.13 C 704.03 209.63 699.41 219.38 690.40 218.38 C 682.92 216.66 674.62 227.44 671.07 215.95 C 665.59 222.97 658.78 214.37 653.97 211.06 C 652.02 205.01 655.96 195.24 648.52 191.42 C 635.22 195.02 621.18 175.90 634.10 166.82 C 634.56 166.74 635.47 166.58 635.93 166.49 C 641.06 182.14 657.48 187.91 667.03 202.15 C 674.78 190.98 681.86 209.25 691.19 207.35 C 707.00 198.50 705.05 170.98 691.78 159.93 C 705.92 157.55 720.21 156.16 734.45 154.53 C 731.61 153.84 728.62 153.48 725.77 153.12 Z" />
</g>
<g id="#081939ff">
<path fill="#081939" opacity="1.00" d=" M 741.16 159.25 C 746.10 159.41 750.98 149.86 751.63 158.92 C 757.18 149.45 753.79 167.78 758.14 167.82 C 768.69 164.43 763.18 178.87 759.74 182.95 C 755.33 183.48 750.85 183.49 746.54 184.58 C 805.25 188.33 864.24 187.99 922.99 191.05 C 923.38 203.78 921.81 216.47 922.09 229.21 C 908.13 233.27 893.51 234.92 879.80 239.76 C 871.37 247.86 877.88 260.69 875.62 270.61 C 872.87 269.53 869.86 268.35 867.48 270.90 C 874.19 269.81 872.65 287.06 868.00 279.00 C 864.80 287.64 851.83 283.04 854.27 294.30 C 852.79 280.72 856.84 266.88 854.38 253.46 C 815.92 252.07 777.44 251.08 739.01 248.96 C 738.97 244.62 739.01 240.29 738.97 235.96 C 738.97 235.23 738.97 233.78 738.97 233.05 C 739.45 220.10 740.55 207.17 739.92 194.20 C 740.19 182.54 741.51 170.93 741.16 159.25 Z" />
</g>
<g id="#7388a3ff">
<path fill="#7388a3" opacity="1.00" d=" M 269.73 159.33 C 292.08 156.75 314.67 155.04 337.20 154.90 C 355.44 154.27 373.62 156.70 391.85 155.55 C 413.21 155.93 434.58 156.92 455.95 156.99 C 467.71 157.22 479.52 156.29 491.24 157.70 C 476.69 160.20 461.66 159.18 447.24 162.14 C 423.89 162.96 400.59 165.49 377.37 167.78 C 343.47 170.47 309.46 172.25 275.70 176.34 C 269.79 176.25 263.90 176.75 258.02 177.07 C 256.16 176.96 252.45 176.76 250.59 176.66 C 266.80 171.14 285.30 172.89 300.07 164.03 C 290.27 160.51 279.12 164.06 269.73 159.33 Z" />
</g>
<g id="#9d8368ff">
<path fill="#9d8368" opacity="1.00" d=" M 447.24 162.14 C 461.66 159.18 476.69 160.20 491.24 157.70 C 493.00 157.98 494.47 159.06 495.99 159.93 C 494.69 163.38 494.77 167.09 494.78 170.73 C 495.29 178.24 493.75 185.56 488.31 191.00 C 481.51 183.84 471.06 189.79 463.08 188.91 C 459.22 184.19 454.09 188.20 449.18 188.00 C 442.61 183.22 438.61 175.50 435.98 168.09 C 438.07 164.43 443.83 164.61 447.24 162.14 Z" />
</g>
<g id="#597495ff">
<path fill="#597495" opacity="1.00" d=" M 179.00 165.08 C 208.00 163.21 236.98 160.88 265.97 158.94 C 267.22 159.06 268.47 159.19 269.73 159.33 C 279.12 164.06 290.27 160.51 300.07 164.03 C 285.30 172.89 266.80 171.14 250.59 176.66 C 193.62 176.78 136.65 173.98 79.68 172.65 C 112.62 168.62 145.92 167.70 179.00 165.08 Z" />
</g>
<g id="#8b7c6bff">
<path fill="#8b7c6b" opacity="1.00" d=" M 635.93 166.49 C 654.50 163.97 673.11 161.54 691.78 159.93 C 705.05 170.98 707.00 198.50 691.19 207.35 C 681.86 209.25 674.78 190.98 667.03 202.15 C 657.48 187.91 641.06 182.14 635.93 166.49 Z" />
</g>
<g id="#7f7265ff">
<path fill="#7f7265" opacity="1.00" d=" M 377.37 167.78 C 400.59 165.49 423.89 162.96 447.24 162.14 C 443.83 164.61 438.07 164.43 435.98 168.09 C 438.61 175.50 442.61 183.22 449.18 188.00 C 454.09 188.20 459.22 184.19 463.08 188.91 C 471.06 189.79 481.51 183.84 488.31 191.00 C 493.75 185.56 495.29 178.24 494.78 170.73 C 495.00 179.74 495.11 188.76 494.81 197.78 C 494.45 200.77 494.11 203.79 493.84 206.81 C 491.96 210.48 489.97 214.08 485.90 210.99 C 476.13 216.77 468.63 226.88 459.06 233.09 C 453.75 235.37 445.99 232.15 445.90 225.85 C 439.88 220.90 438.04 212.57 432.25 207.66 C 427.76 204.10 427.72 215.14 423.53 210.55 C 420.05 213.15 417.85 222.42 410.91 219.50 C 406.27 223.92 398.98 228.98 392.37 224.92 C 396.00 219.15 389.43 218.35 385.74 221.42 C 373.53 220.14 379.95 234.74 372.64 239.80 C 368.44 238.14 363.63 237.99 361.52 242.59 C 355.71 248.00 351.63 236.94 345.49 239.33 C 336.19 248.66 321.81 253.79 316.82 266.81 C 307.24 266.81 309.41 280.22 303.19 285.17 C 292.11 290.48 281.96 297.99 269.89 301.07 C 274.74 296.62 281.91 296.05 286.76 291.78 C 286.81 269.94 310.43 261.91 320.49 245.56 C 331.46 242.79 325.80 223.92 340.04 226.03 C 350.52 225.63 357.07 213.33 366.22 215.21 C 368.65 213.48 369.92 203.88 372.43 208.53 C 372.28 219.08 378.32 205.97 382.57 206.41 C 384.70 206.95 388.31 209.70 389.54 206.62 C 392.30 198.64 400.95 195.14 405.35 188.31 C 406.99 182.19 407.44 175.74 407.60 169.41 C 397.74 168.64 385.53 176.30 377.37 167.78 Z" />
</g>
<g id="#8fa8c1ff">
<path fill="#8fa8c1" opacity="1.00" d=" M 797.95 178.05 C 839.33 174.27 880.31 164.10 922.00 165.97 C 934.67 165.97 947.31 167.29 960.00 167.05 L 960.00 185.12 C 947.69 187.26 935.17 188.18 922.99 191.05 C 864.24 187.99 805.25 188.33 746.54 184.58 C 750.85 183.49 755.33 183.48 759.74 182.95 C 772.49 181.43 785.17 179.34 797.95 178.05 Z" />
</g>
<g id="#566267ff">
<path fill="#566267" opacity="1.00" d=" M 610.77 169.82 C 618.43 168.06 626.28 167.44 634.10 166.82 C 621.18 175.90 635.22 195.02 648.52 191.42 C 655.96 195.24 652.02 205.01 653.97 211.06 C 658.78 214.37 665.59 222.97 671.07 215.95 C 674.62 227.44 682.92 216.66 690.40 218.38 C 699.41 219.38 704.03 209.63 705.42 202.13 C 709.57 200.30 709.03 209.24 712.25 207.30 C 712.81 200.09 717.61 193.87 724.85 192.66 C 728.50 192.44 729.94 183.46 733.28 187.66 C 735.37 190.24 735.50 194.96 739.92 194.20 C 740.55 207.17 739.45 220.10 738.97 233.05 C 720.72 237.84 734.10 215.42 730.76 207.25 C 725.31 203.83 727.18 219.72 719.14 216.23 C 711.90 219.03 720.44 225.79 718.59 230.51 C 713.59 232.56 712.81 223.81 708.63 222.29 C 702.97 218.43 700.98 224.63 697.78 227.72 C 688.48 234.72 676.39 222.07 667.87 230.00 C 663.01 225.88 658.86 219.89 653.43 226.63 C 650.86 220.94 646.38 216.57 642.52 211.86 C 644.35 206.41 643.09 198.10 638.16 206.08 C 636.21 198.45 633.58 195.41 627.92 203.21 C 619.44 195.57 618.76 183.72 611.53 175.33 C 610.43 173.68 610.67 171.68 610.77 169.82 Z" />
</g>
<g id="#947b64ff">
<path fill="#947b64" opacity="1.00" d=" M 275.70 176.34 C 309.46 172.25 343.47 170.47 377.37 167.78 C 385.53 176.30 397.74 168.64 407.60 169.41 C 407.44 175.74 406.99 182.19 405.35 188.31 C 400.95 195.14 392.30 198.64 389.54 206.62 C 388.31 209.70 384.70 206.95 382.57 206.41 C 378.32 205.97 372.28 219.08 372.43 208.53 C 369.92 203.88 368.65 213.48 366.22 215.21 C 357.07 213.33 350.52 225.63 340.04 226.03 C 325.80 223.92 331.46 242.79 320.49 245.56 C 310.43 261.91 286.81 269.94 286.76 291.78 C 281.91 296.05 274.74 296.62 269.89 301.07 C 266.67 302.57 263.36 303.88 260.04 305.17 C 260.00 303.83 259.97 302.49 259.95 301.16 C 272.31 297.59 271.95 283.11 281.49 276.44 C 290.54 264.91 298.10 250.06 311.94 243.86 C 315.34 234.79 323.49 228.24 325.33 218.54 C 325.85 212.18 327.69 205.79 331.84 200.84 C 332.60 194.79 324.90 192.83 320.83 191.91 C 316.01 197.66 309.09 188.68 317.99 188.76 C 313.69 187.61 312.57 184.83 314.96 181.09 C 302.65 175.25 288.90 179.11 275.70 176.34 Z" />
</g>
<g id="#42535dff">
<path fill="#42535d" opacity="1.00" d=" M 576.00 174.08 C 587.49 172.06 599.12 170.59 610.77 169.82 C 610.67 171.68 610.43 173.68 611.53 175.33 C 618.76 183.72 619.44 195.57 627.92 203.21 C 633.58 195.41 636.21 198.45 638.16 206.08 C 643.09 198.10 644.35 206.41 642.52 211.86 C 646.38 216.57 650.86 220.94 653.43 226.63 C 658.86 219.89 663.01 225.88 667.87 230.00 C 676.39 222.07 688.48 234.72 697.78 227.72 C 700.98 224.63 702.97 218.43 708.63 222.29 C 712.81 223.81 713.59 232.56 718.59 230.51 C 720.44 225.79 711.90 219.03 719.14 216.23 C 727.18 219.72 725.31 203.83 730.76 207.25 C 734.10 215.42 720.72 237.84 738.97 233.05 C 738.97 233.78 738.97 235.23 738.97 235.96 C 732.70 238.40 725.83 238.09 719.30 237.13 C 715.34 248.96 702.59 233.05 695.91 240.93 C 684.30 241.27 671.71 239.31 660.40 237.58 C 656.62 240.84 650.61 243.28 646.01 240.96 C 642.54 236.93 638.87 229.69 632.71 233.73 C 619.56 239.79 618.93 220.97 622.00 212.94 C 616.56 214.70 607.49 217.15 608.95 225.02 C 609.47 229.73 601.42 228.02 600.81 224.14 C 598.40 217.64 591.13 230.10 588.31 223.69 C 585.47 217.89 579.65 221.15 575.03 222.24 C 574.98 216.79 574.84 211.34 575.42 205.93 C 576.44 195.34 575.93 184.69 576.00 174.08 Z" />
</g>
<g id="#061634ff">
<path fill="#061634" opacity="1.00" d=" M 494.78 170.73 C 521.67 173.31 548.96 172.62 576.00 174.08 C 575.93 184.69 576.44 195.34 575.42 205.93 C 571.20 203.33 573.59 213.65 570.36 212.20 C 566.24 209.39 564.43 218.40 559.89 214.45 C 555.73 216.18 549.50 222.07 547.42 214.47 C 537.50 210.88 526.00 217.22 516.31 211.41 C 512.65 220.60 502.00 208.33 499.04 217.09 C 497.02 226.01 501.01 236.71 494.12 244.27 C 494.47 228.77 495.65 213.29 494.81 197.78 C 495.11 188.76 495.00 179.74 494.78 170.73 Z" />
</g>
<g id="#081f45ff">
<path fill="#081f45" opacity="1.00" d=" M 74.01 203.91 C 77.01 194.55 67.45 174.01 79.68 172.65 C 136.65 173.98 193.62 176.78 250.59 176.66 C 252.45 176.76 256.16 176.96 258.02 177.07 C 258.51 190.12 256.92 203.34 258.70 216.31 C 259.04 222.94 258.98 229.58 258.86 236.22 C 257.39 233.50 260.07 226.17 257.06 225.07 C 256.53 234.75 240.46 225.65 234.82 223.30 C 230.48 219.39 221.95 221.13 224.61 213.32 C 224.52 205.33 213.26 211.07 211.55 204.26 C 194.64 200.56 178.44 205.32 162.15 204.13 C 156.65 202.65 157.61 213.30 153.70 208.21 C 149.89 205.55 151.14 213.48 148.99 215.11 C 137.84 220.93 140.90 195.08 129.25 201.30 C 125.71 205.78 114.23 200.21 116.32 207.60 C 121.37 213.27 125.23 219.03 123.88 226.97 C 107.28 225.76 90.52 227.05 74.01 224.89 C 73.99 217.89 74.01 210.90 74.01 203.91 Z" />
</g>
<g id="#ae8760ff">
<path fill="#ae8760" opacity="1.00" d=" M 258.02 177.07 C 263.90 176.75 269.79 176.25 275.70 176.34 C 288.90 179.11 302.65 175.25 314.96 181.09 C 312.57 184.83 313.69 187.61 317.99 188.76 C 309.09 188.68 316.01 197.66 320.83 191.91 C 324.90 192.83 332.60 194.79 331.84 200.84 C 327.69 205.79 325.85 212.18 325.33 218.54 C 323.49 228.24 315.34 234.79 311.94 243.86 C 298.10 250.06 290.54 264.91 281.49 276.44 C 271.95 283.11 272.31 297.59 259.95 301.16 C 259.75 299.56 259.34 296.36 259.14 294.76 C 259.03 289.37 259.07 284.00 258.79 278.63 C 258.96 272.30 259.01 265.98 259.16 259.67 C 263.07 269.33 266.22 260.31 271.75 256.74 C 276.15 249.81 282.83 244.41 285.40 236.38 C 285.99 232.79 292.43 230.69 289.07 227.03 C 292.13 224.04 295.60 216.77 300.26 220.96 C 304.80 216.73 295.46 212.40 299.65 206.91 C 295.47 191.29 276.05 179.08 259.51 183.63 C 258.40 194.47 259.32 205.43 258.70 216.31 C 256.92 203.34 258.51 190.12 258.02 177.07 Z" />
</g>
<g id="#ca9965ff">
<path fill="#ca9965" opacity="1.00" d=" M 259.51 183.63 C 276.05 179.08 295.47 191.29 299.65 206.91 C 295.46 212.40 304.80 216.73 300.26 220.96 C 295.60 216.77 292.13 224.04 289.07 227.03 C 292.43 230.69 285.99 232.79 285.40 236.38 C 282.83 244.41 276.15 249.81 271.75 256.74 C 266.22 260.31 263.07 269.33 259.16 259.67 C 258.97 251.85 259.01 244.03 258.86 236.22 C 258.98 229.58 259.04 222.94 258.70 216.31 C 259.32 205.43 258.40 194.47 259.51 183.63 Z" />
</g>
<g id="#8a7460ff">
<path fill="#8a7460" opacity="1.00" d=" M 6.36 202.36 C 21.17 192.57 39.14 190.94 55.24 184.34 C 61.15 184.46 67.02 186.42 72.98 185.29 C 71.88 190.31 66.84 209.69 74.01 203.91 C 74.01 210.90 73.99 217.89 74.01 224.89 C 49.32 225.41 24.68 223.39 0.00 222.99 L 0.00 203.08 C 2.17 203.89 4.46 203.74 6.36 202.36 Z" />
</g>
<g id="#a7845bff">
<path fill="#a7845b" opacity="1.00" d=" M 922.99 191.05 C 935.17 188.18 947.69 187.26 960.00 185.12 L 960.00 220.92 C 947.24 223.15 934.88 227.18 922.09 229.21 C 921.81 216.47 923.38 203.78 922.99 191.05 Z" />
</g>
<g id="#274055ff">
<path fill="#274055" opacity="1.00" d=" M 493.84 206.81 C 494.11 203.79 494.45 200.77 494.81 197.78 C 495.65 213.29 494.47 228.77 494.12 244.27 C 493.85 256.89 493.99 269.51 494.10 282.13 C 480.82 284.98 467.51 287.79 454.13 290.11 C 448.22 289.77 444.86 294.28 443.12 299.30 C 439.79 292.72 436.49 301.10 431.27 300.26 C 426.36 303.60 420.60 305.42 418.47 311.56 C 412.72 312.00 401.26 304.33 398.74 313.60 C 399.92 325.81 386.15 317.64 380.42 323.42 C 376.87 330.59 367.53 321.47 365.86 328.92 C 355.40 333.63 343.33 330.80 334.47 323.55 C 323.97 325.97 315.33 330.93 307.99 339.03 C 304.28 336.09 305.59 329.51 302.02 325.95 C 297.62 322.11 295.85 332.26 294.48 334.61 C 289.07 336.69 283.56 335.05 278.10 334.55 C 275.35 339.86 266.43 341.01 269.73 348.14 C 259.26 351.56 265.22 341.92 260.11 339.66 C 260.02 336.51 260.07 333.43 259.89 330.31 C 259.86 323.78 258.92 317.23 260.06 310.75 C 265.46 312.15 266.51 324.48 271.89 312.85 C 270.22 302.17 281.92 303.65 289.00 302.22 C 290.54 305.33 285.80 315.42 291.78 313.87 C 295.50 308.48 290.02 289.98 300.95 295.96 C 307.97 297.95 301.62 309.17 308.93 311.02 C 311.52 306.19 309.54 297.86 317.82 298.39 C 323.00 299.31 317.46 294.12 316.19 292.23 C 320.21 289.51 324.90 287.55 329.55 289.97 C 328.06 282.28 336.53 282.22 340.91 284.27 C 340.33 287.50 338.07 290.68 340.29 293.94 C 345.13 295.73 346.66 282.63 350.43 288.59 C 348.66 292.82 351.39 296.20 352.34 300.69 C 354.68 305.13 345.47 303.19 346.97 307.92 C 352.00 306.91 358.27 308.18 361.84 303.85 C 364.02 297.31 362.01 289.98 364.76 283.51 C 368.39 288.05 367.85 297.52 376.04 295.02 C 371.78 287.11 380.21 284.80 384.06 278.99 C 384.30 284.61 384.38 289.93 388.28 294.54 C 389.81 293.96 390.66 282.10 395.43 287.57 C 402.49 293.17 396.96 279.15 403.04 277.87 C 408.17 271.45 414.82 278.94 416.75 284.05 C 422.12 281.31 427.22 278.46 430.75 273.54 C 436.90 269.30 439.36 275.58 440.98 280.58 C 449.41 274.95 434.53 260.42 445.66 259.15 C 453.46 255.00 454.94 265.46 461.53 263.74 C 476.95 266.54 474.57 248.21 473.77 238.80 C 476.75 233.94 483.75 239.42 487.93 241.16 C 489.91 238.39 491.69 235.47 493.93 232.88 C 494.31 224.19 494.00 215.49 493.84 206.81 Z" />
</g>
<g id="#071638ff">
<path fill="#071638" opacity="1.00" d=" M 129.25 201.30 C 140.90 195.08 137.84 220.93 148.99 215.11 C 151.14 213.48 149.89 205.55 153.70 208.21 C 157.61 213.30 156.65 202.65 162.15 204.13 C 178.44 205.32 194.64 200.56 211.55 204.26 C 213.26 211.07 224.52 205.33 224.61 213.32 C 221.95 221.13 230.48 219.39 234.82 223.30 C 240.46 225.65 256.53 234.75 257.06 225.07 C 260.07 226.17 257.39 233.50 258.86 236.22 C 259.01 244.03 258.97 251.85 259.16 259.67 C 259.01 265.98 258.96 272.30 258.79 278.63 C 255.56 282.28 256.83 287.23 256.44 291.66 C 252.39 297.99 244.69 302.88 237.65 303.50 C 238.20 297.30 235.65 291.25 228.21 292.65 C 228.10 289.23 230.18 283.40 225.32 282.64 C 216.37 286.55 212.03 275.26 203.65 274.39 C 200.04 275.14 193.52 284.07 200.51 284.61 C 202.92 286.70 202.86 290.46 202.97 293.30 C 198.53 292.77 198.95 286.65 196.07 285.03 C 191.38 291.98 182.40 286.43 177.34 284.22 C 169.84 292.48 162.88 279.55 155.13 283.45 C 149.28 284.48 144.26 281.36 140.00 277.87 C 140.25 261.07 139.92 244.22 138.38 227.50 C 133.55 227.09 128.71 227.04 123.88 226.97 C 125.23 219.03 121.37 213.27 116.32 207.60 C 114.23 200.21 125.71 205.78 129.25 201.30 Z" />
</g>
<g id="#050a25ff">
<path fill="#050a25" opacity="1.00" d=" M 570.36 212.20 C 573.59 213.65 571.20 203.33 575.42 205.93 C 574.84 211.34 574.98 216.79 575.03 222.24 C 575.55 236.36 573.93 251.92 577.21 265.18 C 555.41 269.70 533.54 273.87 511.79 278.66 C 505.83 279.50 499.99 280.97 494.10 282.13 C 493.99 269.51 493.85 256.89 494.12 244.27 C 501.01 236.71 497.02 226.01 499.04 217.09 C 502.00 208.33 512.65 220.60 516.31 211.41 C 526.00 217.22 537.50 210.88 547.42 214.47 C 549.50 222.07 555.73 216.18 559.89 214.45 C 564.43 218.40 566.24 209.39 570.36 212.20 Z" />
</g>
<g id="#626464ff">
<path fill="#626464" opacity="1.00" d=" M 423.53 210.55 C 427.72 215.14 427.76 204.10 432.25 207.66 C 438.04 212.57 439.88 220.90 445.90 225.85 C 445.99 232.15 453.75 235.37 459.06 233.09 C 468.63 226.88 476.13 216.77 485.90 210.99 C 489.97 214.08 491.96 210.48 493.84 206.81 C 494.00 215.49 494.31 224.19 493.93 232.88 C 476.83 230.35 462.34 241.19 445.31 240.35 C 378.40 245.61 321.96 285.14 260.14 307.09 C 260.12 306.61 260.07 305.65 260.04 305.17 C 263.36 303.88 266.67 302.57 269.89 301.07 C 281.96 297.99 292.11 290.48 303.19 285.17 C 309.41 280.22 307.24 266.81 316.82 266.81 C 321.81 253.79 336.19 248.66 345.49 239.33 C 351.63 236.94 355.71 248.00 361.52 242.59 C 363.63 237.99 368.44 238.14 372.64 239.80 C 379.95 234.74 373.53 220.14 385.74 221.42 C 389.43 218.35 396.00 219.15 392.37 224.92 C 398.98 228.98 406.27 223.92 410.91 219.50 C 417.85 222.42 420.05 213.15 423.53 210.55 Z" />
</g>
<g id="#284053ff">
<path fill="#284053" opacity="1.00" d=" M 608.95 225.02 C 607.49 217.15 616.56 214.70 622.00 212.94 C 618.93 220.97 619.56 239.79 632.71 233.73 C 638.87 229.69 642.54 236.93 646.01 240.96 C 650.61 243.28 656.62 240.84 660.40 237.58 C 671.71 239.31 684.30 241.27 695.91 240.93 C 702.59 233.05 715.34 248.96 719.30 237.13 C 725.83 238.09 732.70 238.40 738.97 235.96 C 739.01 240.29 738.97 244.62 739.01 248.96 C 715.71 248.77 692.45 247.21 669.18 246.38 C 638.56 252.77 607.91 259.22 577.21 265.18 C 573.93 251.92 575.55 236.36 575.03 222.24 C 579.65 221.15 585.47 217.89 588.31 223.69 C 591.13 230.10 598.40 217.64 600.81 224.14 C 601.42 228.02 609.47 229.73 608.95 225.02 Z" />
</g>
<g id="#b7bbc4ff">
<path fill="#b7bbc4" opacity="1.00" d=" M 922.09 229.21 C 934.88 227.18 947.24 223.15 960.00 220.92 L 960.00 242.10 C 933.28 240.86 906.54 240.53 879.80 239.76 C 893.51 234.92 908.13 233.27 922.09 229.21 Z" />
</g>
<g id="#738199ff">
<path fill="#738199" opacity="1.00" d=" M 0.00 222.99 C 24.68 223.39 49.32 225.41 74.01 224.89 C 90.52 227.05 107.28 225.76 123.88 226.97 C 128.71 227.04 133.55 227.09 138.38 227.50 C 92.24 232.91 46.12 238.46 0.00 244.10 L 0.00 222.99 Z" />
</g>
<g id="#d69b5dff">
<path fill="#d69b5d" opacity="1.00" d=" M 0.00 244.10 C 46.12 238.46 92.24 232.91 138.38 227.50 C 139.92 244.22 140.25 261.07 140.00 277.87 C 139.93 285.48 139.94 293.10 140.32 300.71 C 143.07 310.24 139.69 324.86 127.98 318.02 C 125.11 322.47 117.40 322.13 114.90 327.94 C 111.30 333.10 101.76 339.20 96.84 332.96 C 93.90 332.96 93.12 339.00 89.86 336.13 C 86.31 332.83 86.88 340.26 83.76 340.42 C 79.39 340.05 75.41 343.62 73.28 346.96 C 78.55 355.00 68.25 362.87 60.45 361.58 C 53.02 367.26 42.60 360.18 36.42 367.35 C 24.19 370.21 11.60 371.20 0.00 376.38 L 0.00 244.10 Z" />
</g>
<g id="#354f61ff">
<path fill="#354f61" opacity="1.00" d=" M 445.31 240.35 C 462.34 241.19 476.83 230.35 493.93 232.88 C 491.69 235.47 489.91 238.39 487.93 241.16 C 483.75 239.42 476.75 233.94 473.77 238.80 C 474.57 248.21 476.95 266.54 461.53 263.74 C 454.94 265.46 453.46 255.00 445.66 259.15 C 434.53 260.42 449.41 274.95 440.98 280.58 C 439.36 275.58 436.90 269.30 430.75 273.54 C 427.22 278.46 422.12 281.31 416.75 284.05 C 414.82 278.94 408.17 271.45 403.04 277.87 C 396.96 279.15 402.49 293.17 395.43 287.57 C 390.66 282.10 389.81 293.96 388.28 294.54 C 384.38 289.93 384.30 284.61 384.06 278.99 C 380.21 284.80 371.78 287.11 376.04 295.02 C 367.85 297.52 368.39 288.05 364.76 283.51 C 362.01 289.98 364.02 297.31 361.84 303.85 C 358.27 308.18 352.00 306.91 346.97 307.92 C 345.47 303.19 354.68 305.13 352.34 300.69 C 351.39 296.20 348.66 292.82 350.43 288.59 C 346.66 282.63 345.13 295.73 340.29 293.94 C 338.07 290.68 340.33 287.50 340.91 284.27 C 336.53 282.22 328.06 282.28 329.55 289.97 C 324.90 287.55 320.21 289.51 316.19 292.23 C 317.46 294.12 323.00 299.31 317.82 298.39 C 309.54 297.86 311.52 306.19 308.93 311.02 C 301.62 309.17 307.97 297.95 300.95 295.96 C 290.02 289.98 295.50 308.48 291.78 313.87 C 285.80 315.42 290.54 305.33 289.00 302.22 C 281.92 303.65 270.22 302.17 271.89 312.85 C 266.51 324.48 265.46 312.15 260.06 310.75 C 259.21 305.46 259.02 300.10 259.14 294.76 C 259.34 296.36 259.75 299.56 259.95 301.16 C 259.97 302.49 260.00 303.83 260.04 305.17 C 260.07 305.65 260.12 306.61 260.14 307.09 C 321.96 285.14 378.40 245.61 445.31 240.35 Z" />
</g>
<g id="#060e27ff">
<path fill="#060e27" opacity="1.00" d=" M 875.62 270.61 C 877.88 260.69 871.37 247.86 879.80 239.76 C 906.54 240.53 933.28 240.86 960.00 242.10 L 960.00 332.09 C 942.74 330.80 925.48 329.68 908.20 328.77 C 890.16 327.11 872.06 326.21 854.00 324.87 C 853.96 318.26 854.04 311.67 854.03 305.07 C 854.00 301.46 854.02 297.89 854.27 294.30 C 851.83 283.04 864.80 287.64 868.00 279.00 C 872.65 287.06 874.19 269.81 867.48 270.90 C 869.86 268.35 872.87 269.53 875.62 270.61 Z" />
</g>
<g id="#7694b2ff">
<path fill="#7694b2" opacity="1.00" d=" M 577.21 265.18 C 607.91 259.22 638.56 252.77 669.18 246.38 C 692.45 247.21 715.71 248.77 739.01 248.96 C 777.44 251.08 815.92 252.07 854.38 253.46 C 850.28 254.81 846.06 255.79 841.84 256.59 C 832.61 258.18 823.76 261.36 814.57 263.09 C 780.70 254.62 744.66 263.65 710.02 261.14 C 686.24 265.27 663.28 259.58 641.20 268.27 C 598.14 266.67 554.42 279.06 511.79 278.66 C 533.54 273.87 555.41 269.70 577.21 265.18 Z" />
</g>
<g id="#cc9b65ff">
<path fill="#cc9b65" opacity="1.00" d=" M 841.84 256.59 C 846.06 255.79 850.28 254.81 854.38 253.46 C 856.84 266.88 852.79 280.72 854.27 294.30 C 854.02 297.89 854.00 301.46 854.03 305.07 C 836.54 309.73 818.91 314.33 801.02 317.15 C 812.71 311.62 826.01 311.70 837.99 307.06 C 846.03 299.67 845.51 287.15 848.34 277.65 C 845.91 270.33 851.33 260.01 841.84 256.59 Z" />
</g>
<g id="#f7b76dff">
<path fill="#f7b76d" opacity="1.00" d=" M 814.57 263.09 C 823.76 261.36 832.61 258.18 841.84 256.59 C 851.33 260.01 845.91 270.33 848.34 277.65 C 845.51 287.15 846.03 299.67 837.99 307.06 C 826.01 311.70 812.71 311.62 801.02 317.15 C 793.46 319.64 785.10 320.07 778.82 325.52 C 762.49 331.02 745.24 333.49 728.61 338.04 C 723.11 339.14 717.70 340.65 712.09 341.06 C 711.83 331.29 712.13 321.52 711.79 311.75 C 712.01 303.82 712.02 295.89 711.98 287.96 C 746.15 279.71 780.42 271.58 814.57 263.09 Z" />
</g>
<g id="#929eafff">
<path fill="#929eaf" opacity="1.00" d=" M 710.02 261.14 C 744.66 263.65 780.70 254.62 814.57 263.09 C 780.42 271.58 746.15 279.71 711.98 287.96 C 708.68 288.34 705.45 289.07 702.22 289.76 C 665.88 291.15 629.08 292.96 592.71 297.37 C 546.42 295.64 500.16 292.77 453.88 290.91 L 454.13 290.11 C 467.51 287.79 480.82 284.98 494.10 282.13 C 499.99 280.97 505.83 279.50 511.79 278.66 C 554.42 279.06 598.14 266.67 641.20 268.27 C 663.28 259.58 686.24 265.27 710.02 261.14 Z" />
</g>
<g id="#060d2cff">
<path fill="#060d2c" opacity="1.00" d=" M 200.51 284.61 C 193.52 284.07 200.04 275.14 203.65 274.39 C 212.03 275.26 216.37 286.55 225.32 282.64 C 230.18 283.40 228.10 289.23 228.21 292.65 C 235.65 291.25 238.20 297.30 237.65 303.50 C 244.69 302.88 252.39 297.99 256.44 291.66 C 256.83 287.23 255.56 282.28 258.79 278.63 C 259.07 284.00 259.03 289.37 259.14 294.76 C 259.02 300.10 259.21 305.46 260.06 310.75 C 258.92 317.23 259.86 323.78 259.89 330.31 C 253.05 327.51 263.72 316.34 254.23 318.09 C 253.96 323.89 251.00 333.50 243.80 329.92 C 237.50 337.27 238.72 325.29 232.60 324.38 C 232.90 319.54 228.90 311.26 223.28 315.26 C 216.41 319.60 218.48 305.29 210.98 308.99 C 206.20 308.01 209.84 315.63 209.54 318.41 C 211.59 323.19 202.60 324.66 205.87 329.17 C 208.10 335.09 197.58 333.55 196.20 338.16 C 195.22 343.06 190.35 338.46 188.16 336.72 C 187.73 332.14 190.79 326.73 186.76 323.14 C 180.25 326.20 174.43 313.99 176.93 327.19 C 175.50 321.55 169.73 319.70 166.01 315.91 C 166.58 312.89 168.47 306.80 163.10 307.99 C 157.28 308.23 166.54 318.57 160.25 317.67 C 154.05 313.97 151.19 323.38 149.50 327.74 C 145.65 329.36 144.03 324.17 141.19 322.60 C 141.09 315.29 141.07 307.98 140.32 300.71 C 139.94 293.10 139.93 285.48 140.00 277.87 C 144.26 281.36 149.28 284.48 155.13 283.45 C 162.88 279.55 169.84 292.48 177.34 284.22 C 182.40 286.43 191.38 291.98 196.07 285.03 C 198.95 286.65 198.53 292.77 202.97 293.30 C 202.86 290.46 202.92 286.70 200.51 284.61 Z" />
</g>
<g id="#203951ff">
<path fill="#203951" opacity="1.00" d=" M 702.22 289.76 C 705.45 289.07 708.68 288.34 711.98 287.96 C 712.02 295.89 712.01 303.82 711.79 311.75 C 710.57 321.72 711.20 331.77 710.86 341.78 C 693.30 346.03 675.72 350.30 658.03 354.00 C 657.72 337.10 658.23 320.21 658.72 303.32 C 657.25 298.59 650.34 301.72 646.69 300.34 C 665.73 300.89 683.91 294.10 702.22 289.76 Z" />
</g>
<g id="#698eafff">
<path fill="#698eaf" opacity="1.00" d=" M 592.71 297.37 C 629.08 292.96 665.88 291.15 702.22 289.76 C 683.91 294.10 665.73 300.89 646.69 300.34 C 628.70 299.28 610.70 298.36 592.71 297.37 Z" />
</g>
<g id="#173047ff">
<path fill="#173047" opacity="1.00" d=" M 443.12 299.30 C 444.86 294.28 448.22 289.77 454.13 290.11 L 453.88 290.91 C 450.01 302.63 454.64 325.70 438.89 328.69 C 432.97 322.21 427.74 333.58 421.12 332.15 C 417.64 340.99 410.92 328.18 407.33 336.27 C 405.09 338.61 402.80 341.80 404.90 345.00 C 376.58 343.54 348.05 338.36 320.17 346.25 C 300.15 349.54 280.19 353.25 260.11 356.17 C 260.05 350.65 259.92 345.16 260.11 339.66 C 265.22 341.92 259.26 351.56 269.73 348.14 C 266.43 341.01 275.35 339.86 278.10 334.55 C 283.56 335.05 289.07 336.69 294.48 334.61 C 295.85 332.26 297.62 322.11 302.02 325.95 C 305.59 329.51 304.28 336.09 307.99 339.03 C 315.33 330.93 323.97 325.97 334.47 323.55 C 343.33 330.80 355.40 333.63 365.86 328.92 C 367.53 321.47 376.87 330.59 380.42 323.42 C 386.15 317.64 399.92 325.81 398.74 313.60 C 401.26 304.33 412.72 312.00 418.47 311.56 C 420.60 305.42 426.36 303.60 431.27 300.26 C 436.49 301.10 439.79 292.72 443.12 299.30 Z" />
</g>
<g id="#071536ff">
<path fill="#071536" opacity="1.00" d=" M 453.88 290.91 C 500.16 292.77 546.42 295.64 592.71 297.37 C 610.70 298.36 628.70 299.28 646.69 300.34 C 650.34 301.72 657.25 298.59 658.72 303.32 C 658.23 320.21 657.72 337.10 658.03 354.00 C 621.76 362.51 585.44 370.86 549.16 379.38 C 539.99 379.76 543.83 357.37 551.69 366.35 C 559.47 374.48 562.14 362.36 565.45 357.46 C 566.86 354.30 562.63 355.36 560.79 355.03 C 508.77 352.81 456.87 348.23 404.90 345.00 C 402.80 341.80 405.09 338.61 407.33 336.27 C 410.92 328.18 417.64 340.99 421.12 332.15 C 427.74 333.58 432.97 322.21 438.89 328.69 C 454.64 325.70 450.01 302.63 453.88 290.91 Z" />
</g>
<g id="#b18355ff">
<path fill="#b18355" opacity="1.00" d=" M 140.32 300.71 C 141.07 307.98 141.09 315.29 141.19 322.60 C 140.92 331.04 141.07 339.50 140.98 347.95 C 106.98 355.32 72.68 361.34 38.78 369.21 C 25.28 370.39 12.53 374.54 0.00 379.36 L 0.00 376.38 C 11.60 371.20 24.19 370.21 36.42 367.35 C 42.60 360.18 53.02 367.26 60.45 361.58 C 68.25 362.87 78.55 355.00 73.28 346.96 C 75.41 343.62 79.39 340.05 83.76 340.42 C 86.88 340.26 86.31 332.83 89.86 336.13 C 93.12 339.00 93.90 332.96 96.84 332.96 C 101.76 339.20 111.30 333.10 114.90 327.94 C 117.40 322.13 125.11 322.47 127.98 318.02 C 139.69 324.86 143.07 310.24 140.32 300.71 Z" />
</g>
<g id="#354857ff">
<path fill="#354857" opacity="1.00" d=" M 801.02 317.15 C 818.91 314.33 836.54 309.73 854.03 305.07 C 854.04 311.67 853.96 318.26 854.00 324.87 C 828.84 323.28 803.48 318.80 778.82 325.52 C 785.10 320.07 793.46 319.64 801.02 317.15 Z" />
</g>
<g id="#04041dff">
<path fill="#04041d" opacity="1.00" d=" M 160.25 317.67 C 166.54 318.57 157.28 308.23 163.10 307.99 C 168.47 306.80 166.58 312.89 166.01 315.91 C 169.73 319.70 175.50 321.55 176.93 327.19 C 174.43 313.99 180.25 326.20 186.76 323.14 C 190.79 326.73 187.73 332.14 188.16 336.72 C 190.35 338.46 195.22 343.06 196.20 338.16 C 197.58 333.55 208.10 335.09 205.87 329.17 C 202.60 324.66 211.59 323.19 209.54 318.41 C 209.84 315.63 206.20 308.01 210.98 308.99 C 218.48 305.29 216.41 319.60 223.28 315.26 C 228.90 311.26 232.90 319.54 232.60 324.38 C 238.72 325.29 237.50 337.27 243.80 329.92 C 251.00 333.50 253.96 323.89 254.23 318.09 C 263.72 316.34 253.05 327.51 259.89 330.31 C 260.07 333.43 260.02 336.51 260.11 339.66 C 259.92 345.16 260.05 350.65 260.11 356.17 C 244.27 359.67 227.75 360.38 212.22 365.07 C 188.65 367.11 165.43 372.39 142.03 375.86 C 141.13 366.58 140.81 357.26 140.98 347.95 C 141.07 339.50 140.92 331.04 141.19 322.60 C 144.03 324.17 145.65 329.36 149.50 327.74 C 151.19 323.38 154.05 313.97 160.25 317.67 Z" />
</g>
<g id="#9098a8ff">
<path fill="#9098a8" opacity="1.00" d=" M 710.86 341.78 C 711.20 331.77 710.57 321.72 711.79 311.75 C 712.13 321.52 711.83 331.29 712.09 341.06 C 717.70 340.65 723.11 339.14 728.61 338.04 C 788.40 338.01 848.46 332.75 908.20 328.77 C 925.48 329.68 942.74 330.80 960.00 332.09 L 960.00 367.62 C 923.13 378.56 886.17 389.28 849.38 400.39 C 839.09 405.79 818.06 403.38 820.20 419.22 C 820.08 415.82 820.28 412.47 819.82 409.12 C 723.47 400.57 626.96 393.40 530.63 384.55 C 536.19 381.15 543.06 381.24 549.16 379.38 C 585.44 370.86 621.76 362.51 658.03 354.00 C 675.72 350.30 693.30 346.03 710.86 341.78 Z" />
</g>
<g id="#608aafff">
<path fill="#608aaf" opacity="1.00" d=" M 778.82 325.52 C 803.48 318.80 828.84 323.28 854.00 324.87 C 872.06 326.21 890.16 327.11 908.20 328.77 C 848.46 332.75 788.40 338.01 728.61 338.04 C 745.24 333.49 762.49 331.02 778.82 325.52 Z" />
</g>
<g id="#507ba6ff">
<path fill="#507ba6" opacity="1.00" d=" M 320.17 346.25 C 348.05 338.36 376.58 343.54 404.90 345.00 C 456.87 348.23 508.77 352.81 560.79 355.03 C 567.51 357.22 559.89 357.36 556.41 358.18 C 488.68 370.99 421.21 385.26 353.56 398.51 C 319.22 404.36 285.39 414.10 250.72 417.26 C 197.56 413.02 144.37 409.05 91.22 404.74 C 86.45 404.26 81.64 404.00 76.92 403.14 C 76.56 401.21 75.20 398.60 77.95 397.94 C 122.09 385.18 168.75 379.56 212.22 365.07 C 227.75 360.38 244.27 359.67 260.11 356.17 C 280.19 353.25 300.15 349.54 320.17 346.25 Z" />
</g>
<g id="#24384aff">
<path fill="#24384a" opacity="1.00" d=" M 38.78 369.21 C 72.68 361.34 106.98 355.32 140.98 347.95 C 140.81 357.26 141.13 366.58 142.03 375.86 C 98.59 382.90 55.18 390.28 11.76 397.40 C 33.05 400.86 55.25 401.25 76.92 403.14 C 81.64 404.00 86.45 404.26 91.22 404.74 C 89.61 405.00 86.38 405.50 84.76 405.75 C 56.50 404.77 28.11 402.88 0.00 399.91 L 0.00 379.36 C 12.53 374.54 25.28 370.39 38.78 369.21 Z" />
</g>
<g id="#102237ff">
<path fill="#102237" opacity="1.00" d=" M 560.79 355.03 C 562.63 355.36 566.86 354.30 565.45 357.46 C 562.14 362.36 559.47 374.48 551.69 366.35 C 543.83 357.37 539.99 379.76 549.16 379.38 C 543.06 381.24 536.19 381.15 530.63 384.55 C 521.03 393.25 530.59 411.02 526.52 422.66 C 525.56 425.81 524.85 429.21 527.00 431.97 C 479.39 427.79 431.90 422.15 384.26 418.37 C 377.88 418.66 379.98 404.02 387.01 406.52 C 390.96 396.45 401.21 403.81 406.43 407.38 C 410.24 399.64 420.53 389.23 429.62 397.20 C 434.42 395.19 442.14 385.44 448.67 390.41 C 453.86 394.89 456.21 386.26 460.71 389.17 C 468.62 394.21 471.21 377.73 478.41 385.61 C 490.15 382.72 502.11 378.96 512.70 371.67 C 517.99 368.40 523.29 377.36 528.00 372.93 C 534.28 363.03 548.48 365.85 556.41 358.18 C 559.89 357.36 567.51 357.22 560.79 355.03 Z" />
</g>
<g id="#1d374fff">
<path fill="#1d374f" opacity="1.00" d=" M 353.56 398.51 C 421.21 385.26 488.68 370.99 556.41 358.18 C 548.48 365.85 534.28 363.03 528.00 372.93 C 523.29 377.36 517.99 368.40 512.70 371.67 C 502.11 378.96 490.15 382.72 478.41 385.61 C 471.21 377.73 468.62 394.21 460.71 389.17 C 456.21 386.26 453.86 394.89 448.67 390.41 C 442.14 385.44 434.42 395.19 429.62 397.20 C 420.53 389.23 410.24 399.64 406.43 407.38 C 401.21 403.81 390.96 396.45 387.01 406.52 C 379.98 404.02 377.88 418.66 384.26 418.37 C 368.61 422.09 352.61 424.44 337.18 429.03 C 309.68 433.88 282.48 440.47 255.15 446.21 C 257.13 437.75 264.87 416.80 250.72 417.26 C 285.39 414.10 319.22 404.36 353.56 398.51 Z" />
</g>
<g id="#6f7e99ff">
<path fill="#6f7e99" opacity="1.00" d=" M 142.03 375.86 C 165.43 372.39 188.65 367.11 212.22 365.07 C 168.75 379.56 122.09 385.18 77.95 397.94 C 75.20 398.60 76.56 401.21 76.92 403.14 C 55.25 401.25 33.05 400.86 11.76 397.40 C 55.18 390.28 98.59 382.90 142.03 375.86 Z" />
</g>
<g id="#e3ac72ff">
<path fill="#e3ac72" opacity="1.00" d=" M 849.38 400.39 C 886.17 389.28 923.13 378.56 960.00 367.62 L 960.00 389.67 C 912.72 419.60 867.92 453.87 821.01 484.04 C 816.20 481.99 820.05 471.26 818.79 465.76 C 818.74 450.22 819.71 434.73 820.20 419.22 C 818.06 403.38 839.09 405.79 849.38 400.39 Z" />
</g>
<g id="#081432ff">
<path fill="#081432" opacity="1.00" d=" M 526.52 422.66 C 530.59 411.02 521.03 393.25 530.63 384.55 C 626.96 393.40 723.47 400.57 819.82 409.12 C 820.28 412.47 820.08 415.82 820.20 419.22 C 819.71 434.73 818.74 450.22 818.79 465.76 C 818.02 472.88 817.76 480.05 817.89 487.23 C 817.74 495.42 818.54 503.67 817.84 511.85 C 814.30 513.84 810.38 514.99 806.85 516.98 C 784.65 524.37 762.43 531.72 740.53 540.00 L 694.89 540.00 C 696.29 514.61 696.75 489.19 698.01 463.81 C 698.30 459.11 698.84 454.34 697.51 449.73 C 640.79 442.87 583.78 438.45 527.00 431.97 C 524.85 429.21 525.56 425.81 526.52 422.66 Z" />
</g>
<g id="#99826cff">
<path fill="#99826c" opacity="1.00" d=" M 821.01 484.04 C 867.92 453.87 912.72 419.60 960.00 389.67 L 960.00 390.70 C 914.90 422.73 869.58 454.68 823.79 485.76 C 822.11 487.06 820.00 487.81 817.89 487.23 C 817.76 480.05 818.02 472.88 818.79 465.76 C 820.05 471.26 816.20 481.99 821.01 484.04 Z" />
</g>
<g id="#334e63ff">
<path fill="#334e63" opacity="1.00" d=" M 823.79 485.76 C 869.58 454.68 914.90 422.73 960.00 390.70 L 960.00 465.75 C 909.19 483.10 857.63 500.05 806.85 516.98 C 810.38 514.99 814.30 513.84 817.84 511.85 C 818.54 503.67 817.74 495.42 817.89 487.23 C 820.00 487.81 822.11 487.06 823.79 485.76 Z" />
</g>
<g id="#8794a9ff">
<path fill="#8794a9" opacity="1.00" d=" M 0.00 399.91 C 28.11 402.88 56.50 404.77 84.76 405.75 C 87.95 406.15 91.13 406.69 94.31 407.20 C 92.49 407.53 90.66 407.84 88.82 408.08 C 59.17 411.96 29.58 416.60 0.00 420.98 L 0.00 399.91 Z" />
</g>
<g id="#050825ff">
<path fill="#050825" opacity="1.00" d=" M 84.76 405.75 C 86.38 405.50 89.61 405.00 91.22 404.74 C 144.37 409.05 197.56 413.02 250.72 417.26 C 264.87 416.80 257.13 437.75 255.15 446.21 C 201.14 457.79 147.16 469.54 93.18 481.28 C 84.89 481.44 91.75 476.92 94.31 474.23 C 95.78 454.88 94.42 435.38 96.12 416.01 C 94.17 414.58 98.40 407.10 94.31 407.20 C 91.13 406.69 87.95 406.15 84.76 405.75 Z" />
</g>
<g id="#7d522cff">
<path fill="#7d522c" opacity="1.00" d=" M 94.31 407.20 C 98.40 407.10 94.17 414.58 96.12 416.01 C 94.42 435.38 95.78 454.88 94.31 474.23 C 92.57 474.57 90.81 474.85 89.06 475.16 C 94.93 462.44 91.38 447.38 90.09 434.12 C 92.53 425.65 90.24 416.59 88.82 408.08 C 90.66 407.84 92.49 407.53 94.31 407.20 Z" />
</g>
<g id="#a5794eff">
<path fill="#a5794e" opacity="1.00" d=" M 0.00 420.98 C 29.58 416.60 59.17 411.96 88.82 408.08 C 90.24 416.59 92.53 425.65 90.09 434.12 C 91.38 447.38 94.93 462.44 89.06 475.16 C 59.70 482.18 29.27 489.22 0.00 495.11 L 0.00 420.98 Z" />
</g>
<g id="#9896a1ff">
<path fill="#9896a1" opacity="1.00" d=" M 384.26 418.37 C 431.90 422.15 479.39 427.79 527.00 431.97 C 583.78 438.45 640.79 442.87 697.51 449.73 C 592.88 479.97 487.69 508.74 383.35 540.00 L 246.68 540.00 C 235.97 531.46 217.50 544.35 208.79 528.87 C 218.75 521.82 229.83 514.15 243.33 514.41 C 252.15 515.91 254.96 502.97 263.74 505.48 C 263.45 501.56 245.76 502.78 255.30 494.26 C 259.45 497.08 269.53 504.79 272.60 496.16 C 271.15 486.10 279.11 497.74 283.61 491.96 C 280.52 489.88 274.53 491.64 273.72 487.17 C 272.06 481.51 263.94 489.85 261.24 484.82 C 258.33 479.03 256.33 492.54 250.94 488.10 C 246.90 488.63 247.33 481.45 243.06 482.15 C 237.43 483.30 231.42 481.43 226.03 482.91 C 225.07 491.30 214.79 494.62 207.96 491.13 C 202.64 492.29 196.89 493.96 192.73 489.02 C 189.53 496.99 181.83 493.57 175.24 496.00 C 173.70 486.81 170.04 492.39 165.42 495.81 C 163.79 488.32 155.37 492.37 149.94 490.90 C 152.76 487.83 155.33 484.34 158.92 482.12 C 165.83 489.10 174.69 478.32 180.25 488.45 C 184.00 482.41 195.06 485.82 199.30 478.26 C 201.59 475.05 204.99 471.94 207.82 477.16 C 212.20 483.85 224.62 471.07 212.61 472.51 C 216.82 468.51 223.84 471.73 226.95 466.90 C 234.55 461.26 244.09 462.16 252.98 461.15 C 266.24 462.88 280.21 456.68 292.26 464.76 C 296.92 467.51 298.93 463.34 301.82 461.18 C 311.48 465.59 320.75 460.39 330.71 459.29 C 336.14 462.86 344.27 456.99 345.22 451.21 C 350.56 447.01 341.58 442.18 340.79 437.16 C 334.21 437.84 328.27 441.40 322.13 443.00 C 316.67 439.79 325.05 436.62 326.16 433.44 C 330.45 434.50 333.76 430.99 337.18 429.03 C 352.61 424.44 368.61 422.09 384.26 418.37 Z" />
</g>
<g id="#8d8d9aff">
<path fill="#8d8d9a" opacity="1.00" d=" M 255.15 446.21 C 282.48 440.47 309.68 433.88 337.18 429.03 C 333.76 430.99 330.45 434.50 326.16 433.44 C 325.05 436.62 316.67 439.79 322.13 443.00 C 328.27 441.40 334.21 437.84 340.79 437.16 C 341.58 442.18 350.56 447.01 345.22 451.21 C 344.27 456.99 336.14 462.86 330.71 459.29 C 320.75 460.39 311.48 465.59 301.82 461.18 C 298.93 463.34 296.92 467.51 292.26 464.76 C 280.21 456.68 266.24 462.88 252.98 461.15 C 244.09 462.16 234.55 461.26 226.95 466.90 C 223.84 471.73 216.82 468.51 212.61 472.51 C 224.62 471.07 212.20 483.85 207.82 477.16 C 204.99 471.94 201.59 475.05 199.30 478.26 C 195.06 485.82 184.00 482.41 180.25 488.45 C 174.69 478.32 165.83 489.10 158.92 482.12 C 155.33 484.34 152.76 487.83 149.94 490.90 C 155.37 492.37 163.79 488.32 165.42 495.81 C 170.04 492.39 173.70 486.81 175.24 496.00 C 181.83 493.57 189.53 496.99 192.73 489.02 C 196.89 493.96 202.64 492.29 207.96 491.13 C 214.79 494.62 225.07 491.30 226.03 482.91 C 231.42 481.43 237.43 483.30 243.06 482.15 C 247.33 481.45 246.90 488.63 250.94 488.10 C 256.33 492.54 258.33 479.03 261.24 484.82 C 263.94 489.85 272.06 481.51 273.72 487.17 C 274.53 491.64 280.52 489.88 283.61 491.96 C 279.11 497.74 271.15 486.10 272.60 496.16 C 269.53 504.79 259.45 497.08 255.30 494.26 C 245.76 502.78 263.45 501.56 263.74 505.48 C 254.96 502.97 252.15 515.91 243.33 514.41 C 229.83 514.15 218.75 521.82 208.79 528.87 C 217.50 544.35 235.97 531.46 246.68 540.00 L 0.00 540.00 L 0.00 502.41 C 30.74 494.15 62.16 488.46 93.18 481.28 C 147.16 469.54 201.14 457.79 255.15 446.21 Z" />
</g>
<g id="#dea366ff">
<path fill="#dea366" opacity="1.00" d=" M 383.35 540.00 C 487.69 508.74 592.88 479.97 697.51 449.73 C 698.84 454.34 698.30 459.11 698.01 463.81 C 694.17 469.83 687.78 473.99 686.73 481.68 C 685.33 489.46 688.30 500.96 679.25 504.89 C 675.78 498.07 678.39 489.71 674.84 483.01 C 668.87 484.80 669.53 494.12 667.11 499.10 C 673.25 508.18 662.80 519.01 663.06 529.88 C 659.98 529.26 653.79 537.89 659.49 534.55 C 662.28 533.05 659.85 538.39 660.02 540.00 L 383.35 540.00 Z" />
</g>
<g id="#ce9555ff">
<path fill="#ce9555" opacity="1.00" d=" M 686.73 481.68 C 687.78 473.99 694.17 469.83 698.01 463.81 C 696.75 489.19 696.29 514.61 694.89 540.00 L 660.02 540.00 C 659.85 538.39 662.28 533.05 659.49 534.55 C 653.79 537.89 659.98 529.26 663.06 529.88 C 662.80 519.01 673.25 508.18 667.11 499.10 C 669.53 494.12 668.87 484.80 674.84 483.01 C 678.39 489.71 675.78 498.07 679.25 504.89 C 688.30 500.96 685.33 489.46 686.73 481.68 Z" />
</g>
<g id="#9496a2ff">
<path fill="#9496a2" opacity="1.00" d=" M 806.85 516.98 C 857.63 500.05 909.19 483.10 960.00 465.75 L 960.00 540.00 L 740.53 540.00 C 762.43 531.72 784.65 524.37 806.85 516.98 Z" />
</g>
<g id="#434d56ff">
<path fill="#434d56" opacity="1.00" d=" M 89.06 475.16 C 90.81 474.85 92.57 474.57 94.31 474.23 C 91.75 476.92 84.89 481.44 93.18 481.28 C 62.16 488.46 30.74 494.15 0.00 502.41 L 0.00 495.11 C 29.27 489.22 59.70 482.18 89.06 475.16 Z" />
</g>
</svg>
